<svg width="141" height="36" viewBox="0 0 141 36" fill="none" xmlns="http://www.w3.org/2000/svg">
<path d="M21.7231 16.9055C21.7389 15.6871 22.0644 14.4924 22.6693 13.4326C23.2742 12.3728 24.1388 11.4824 25.1827 10.8442C24.5195 9.9024 23.6447 9.12731 22.6276 8.58052C21.6105 8.03373 20.4791 7.73031 19.3235 7.69434C16.8583 7.43702 14.4684 9.16133 13.2121 9.16133C11.9317 9.16133 9.99749 7.71989 7.91463 7.76257C6.56746 7.80587 5.25454 8.19544 4.10379 8.89332C2.95304 9.5912 2.0037 10.5736 1.34827 11.7448C-1.491 16.6329 0.626873 23.8167 3.34656 27.768C4.70718 29.7027 6.29749 31.8639 8.37838 31.7873C10.4147 31.7033 11.1753 30.496 13.6331 30.496C16.0683 30.496 16.7818 31.7873 18.9049 31.7386C21.09 31.7033 22.4667 29.7953 23.7796 27.8421C24.7573 26.4635 25.5096 24.9398 26.0087 23.3274C24.7393 22.7935 23.656 21.8999 22.8939 20.7579C22.1318 19.6159 21.7246 18.2761 21.7231 16.9055ZM17.713 5.09587C18.9044 3.67365 19.4913 1.84562 19.3492 0C17.5291 0.190139 15.8478 1.05521 14.6404 2.42285C14.05 3.09096 13.5978 3.86822 13.3097 4.71021C13.0216 5.5522 12.9032 6.44239 12.9613 7.32991C13.8717 7.33924 14.7724 7.14301 15.5955 6.75602C16.4186 6.36902 17.1425 5.80148 17.713 5.09587ZM46.1532 27.0836H39.4709L37.8662 31.7954H35.0357L41.3652 14.3628H44.3058L50.6351 31.7954H47.7566L46.1532 27.0836ZM40.163 24.9093H45.4598L42.8486 17.2624H42.7755L40.163 24.9093ZM64.3043 25.4413C64.3043 29.3908 62.1784 31.9284 58.9704 31.9284C58.1577 31.9706 57.3495 31.7845 56.6383 31.3912C55.9271 30.9979 55.3416 30.4135 54.949 29.7047H54.8883V36H52.2646V19.0856H54.8041V21.1997H54.8524C55.2631 20.4943 55.8585 19.9128 56.5751 19.5172C57.2918 19.1215 58.1029 18.9264 58.9221 18.9527C62.166 18.9527 64.3043 21.5027 64.3043 25.4413ZM61.6076 25.4413C61.6076 22.8681 60.2705 21.1764 58.2301 21.1764C56.2254 21.1764 54.8772 22.9036 54.8772 25.4412C54.8772 28.0022 56.2254 29.7172 58.2301 29.7172C60.2705 29.7172 61.6076 28.038 61.6076 25.4413ZM78.3726 25.4413C78.3726 29.3908 76.2461 31.9284 73.038 31.9284C72.2253 31.9706 71.4171 31.7845 70.7059 31.3912C69.9947 30.9979 69.4092 30.4135 69.0165 29.7047H68.9558V36H66.3323V19.0856H68.8717V21.1997H68.92C69.3307 20.4943 69.9261 19.9128 70.6427 19.5172C71.3593 19.1215 72.1704 18.9264 72.9897 18.9527C76.2337 18.9527 78.3726 21.5027 78.3726 25.4413ZM75.6754 25.4413C75.6754 22.8681 74.338 21.1764 72.2977 21.1764C70.293 21.1764 68.9448 22.9036 68.9448 25.4412C68.9448 28.0022 70.293 29.7172 72.2977 29.7172C74.338 29.7172 75.6754 28.038 75.6754 25.4413ZM87.6688 26.9383C87.8632 28.667 89.552 29.8021 91.8598 29.8021C94.0711 29.8021 95.6621 28.667 95.6621 27.1082C95.6621 25.7551 94.7026 24.9449 92.4307 24.3897L90.1587 23.8454C86.9395 23.0722 85.4451 21.5752 85.4451 19.1459C85.4451 16.138 88.081 14.0722 91.8227 14.0722C95.5285 14.0722 98.0679 16.138 98.1534 19.1459H95.505C95.3465 17.4063 93.9002 16.3561 91.7868 16.3561C89.6733 16.3561 88.2271 17.4186 88.2271 18.9649C88.2271 20.1975 89.1508 20.9227 91.4104 21.4778L93.3418 21.9494C96.9388 22.7952 98.4318 24.2321 98.4318 26.7818C98.4318 30.0433 95.8207 32.086 91.6654 32.086C87.7775 32.086 85.1527 30.0912 84.9831 26.9382L87.6688 26.9383ZM104.097 16.078V19.0856H106.527V21.1516H104.097V28.1584C104.097 29.2469 104.583 29.7541 105.652 29.7541C105.94 29.7491 106.228 29.729 106.515 29.6938V31.7475C106.034 31.8367 105.546 31.8771 105.058 31.868C102.47 31.868 101.461 30.9016 101.461 28.4366V21.1516H99.6023V19.0856H101.461V16.078H104.097ZM107.933 25.4413C107.933 21.4422 110.302 18.9294 113.995 18.9294C117.701 18.9294 120.059 21.4422 120.059 25.4413C120.059 29.4512 117.713 31.9531 113.995 31.9531C110.278 31.9531 107.933 29.4512 107.933 25.4413ZM117.385 25.4413C117.385 22.6981 116.121 21.0789 113.995 21.0789C111.869 21.0789 110.605 22.7103 110.605 25.4413C110.605 28.1955 111.869 29.8021 113.995 29.8021C116.121 29.8021 117.385 28.1955 117.385 25.4413ZM122.221 19.0856H124.724V21.2489H124.784C124.954 20.5733 125.352 19.9762 125.912 19.558C126.472 19.1399 127.159 18.9261 127.859 18.9527C128.161 18.9516 128.463 18.9843 128.758 19.05V21.4902C128.376 21.3743 127.978 21.321 127.579 21.3326C127.198 21.3172 126.818 21.384 126.465 21.5285C126.112 21.6729 125.795 21.8915 125.536 22.1693C125.276 22.4471 125.08 22.7775 124.961 23.1379C124.841 23.4982 124.802 23.8799 124.845 24.2568V31.7954H122.221V19.0856ZM140.854 28.0624C140.501 30.3697 138.241 31.9531 135.35 31.9531C131.632 31.9531 129.324 29.4759 129.324 25.5015C129.324 21.515 131.645 18.9294 135.24 18.9294C138.776 18.9294 141 21.345 141 25.1986V26.0924H131.973V26.25C131.931 26.7178 131.99 27.189 132.145 27.6324C132.301 28.0758 132.55 28.4812 132.875 28.8218C133.2 29.1623 133.594 29.4301 134.032 29.6074C134.469 29.7847 134.939 29.8674 135.411 29.8501C136.031 29.9079 136.653 29.7651 137.185 29.443C137.717 29.1209 138.13 28.6367 138.363 28.0624H140.854ZM131.985 24.2691H138.375C138.399 23.8485 138.335 23.4276 138.187 23.0329C138.039 22.6381 137.811 22.2779 137.516 21.975C137.222 21.6721 136.868 21.433 136.476 21.2727C136.084 21.1123 135.664 21.0342 135.24 21.0433C134.813 21.0407 134.389 21.1224 133.994 21.2834C133.599 21.4445 133.239 21.6819 132.937 21.9818C132.634 22.2817 132.394 22.6382 132.231 23.0308C132.068 23.4234 131.984 23.8443 131.985 24.2691ZM39.8349 1.24112C40.3849 1.20186 40.9369 1.28449 41.4509 1.48304C41.9649 1.68159 42.4282 1.99111 42.8074 2.38928C43.1866 2.78745 43.4721 3.26434 43.6435 3.78555C43.8149 4.30676 43.8678 4.8593 43.7984 5.40331C43.7984 8.07927 42.3439 9.61758 39.8349 9.61758H36.7922V1.24098L39.8349 1.24112ZM38.1006 8.43289H39.6888C40.0818 8.45623 40.4751 8.39214 40.8401 8.24527C41.205 8.0984 41.5325 7.87246 41.7986 7.58388C42.0647 7.29531 42.2627 6.95137 42.3783 6.57709C42.4938 6.20282 42.524 5.80763 42.4666 5.42029C42.5198 5.03448 42.4866 4.64174 42.3693 4.27021C42.2519 3.89867 42.0534 3.55754 41.7879 3.27126C41.5225 2.98498 41.1966 2.76063 40.8337 2.6143C40.4708 2.46796 40.0798 2.40326 39.6888 2.42482H38.1006V8.43289ZM45.2764 6.45407C45.2364 6.03865 45.2842 5.61951 45.4167 5.22354C45.5491 4.82756 45.7634 4.46348 46.0456 4.15466C46.3279 3.84584 46.6719 3.5991 47.0557 3.43025C47.4395 3.2614 47.8545 3.17418 48.2742 3.17418C48.6938 3.17418 49.1089 3.2614 49.4926 3.43025C49.8764 3.5991 50.2205 3.84584 50.5027 4.15466C50.785 4.46348 50.9992 4.82756 51.1317 5.22354C51.2642 5.61951 51.312 6.03865 51.272 6.45407C51.3128 6.86997 51.2657 7.28977 51.1336 7.68647C51.0015 8.08318 50.7875 8.44802 50.5051 8.75753C50.2228 9.06704 49.8784 9.31438 49.4942 9.48364C49.11 9.65291 48.6944 9.74035 48.2742 9.74035C47.8539 9.74035 47.4384 9.65291 47.0541 9.48364C46.6699 9.31438 46.3256 9.06704 46.0432 8.75753C45.7609 8.44802 45.5468 8.08318 45.4147 7.68647C45.2827 7.28977 45.2355 6.86997 45.2764 6.45407ZM49.9817 6.45407C49.9817 5.0838 49.3626 4.2825 48.2763 4.2825C47.1857 4.2825 46.5723 5.0838 46.5723 6.45407C46.5723 7.83529 47.1859 8.63041 48.2763 8.63041C49.3626 8.63041 49.9817 7.82981 49.9817 6.45407ZM59.242 9.61744H57.9404L56.6267 4.9618H56.5274L55.2192 9.61744H53.9301L52.1779 3.29603H53.4503L54.5891 8.11956H54.6828L55.9898 3.29603H57.1933L58.5003 8.11956H58.5995L59.7327 3.29603H60.9873L59.242 9.61744ZM62.461 3.29617H63.6688V4.30032H63.7625C63.9215 3.93963 64.1898 3.63726 64.5298 3.43537C64.8699 3.23348 65.2648 3.14212 65.6596 3.17404C65.9689 3.15092 66.2795 3.1973 66.5683 3.30975C66.8571 3.42219 67.1168 3.59781 67.3281 3.82361C67.5394 4.0494 67.697 4.31958 67.789 4.61412C67.8811 4.90867 67.9053 5.22004 67.8599 5.52516V9.61729H66.6053V5.83849C66.6053 4.82269 66.1613 4.31745 65.2335 4.31745C65.0235 4.30774 64.8139 4.34329 64.619 4.42167C64.4241 4.50005 64.2486 4.6194 64.1044 4.77155C63.9602 4.9237 63.8508 5.10505 63.7837 5.30316C63.7166 5.50127 63.6934 5.71147 63.7156 5.91935V9.61744H62.461V3.29617ZM69.8589 0.828395H71.1134V9.61744H69.8589V0.828395ZM72.8574 6.45407C72.8174 6.03859 72.8652 5.6194 72.9977 5.22337C73.1302 4.82734 73.3445 4.46321 73.6268 4.15435C73.9091 3.84549 74.2532 3.59871 74.637 3.42984C75.0208 3.26097 75.4359 3.17374 75.8556 3.17374C76.2754 3.17374 76.6904 3.26097 77.0743 3.42984C77.4581 3.59871 77.8022 3.84549 78.0845 4.15435C78.3668 4.46321 78.5811 4.82734 78.7136 5.22337C78.846 5.6194 78.8938 6.03859 78.8539 6.45407C78.8945 6.8699 78.8472 7.2896 78.715 7.68618C78.5828 8.08276 78.3686 8.44745 78.0863 8.75683C77.8039 9.06622 77.4596 9.31344 77.0754 9.48262C76.6913 9.6518 76.2758 9.7392 75.8556 9.7392C75.4355 9.7392 75.02 9.6518 74.6358 9.48262C74.2517 9.31344 73.9073 9.06622 73.625 8.75683C73.3426 8.44745 73.1285 8.08276 72.9963 7.68618C72.8641 7.2896 72.8168 6.8699 72.8574 6.45407ZM77.5627 6.45407C77.5627 5.0838 76.9436 4.2825 75.8573 4.2825C74.7668 4.2825 74.1534 5.0838 74.1534 6.45407C74.1534 7.83529 74.7669 8.63041 75.8573 8.63041C76.9436 8.63041 77.5627 7.82981 77.5627 6.45407ZM80.1745 7.82981C80.1745 6.69187 81.0265 6.03587 82.5389 5.94265L84.2608 5.84397V5.2983C84.2608 4.63064 83.8169 4.25372 82.9594 4.25372C82.2591 4.25372 81.7737 4.50935 81.6345 4.95633H80.4199C80.5481 3.87047 81.5752 3.17418 83.0173 3.17418C84.611 3.17418 85.5099 3.96313 85.5099 5.2983V9.61744H84.3021V8.7291H84.2029C84.0014 9.04774 83.7185 9.30752 83.3831 9.48189C83.0476 9.65625 82.6716 9.73898 82.2935 9.7216C82.0267 9.7492 81.757 9.72088 81.5018 9.63848C81.2466 9.55608 81.0116 9.42142 80.812 9.24319C80.6123 9.06495 80.4524 8.84709 80.3427 8.60365C80.2329 8.36022 80.1756 8.09661 80.1745 7.82981ZM84.2608 7.28962V6.76108L82.7084 6.85977C81.833 6.91803 81.4359 7.21423 81.4359 7.77141C81.4359 8.34038 81.9323 8.67154 82.6147 8.67154C82.8147 8.69167 83.0167 8.6716 83.2087 8.61251C83.4007 8.55342 83.5788 8.45653 83.7324 8.32759C83.8859 8.19866 84.0119 8.04033 84.1026 7.86201C84.1934 7.68369 84.2472 7.48903 84.2608 7.28962ZM87.1588 6.45407C87.1588 4.45657 88.1913 3.19131 89.7974 3.19131C90.1947 3.17309 90.589 3.26771 90.9342 3.4641C91.2794 3.66048 91.5613 3.95053 91.7469 4.30032H91.8406V0.828254H93.0951V9.61729H91.893V8.61848H91.7937C91.5938 8.96592 91.3022 9.25236 90.9503 9.44678C90.5985 9.6412 90.1998 9.73619 89.7976 9.72146C88.1803 9.72146 87.1588 8.45619 87.1588 6.45407ZM88.4547 6.45407C88.4547 7.79471 89.0903 8.60163 90.153 8.60163C91.2104 8.60163 91.864 7.7832 91.864 6.4594C91.864 5.14206 91.2036 4.31198 90.153 4.31198C89.0971 4.31198 88.4547 5.12423 88.4547 6.45407ZM98.2857 6.45407C98.2457 6.03865 98.2935 5.61951 98.426 5.22354C98.5584 4.82756 98.7727 4.46348 99.0549 4.15466C99.3372 3.84584 99.6812 3.5991 100.065 3.43025C100.449 3.2614 100.864 3.17418 101.283 3.17418C101.703 3.17418 102.118 3.2614 102.502 3.43025C102.886 3.5991 103.23 3.84584 103.512 4.15466C103.794 4.46348 104.009 4.82756 104.141 5.22354C104.273 5.61951 104.321 6.03865 104.281 6.45407C104.322 6.86997 104.275 7.28977 104.143 7.68647C104.011 8.08318 103.797 8.44802 103.514 8.75753C103.232 9.06704 102.888 9.31438 102.504 9.48364C102.119 9.65291 101.704 9.74035 101.283 9.74035C100.863 9.74035 100.448 9.65291 100.063 9.48364C99.6792 9.31438 99.3349 9.06704 99.0526 8.75753C98.7702 8.44802 98.5561 8.08318 98.424 7.68647C98.292 7.28977 98.2449 6.86997 98.2857 6.45407ZM102.991 6.45407C102.991 5.0838 102.372 4.2825 101.286 4.2825C100.195 4.2825 99.5817 5.0838 99.5817 6.45407C99.5817 7.83529 100.195 8.63041 101.286 8.63041C102.372 8.63041 102.991 7.82981 102.991 6.45407ZM105.965 3.29617H107.172V4.30032H107.266C107.425 3.93963 107.693 3.63726 108.033 3.43537C108.373 3.23348 108.768 3.14212 109.163 3.17404C109.472 3.15092 109.783 3.1973 110.072 3.30975C110.361 3.42219 110.62 3.59781 110.832 3.82361C111.043 4.0494 111.201 4.31958 111.293 4.61412C111.385 4.90867 111.409 5.22004 111.363 5.52516V9.61729H110.109V5.83849C110.109 4.82269 109.665 4.31745 108.737 4.31745C108.527 4.30774 108.317 4.34329 108.123 4.42167C107.928 4.50005 107.752 4.6194 107.608 4.77155C107.464 4.9237 107.354 5.10505 107.287 5.30316C107.22 5.50127 107.197 5.71147 107.219 5.91935V9.61744H105.965L105.965 3.29617ZM118.452 1.72235V3.32495H119.83V4.37571H118.452V7.62612C118.452 8.2883 118.727 8.57833 119.351 8.57833C119.511 8.57777 119.671 8.56812 119.83 8.54941V9.58866C119.604 9.62873 119.376 9.65005 119.147 9.65239C117.752 9.65239 117.196 9.16428 117.196 7.94563V4.37571H116.187V3.32481H117.196V1.72249L118.452 1.72235ZM121.543 0.828395H122.787V4.31198H122.886C123.053 3.94792 123.328 3.64385 123.675 3.44119C124.022 3.23854 124.423 3.14716 124.824 3.17951C125.132 3.16286 125.44 3.21394 125.725 3.32912C126.011 3.4443 126.267 3.62073 126.477 3.84583C126.686 4.07093 126.842 4.33915 126.935 4.63135C127.028 4.92355 127.055 5.23253 127.014 5.53625V9.61744H125.758V5.84397C125.758 4.8342 125.285 4.32293 124.399 4.32293C124.183 4.30535 123.966 4.33484 123.763 4.40932C123.56 4.4838 123.376 4.60148 123.223 4.75413C123.071 4.90677 122.954 5.0907 122.88 5.29303C122.807 5.49537 122.779 5.71124 122.798 5.92553V9.61744H121.543V0.828395ZM134.329 7.91053C134.158 8.48828 133.789 8.98805 133.286 9.32239C132.782 9.65673 132.176 9.80435 131.574 9.73943C131.156 9.75043 130.739 9.67067 130.355 9.50568C129.97 9.3407 129.626 9.09444 129.347 8.784C129.067 8.47356 128.859 8.10638 128.737 7.70795C128.614 7.30951 128.581 6.88936 128.638 6.47667C128.582 6.06269 128.616 5.64162 128.738 5.24197C128.86 4.84233 129.068 4.47343 129.345 4.16026C129.623 3.84709 129.966 3.59697 130.349 3.42681C130.733 3.25666 131.149 3.17046 131.569 3.17404C133.338 3.17404 134.405 4.37571 134.405 6.36071V6.79604H129.916V6.86595C129.896 7.09792 129.926 7.33142 130.002 7.55146C130.078 7.77151 130.2 7.97325 130.36 8.14375C130.519 8.31425 130.712 8.44975 130.928 8.54156C131.143 8.63337 131.375 8.67946 131.609 8.67688C131.909 8.71271 132.213 8.65898 132.482 8.52252C132.752 8.38606 132.974 8.17303 133.121 7.91053H134.329ZM129.916 5.87345H133.127C133.142 5.66129 133.113 5.44819 133.042 5.24785C132.97 5.0475 132.856 4.86433 132.709 4.71011C132.562 4.55589 132.383 4.43403 132.186 4.35236C131.988 4.27069 131.776 4.23102 131.562 4.23589C131.345 4.23317 131.13 4.27368 130.929 4.35502C130.728 4.43636 130.545 4.55689 130.392 4.70951C130.238 4.86212 130.117 5.04373 130.035 5.24363C129.954 5.44353 129.913 5.65768 129.916 5.87345Z" fill="white"/>
</svg>
