<svg width="24" height="24" viewBox="0 0 24 24" fill="none" xmlns="http://www.w3.org/2000/svg">
<path d="M21.0001 6.8571C21.0001 6.17511 20.7292 5.52105 20.2469 5.03882C19.7647 4.55658 19.1107 4.28566 18.4287 4.28566H17.7858V3.66088C17.7858 3.31494 17.5198 3.01802 17.1739 3.00074C17.087 2.99656 17.0001 3.01006 16.9185 3.04044C16.837 3.07081 16.7625 3.11743 16.6995 3.17746C16.6365 3.23749 16.5863 3.30969 16.552 3.38968C16.5178 3.46967 16.5001 3.55578 16.5001 3.6428V4.28566H7.50003V3.66088C7.50003 3.31494 7.23404 3.01802 6.8881 3.00074C6.80118 2.99656 6.71432 3.01006 6.63277 3.04044C6.55122 3.07081 6.47669 3.11743 6.41369 3.17746C6.35069 3.23749 6.30053 3.30969 6.26626 3.38968C6.23199 3.46967 6.21431 3.55578 6.2143 3.6428V4.28566H5.57144C4.88945 4.28566 4.2354 4.55658 3.75316 5.03882C3.27092 5.52105 3 6.17511 3 6.8571V7.33924C3 7.38187 3.01693 7.42274 3.04707 7.45288C3.07721 7.48302 3.11809 7.49996 3.16072 7.49996H20.8394C20.882 7.49996 20.9229 7.48302 20.953 7.45288C20.9832 7.42274 21.0001 7.38187 21.0001 7.33924V6.8571ZM3 18.4286C3 19.1105 3.27092 19.7646 3.75316 20.2468C4.2354 20.7291 4.88945 21 5.57144 21H18.4287C19.1107 21 19.7647 20.7291 20.2469 20.2468C20.7292 19.7646 21.0001 19.1105 21.0001 18.4286V8.90621C21.0001 8.87424 20.9874 8.84358 20.9648 8.82098C20.9422 8.79837 20.9115 8.78567 20.8796 8.78567H3.12054C3.08857 8.78567 3.05791 8.79837 3.0353 8.82098C3.0127 8.84358 3 8.87424 3 8.90621V18.4286ZM16.8215 10.0714C17.0122 10.0714 17.1987 10.1279 17.3572 10.2339C17.5158 10.3399 17.6394 10.4905 17.7124 10.6667C17.7854 10.8429 17.8045 11.0368 17.7673 11.2238C17.7301 11.4109 17.6382 11.5827 17.5034 11.7175C17.3685 11.8524 17.1967 11.9442 17.0096 11.9814C16.8226 12.0186 16.6287 11.9996 16.4525 11.9266C16.2763 11.8536 16.1257 11.73 16.0197 11.5714C15.9138 11.4128 15.8572 11.2264 15.8572 11.0357C15.8572 10.7799 15.9588 10.5347 16.1397 10.3538C16.3205 10.173 16.5658 10.0714 16.8215 10.0714ZM16.8215 13.2857C17.0122 13.2857 17.1987 13.3422 17.3572 13.4482C17.5158 13.5542 17.6394 13.7048 17.7124 13.881C17.7854 14.0572 17.8045 14.251 17.7673 14.4381C17.7301 14.6252 17.6382 14.797 17.5034 14.9318C17.3685 15.0667 17.1967 15.1585 17.0096 15.1957C16.8226 15.2329 16.6287 15.2138 16.4525 15.1409C16.2763 15.0679 16.1257 14.9443 16.0197 14.7857C15.9138 14.6271 15.8572 14.4407 15.8572 14.25C15.8572 13.9942 15.9588 13.749 16.1397 13.5681C16.3205 13.3873 16.5658 13.2857 16.8215 13.2857ZM13.6072 10.0714C13.7979 10.0714 13.9844 10.1279 14.1429 10.2339C14.3015 10.3399 14.4251 10.4905 14.4981 10.6667C14.5711 10.8429 14.5902 11.0368 14.553 11.2238C14.5158 11.4109 14.4239 11.5827 14.2891 11.7175C14.1542 11.8524 13.9824 11.9442 13.7953 11.9814C13.6083 12.0186 13.4144 11.9996 13.2382 11.9266C13.062 11.8536 12.9114 11.73 12.8054 11.5714C12.6995 11.4128 12.6429 11.2264 12.6429 11.0357C12.6429 10.7799 12.7445 10.5347 12.9253 10.3538C13.1062 10.173 13.3515 10.0714 13.6072 10.0714ZM13.6072 13.2857C13.7979 13.2857 13.9844 13.3422 14.1429 13.4482C14.3015 13.5542 14.4251 13.7048 14.4981 13.881C14.5711 14.0572 14.5902 14.251 14.553 14.4381C14.5158 14.6252 14.4239 14.797 14.2891 14.9318C14.1542 15.0667 13.9824 15.1585 13.7953 15.1957C13.6083 15.2329 13.4144 15.2138 13.2382 15.1409C13.062 15.0679 12.9114 14.9443 12.8054 14.7857C12.6995 14.6271 12.6429 14.4407 12.6429 14.25C12.6429 13.9942 12.7445 13.749 12.9253 13.5681C13.1062 13.3873 13.3515 13.2857 13.6072 13.2857ZM13.6072 16.5C13.7979 16.5 13.9844 16.5565 14.1429 16.6625C14.3015 16.7685 14.4251 16.9191 14.4981 17.0953C14.5711 17.2715 14.5902 17.4653 14.553 17.6524C14.5158 17.8395 14.4239 18.0113 14.2891 18.1461C14.1542 18.281 13.9824 18.3728 13.7953 18.41C13.6083 18.4472 13.4144 18.4281 13.2382 18.3552C13.062 18.2822 12.9114 18.1586 12.8054 18C12.6995 17.8414 12.6429 17.655 12.6429 17.4643C12.6429 17.2085 12.7445 16.9633 12.9253 16.7824C13.1062 16.6016 13.3515 16.5 13.6072 16.5ZM10.3929 13.2857C10.5836 13.2857 10.7701 13.3422 10.9286 13.4482C11.0872 13.5542 11.2108 13.7048 11.2838 13.881C11.3568 14.0572 11.3759 14.251 11.3387 14.4381C11.3015 14.6252 11.2096 14.797 11.0748 14.9318C10.9399 15.0667 10.7681 15.1585 10.581 15.1957C10.394 15.2329 10.2001 15.2138 10.0239 15.1409C9.84768 15.0679 9.69708 14.9443 9.59112 14.7857C9.48516 14.6271 9.42861 14.4407 9.42861 14.25C9.42861 13.9942 9.5302 13.749 9.71104 13.5681C9.89188 13.3873 10.1372 13.2857 10.3929 13.2857ZM10.3929 16.5C10.5836 16.5 10.7701 16.5565 10.9286 16.6625C11.0872 16.7685 11.2108 16.9191 11.2838 17.0953C11.3568 17.2715 11.3759 17.4653 11.3387 17.6524C11.3015 17.8395 11.2096 18.0113 11.0748 18.1461C10.9399 18.281 10.7681 18.3728 10.581 18.41C10.394 18.4472 10.2001 18.4281 10.0239 18.3552C9.84768 18.2822 9.69708 18.1586 9.59112 18C9.48516 17.8414 9.42861 17.655 9.42861 17.4643C9.42861 17.2085 9.5302 16.9633 9.71104 16.7824C9.89188 16.6016 10.1372 16.5 10.3929 16.5ZM7.1786 13.2857C7.36931 13.2857 7.55575 13.3422 7.71433 13.4482C7.8729 13.5542 7.9965 13.7048 8.06948 13.881C8.14247 14.0572 8.16157 14.251 8.12436 14.4381C8.08715 14.6252 7.99531 14.797 7.86045 14.9318C7.72559 15.0667 7.55377 15.1585 7.36672 15.1957C7.17967 15.2329 6.98578 15.2138 6.80958 15.1409C6.63338 15.0679 6.48277 14.9443 6.37682 14.7857C6.27086 14.6271 6.2143 14.4407 6.2143 14.25C6.2143 13.9942 6.3159 13.749 6.49674 13.5681C6.67758 13.3873 6.92285 13.2857 7.1786 13.2857ZM7.1786 16.5C7.36931 16.5 7.55575 16.5565 7.71433 16.6625C7.8729 16.7685 7.9965 16.9191 8.06948 17.0953C8.14247 17.2715 8.16157 17.4653 8.12436 17.6524C8.08715 17.8395 7.99531 18.0113 7.86045 18.1461C7.72559 18.281 7.55377 18.3728 7.36672 18.41C7.17967 18.4472 6.98578 18.4281 6.80958 18.3552C6.63338 18.2822 6.48277 18.1586 6.37682 18C6.27086 17.8414 6.2143 17.655 6.2143 17.4643C6.2143 17.2085 6.3159 16.9633 6.49674 16.7824C6.67758 16.6016 6.92285 16.5 7.1786 16.5Z" fill="#9D9D9D"/>
</svg>
