<svg width="171" height="170" viewBox="0 0 171 170" fill="none" xmlns="http://www.w3.org/2000/svg">
<path d="M105.327 13.751L102.526 14.5945L100.5 7.83522L103.296 6.99219L105.327 13.751Z" fill="#E0E0E0"/>
<path d="M114.08 7.74861C114.189 8.11141 113.83 8.89248 113.286 9.05689C113.286 9.05689 113.547 9.33273 113.679 9.77249C113.84 10.2957 113.412 10.9993 112.57 11.2502C111.733 11.501 106.159 13.1796 106.159 13.1796L104.272 6.90157L104.268 6.90107C104.268 6.90107 105.355 4.12411 105.409 3.70634C105.472 3.29506 104.822 1.74792 104.734 1.45708C104.663 1.22021 105.683 0.789443 106.504 1.12026C106.694 1.19772 106.873 1.31265 107.028 1.48206C107.349 1.83387 107.589 2.17868 107.763 2.53498C108.039 3.08518 108.153 3.65786 108.153 4.3075L112.026 3.14215C112.35 3.0452 112.632 3.07318 112.855 3.16813C113.201 3.31055 113.423 3.60689 113.494 3.84626C113.673 4.41245 113.343 4.84721 113.165 5.01612C113.165 5.01612 113.991 4.94815 114.225 5.72772C114.356 6.16448 114.139 6.74216 113.585 7.0265C113.585 7.0265 113.918 7.20641 114.08 7.74861Z" fill="#E0E0E0"/>
<path d="M155.499 63.8598L151.906 62.9958L154 54.3301L157.589 55.1911L155.499 63.8598Z" fill="#E0E0E0"/>
<path d="M168.875 62.8851C168.762 63.3503 167.873 63.9735 167.175 63.8066C167.175 63.8066 167.284 64.2738 167.148 64.8375C166.99 65.5106 166.075 66.0063 164.997 65.744C163.923 65.4846 156.771 63.7651 156.771 63.7651L158.712 55.713L158.707 55.7095C158.707 55.7095 161.664 53.3723 161.988 52.9505C162.319 52.5423 162.594 50.4399 162.685 50.0666C162.758 49.7628 164.145 49.9427 164.831 50.8267C164.987 51.0316 165.11 51.2715 165.171 51.5548C165.297 52.1435 165.34 52.6727 165.302 53.1719C165.253 53.949 165.013 54.6456 164.599 55.3547L169.568 56.5506C169.983 56.651 170.273 56.8609 170.456 57.1073C170.742 57.483 170.795 57.9468 170.721 58.2546C170.554 58.9862 169.917 59.2501 169.616 59.3215C169.616 59.3215 170.56 59.7738 170.319 60.7727C170.184 61.3329 169.579 61.8246 168.794 61.7827C168.795 61.7827 169.043 62.1899 168.875 62.8851Z" fill="#E0E0E0"/>
<path d="M13.0137 58.6713L16.9355 59.8522L19.7734 50.3874L15.8576 49.207L13.0137 58.6713Z" fill="#E0E0E0"/>
<path d="M0.755269 50.2654C0.602853 50.7731 1.10558 51.867 1.86716 52.0974C1.86716 52.0974 1.50136 52.4837 1.31696 53.0993C1.09158 53.8319 1.69025 54.8179 2.8691 55.1687C4.04196 55.5205 11.8477 57.8707 11.8477 57.8707L14.4897 49.0791L14.4957 49.0786C14.4957 49.0786 12.972 45.1897 12.8976 44.6045C12.8091 44.0289 13.7201 41.862 13.8421 41.4548C13.9415 41.123 12.5133 40.5198 11.3634 40.983C11.0986 41.0915 10.8472 41.2524 10.6308 41.4898C10.1811 41.9825 9.84426 42.4657 9.60189 42.9644C9.21411 43.735 9.05519 44.5366 9.05519 45.4466L3.63068 43.8145C3.17743 43.679 2.78215 43.7175 2.46932 43.8509C1.98559 44.0503 1.67526 44.4651 1.57482 44.8009C1.32545 45.594 1.7877 46.2027 2.03606 46.4395C2.03606 46.4395 0.879202 46.3446 0.551882 47.436C0.368483 48.0476 0.672316 48.8562 1.44739 49.2545C1.44739 49.2545 0.983143 49.5063 0.755269 50.2654Z" fill="#E0E0E0"/>
<path d="M93.0587 158.813C117.677 145.536 132.278 124.842 125.671 112.592C119.065 100.341 93.7519 101.174 69.1338 114.45C44.5156 127.727 29.9144 148.421 36.5211 160.671C43.1278 172.922 68.4406 172.09 93.0587 158.813Z" fill="#E0E0E0"/>
<path d="M117.546 129.706C122.469 123.838 130.18 120.014 138.851 117.758C147.411 115.531 148.946 110.264 143.271 108.555C136.838 106.617 128.812 110.178 123.637 115.13C114.617 123.759 113.486 130.365 113.486 130.365L117.546 129.706Z" fill="#27DEBF"/>
<path opacity="0.15" d="M117.546 129.706C122.469 123.838 130.18 120.014 138.851 117.758C147.411 115.531 148.946 110.264 143.271 108.555C136.838 106.617 128.812 110.178 123.637 115.13C114.617 123.759 113.486 130.365 113.486 130.365L117.546 129.706Z" fill="black"/>
<path d="M115.012 129.364C114.975 129.364 114.938 129.356 114.902 129.339C114.778 129.278 114.726 129.129 114.787 129.005C122.093 114.014 138.261 110.326 142.192 110.604C142.329 110.614 142.432 110.735 142.423 110.872C142.412 111.009 142.285 111.112 142.155 111.103C138.317 110.809 122.43 114.465 115.237 129.224C115.193 129.313 115.104 129.364 115.012 129.364Z" fill="white"/>
<path d="M113.487 131.265C113.487 132.325 114.635 132.968 115.551 132.434C120.128 129.769 126.806 128.297 137.612 131.371C143.356 133.006 146.184 131.913 147.396 129.573C148.742 126.974 145.89 124.463 142.646 123.278C131.587 119.237 121.606 121.996 113.486 130.058L113.487 131.265Z" fill="#27DEBF"/>
<path d="M114.117 131.48C114.048 131.48 113.98 131.452 113.931 131.397C113.839 131.294 113.848 131.136 113.951 131.044C123.498 122.51 138.291 124.171 143.89 127.5C144.008 127.57 144.047 127.724 143.977 127.843C143.906 127.961 143.753 128 143.634 127.93C138.149 124.669 123.649 123.045 114.283 131.417C114.236 131.459 114.177 131.48 114.117 131.48Z" fill="white"/>
<path d="M40.8239 143.224C36.6272 136.817 29.4217 132.109 21.0773 128.846C12.8393 125.625 11.9368 120.213 17.7736 119.186C24.3899 118.02 31.9403 122.503 36.4953 128.031C44.4339 137.665 44.7772 144.357 44.7772 144.357L40.8239 143.224Z" fill="#27DEBF"/>
<path opacity="0.15" d="M40.8239 143.224C36.6272 136.817 29.4217 132.109 21.0773 128.846C12.8393 125.625 11.9368 120.213 17.7736 119.186C24.3899 118.02 31.9403 122.503 36.4953 128.031C44.4339 137.665 44.7772 144.357 44.7772 144.357L40.8239 143.224Z" fill="black"/>
<path d="M43.3817 143.184C43.4187 143.188 43.4561 143.184 43.4931 143.171C43.624 143.126 43.6925 142.984 43.647 142.854C38.1605 127.106 22.5407 121.536 18.6048 121.348C18.4669 121.342 18.3505 121.449 18.344 121.587C18.338 121.725 18.4524 121.842 18.5828 121.848C22.4287 122.008 37.7733 127.512 43.1753 143.018C43.2078 143.111 43.2902 143.173 43.3817 143.184Z" fill="white"/>
<path d="M44.815 144.052C44.6311 145.597 42.8831 146.399 41.5903 145.532C37.3546 142.694 31.0426 140.854 20.7038 142.511C14.8061 143.456 12.127 142.037 11.1995 139.57C10.1696 136.831 13.2974 134.674 16.659 133.879C28.1172 131.171 37.7029 135.088 44.815 144.052Z" fill="#27DEBF"/>
<path d="M44.0213 145.39C44.0897 145.398 44.1607 145.378 44.2161 145.329C44.3196 145.237 44.3291 145.08 44.2376 144.976C35.7638 135.375 20.878 135.28 14.9258 137.925C14.7999 137.981 14.7429 138.129 14.7989 138.255C14.8553 138.381 15.0028 138.437 15.1287 138.382C20.96 135.791 35.5499 135.889 43.8628 145.307C43.9058 145.355 43.9623 145.383 44.0213 145.39Z" fill="white"/>
<path d="M122.031 36.9827L122.033 36.9792L121.954 36.9387C121.951 36.9372 121.948 36.9357 121.945 36.9342L102.896 25.9683C102.89 25.9653 102.884 25.9623 102.878 25.9588L102.767 25.9018L102.765 25.9068C93.8662 21.4178 81.9917 22.764 69.2208 31.022C43.5634 47.6128 24.0122 85.8008 25.5518 116.316C26.3194 131.527 32.1837 141.957 41.0488 146.542L41.0468 146.545L41.1252 146.585C41.1287 146.587 41.1317 146.589 41.1352 146.59L60.1882 157.559C60.1912 157.56 60.1937 157.561 60.1967 157.563L60.2902 157.611L60.2922 157.607C69.1933 162.11 81.0772 160.767 93.8592 152.502C119.516 135.911 139.068 97.7237 137.528 67.208C136.761 51.9974 130.896 41.5672 122.031 36.9827Z" fill="#37474F"/>
<path d="M59.54 157.211L41.1411 146.588C41.1272 146.589 41.1272 146.589 41.1272 146.589L41.0417 146.537C32.1816 141.941 26.3198 131.51 25.5537 116.321C24.8666 102.712 28.3832 87.5851 34.7462 73.5364L34.8746 73.2285L53.8022 84.5008C47.4252 98.5501 43.9226 113.677 44.6092 127.286C45.3598 142.17 50.9922 152.473 59.54 157.211Z" fill="#263238"/>
<path d="M93.8592 152.5C119.516 135.909 139.067 97.7221 137.528 67.2065C135.988 36.6913 113.941 25.403 88.2833 41.9943C62.6259 58.5852 43.0747 96.7726 44.6143 127.288C46.1545 157.804 68.2018 169.091 93.8592 152.5Z" fill="#455A64"/>
<path d="M115.587 34.6152L83.4314 100.849L76.5097 93.3474C74.3744 91.0276 71.3311 89.6974 68.1603 89.6974C65.2909 89.6974 62.5474 90.7668 60.4331 92.7107C55.8311 96.9628 55.5443 104.173 59.7944 108.784L78.0274 128.535C80.0458 130.721 82.7953 132.014 85.7691 132.174C85.979 132.185 86.1889 132.191 86.3998 132.191C86.9435 132.191 87.4947 132.152 88.0479 132.073C91.7783 131.519 94.9825 129.169 96.6176 125.788L133.497 49.8253C129.732 41.4035 123.432 36.1659 115.587 34.6152Z" fill="#37474F"/>
<path d="M141.702 12.7965C141.501 12.6811 141.295 12.5716 141.084 12.4692C136.174 10.0955 130.251 12.1428 127.881 17.0376L86.9614 101.322L84.6367 98.8026C83.9446 98.051 83.1605 97.4333 82.317 96.9501C81.0961 96.2505 75.9095 93.2466 75.0704 92.7624C71.434 90.6635 66.6886 91.0588 63.4229 94.0617C59.4276 97.7531 59.1787 104.014 62.8682 108.016L81.1011 127.768C81.7947 128.52 82.5888 129.147 83.4553 129.641C84.6457 130.318 89.8143 133.314 90.6598 133.805C91.9931 134.578 93.4998 135.032 95.0799 135.118C95.7315 135.153 96.3857 135.126 97.0573 135.031C100.295 134.549 103.08 132.507 104.499 129.574L152.909 29.8631C155.182 25.1707 153.408 19.5498 148.967 16.9912C148.764 16.8737 142.995 13.5406 141.702 12.7965Z" fill="#27DEBF"/>
<path opacity="0.15" d="M141.702 12.7965C141.501 12.6811 141.295 12.5716 141.084 12.4692C136.174 10.0955 130.251 12.1428 127.881 17.0376L86.9614 101.322L84.6367 98.8026C83.9446 98.051 83.1605 97.4333 82.317 96.9501C81.0961 96.2505 75.9095 93.2466 75.0704 92.7624C71.434 90.6635 66.6886 91.0588 63.4229 94.0617C59.4276 97.7531 59.1787 104.014 62.8682 108.016L81.1011 127.768C81.7947 128.52 82.5888 129.147 83.4553 129.641C84.6457 130.318 89.8143 133.314 90.6598 133.805C91.9931 134.578 93.4998 135.032 95.0799 135.118C95.7315 135.153 96.3857 135.126 97.0573 135.031C100.295 134.549 103.08 132.507 104.499 129.574L152.909 29.8631C155.182 25.1707 153.408 19.5498 148.967 16.9912C148.764 16.8737 142.995 13.5406 141.702 12.7965Z" fill="black"/>
<path opacity="0.15" d="M90.6586 133.804C89.816 133.315 84.6459 130.318 83.4545 129.639C82.589 129.146 81.793 128.517 81.0998 127.768L62.8669 108.018C62.0388 107.115 61.4152 106.091 60.9824 105.016L68.2329 109.2C68.6612 110.279 69.2938 111.303 70.1269 112.206L88.3598 131.956C89.039 132.692 89.8115 133.311 90.6586 133.804Z" fill="black"/>
<path opacity="0.15" d="M137.427 18.1882C136.497 19.0167 135.715 20.0402 135.137 21.227L93.05 107.92L86.9629 101.321L127.883 17.0388C128.455 15.8475 129.246 14.8285 130.177 14L137.427 18.1882Z" fill="black"/>
<path d="M148.341 16.6606C143.432 14.2869 137.508 16.3343 135.139 21.2286L93.0498 107.921L84.637 98.8033C80.961 94.8105 74.7 94.5566 70.6807 98.2526C66.6854 101.944 66.4365 108.205 70.126 112.207L88.3589 131.959C90.1105 133.856 92.4976 134.978 95.0802 135.118C95.7319 135.153 96.386 135.127 97.0576 135.031C100.295 134.55 103.08 132.508 104.5 129.574L152.909 29.8638C155.285 24.957 153.238 19.0348 148.341 16.6606Z" fill="#27DEBF"/>
</svg>
