<svg width="14" height="14" viewBox="0 0 14 14" fill="none" xmlns="http://www.w3.org/2000/svg">
<path fill-rule="evenodd" clip-rule="evenodd" d="M6.99992 13.6666C10.6818 13.6666 13.6666 10.6819 13.6666 6.99998C13.6666 3.31808 10.6818 0.333313 6.99992 0.333313C3.31802 0.333313 0.333252 3.31808 0.333252 6.99998C0.333252 10.6819 3.31802 13.6666 6.99992 13.6666ZM8.73995 9.42998C8.81995 9.47998 8.90995 9.49998 8.99995 9.49998C9.10913 9.49947 9.21517 9.46339 9.30199 9.39719C9.38881 9.33099 9.45169 9.23829 9.48109 9.13315C9.51048 9.028 9.5048 8.91613 9.46489 8.81451C9.42499 8.71288 9.35304 8.62703 9.25995 8.56998L6.99995 7.21998V3.49998C6.99995 3.21998 6.77995 2.99998 6.49995 2.99998C6.21995 2.99998 5.99995 3.21998 5.99995 3.49998V7.49998C5.99895 7.58636 6.02058 7.67151 6.06269 7.74694C6.10479 7.82238 6.1659 7.88548 6.23995 7.92998L8.73995 9.42998Z" fill="#FF9500"/>
</svg>
