<svg width="183" height="200" viewBox="0 0 183 200" fill="none" xmlns="http://www.w3.org/2000/svg">
<g clip-path="url(#clip0_6231_62724)">
<path d="M24.9496 125.77C24.9996 124.86 25.3877 123.988 25.9536 123.273C26.5078 122.573 27.2521 122.003 28.112 121.762C29.0251 121.506 30.0417 121.643 30.854 122.133C31.3371 122.424 31.7436 122.838 32.0358 123.32C32.2677 122.863 32.5973 122.456 33.002 122.141C33.7508 121.559 34.744 121.302 35.6809 121.449C36.563 121.587 37.3693 122.065 38.0024 122.694C38.6485 123.337 39.137 124.158 39.2941 125.055C39.4908 126.18 39.345 127.432 38.8159 128.444C38.2572 129.512 37.3045 130.404 36.3104 131.086C34.6391 132.233 32.4343 133.676 32.4343 133.676C32.4343 133.676 30.4199 132.347 28.6249 131.406C27.5573 130.846 26.506 130.072 25.8248 129.078C25.1796 128.136 24.8874 126.91 24.9496 125.77Z" fill="#EBEBEB"/>
<path d="M150.43 76.0453C150.48 75.1354 150.868 74.2628 151.434 73.5483C151.988 72.8482 152.733 72.2782 153.593 72.0368C154.506 71.7806 155.522 71.9184 156.334 72.4083C156.818 72.6996 157.224 73.1129 157.516 73.5951C157.748 73.1386 158.078 72.7311 158.483 72.4164C159.231 71.8342 160.224 71.5776 161.162 71.7239C162.044 71.8621 162.85 72.3403 163.483 72.9697C164.129 73.6122 164.618 74.433 164.775 75.3308C164.972 76.4554 164.826 77.7076 164.297 78.7192C163.738 79.7872 162.785 80.6796 161.791 81.3617C160.12 82.5084 157.915 83.951 157.915 83.951C157.915 83.951 155.901 82.6228 154.106 81.6813C153.038 81.1212 151.987 80.3477 151.306 79.3532C150.66 78.4117 150.368 77.1853 150.43 76.0453Z" fill="#EBEBEB"/>
<path d="M37.1342 114.592C37.1662 114.008 37.4156 113.447 37.7789 112.988C38.1351 112.539 38.6128 112.173 39.1652 112.018C39.7519 111.853 40.4047 111.942 40.9265 112.256C41.2367 112.443 41.4979 112.709 41.6856 113.019C41.8347 112.725 42.0463 112.464 42.3061 112.262C42.7869 111.888 43.4249 111.723 44.0269 111.817C44.5933 111.906 45.1115 112.213 45.518 112.617C45.9332 113.03 46.2465 113.557 46.3474 114.133C46.4734 114.856 46.3802 115.66 46.0403 116.309C45.6815 116.996 45.0696 117.568 44.4312 118.006C43.3578 118.743 41.9418 119.67 41.9418 119.67C41.9418 119.67 40.6478 118.816 39.4952 118.212C38.8095 117.852 38.1346 117.355 37.697 116.716C37.2819 116.112 37.0941 115.324 37.1342 114.592Z" fill="#F5F5F5"/>
<path d="M142.732 87.0673C142.764 86.4829 143.013 85.9223 143.377 85.4635C143.733 85.0142 144.211 84.6477 144.763 84.4928C145.35 84.328 146.002 84.4167 146.524 84.731C146.835 84.9179 147.096 85.1835 147.283 85.4933C147.432 85.1997 147.644 84.9386 147.904 84.7364C148.385 84.3623 149.023 84.1975 149.625 84.2916C150.191 84.3803 150.709 84.6873 151.116 85.0916C151.531 85.5045 151.845 86.0313 151.945 86.608C152.071 87.3302 151.978 88.1343 151.638 88.784C151.279 89.4702 150.667 90.0429 150.029 90.481C148.956 91.2176 147.54 92.1441 147.54 92.1441C147.54 92.1441 146.246 91.2909 145.093 90.6863C144.407 90.3265 143.732 89.8299 143.295 89.1911C142.879 88.5868 142.691 87.7994 142.732 87.0673Z" fill="#F5F5F5"/>
<path d="M165.488 109.823C165.52 109.238 165.769 108.678 166.132 108.219C166.489 107.77 166.966 107.403 167.519 107.248C168.105 107.083 168.758 107.172 169.28 107.487C169.59 107.674 169.851 107.939 170.039 108.249C170.188 107.956 170.4 107.694 170.66 107.492C171.14 107.118 171.778 106.953 172.38 107.047C172.947 107.136 173.465 107.443 173.872 107.848C174.287 108.26 174.6 108.787 174.701 109.364C174.827 110.086 174.734 110.891 174.394 111.54C174.035 112.226 173.423 112.799 172.785 113.237C171.711 113.973 170.295 114.9 170.295 114.9C170.295 114.9 169.002 114.047 167.849 113.442C167.163 113.082 166.488 112.586 166.051 111.947C165.635 111.342 165.448 110.555 165.488 109.823Z" fill="#EBEBEB"/>
<path d="M40.1305 133.252C40.1516 132.866 40.316 132.497 40.5559 132.194C40.791 131.897 41.1061 131.656 41.4704 131.554C41.8571 131.445 42.288 131.503 42.632 131.711C42.8364 131.834 43.0088 132.009 43.1326 132.214C43.2308 132.02 43.3704 131.848 43.5419 131.715C43.8589 131.468 44.2798 131.359 44.677 131.421C45.0506 131.48 45.3924 131.683 45.6603 131.949C45.934 132.222 46.1411 132.569 46.2073 132.949C46.2906 133.425 46.2289 133.956 46.0047 134.384C45.7679 134.837 45.3645 135.215 44.9435 135.504C44.2353 135.99 43.3015 136.601 43.3015 136.601C43.3015 136.601 42.4483 136.038 41.6878 135.639C41.2353 135.402 40.7901 135.074 40.5015 134.652C40.2277 134.254 40.1039 133.734 40.1305 133.252Z" fill="#F5F5F5"/>
<path d="M15.7646 24.3125C15.7646 24.3125 13.6931 26.1022 18.1972 30.2606C22.7018 34.4189 25.4483 36.287 25.4483 36.287C25.4483 36.287 26.351 37.3049 25.4176 37.8592C24.4848 38.4134 22.1503 38.8754 22.1566 40.2652C22.1629 41.7064 23.528 42.5646 25.7873 42.9257C28.0466 43.2868 32.9677 44.2588 33.412 44.3484C33.8488 44.4362 34.4093 44.8581 33.8344 45.3376C33.2594 45.8171 28.4919 48.1646 29.7413 50.36C30.9907 52.5553 37.4497 52.527 38.1557 52.5369C38.8621 52.5472 39.1066 52.7548 39.1814 53.1127C39.2561 53.4707 37.5794 54.1086 36.2508 54.8317C34.9221 55.5548 33.5084 56.6264 34.3355 57.8325C35.1625 59.0387 39.5668 60.5889 48.0532 58.3692L51.9185 57.0834L52.8064 53.0893C54.1855 44.4263 52.2116 40.1946 50.9303 39.4895C49.6489 38.7844 48.721 40.2963 48.1311 41.6893C47.5413 43.0824 47.0704 44.8135 46.707 44.7739C46.3437 44.7347 46.1132 44.5114 46.0339 43.8095C45.9547 43.1076 45.3509 36.6769 43.0439 35.6481C40.7369 34.6197 38.8671 39.5939 38.4461 40.213C38.0252 40.8321 37.5506 40.3152 37.4205 39.8893C37.2877 39.4557 35.8388 34.6535 35.2585 32.4401C34.6781 30.2268 33.6907 28.9522 32.2558 29.0872C30.8723 29.2169 30.6408 31.5856 30.1807 32.568C29.7201 33.5509 28.6188 32.7522 28.6188 32.7522C28.6188 32.7522 26.491 30.2011 21.9117 26.1251C17.3323 22.0492 15.7259 24.3503 15.7259 24.3503" fill="#EBEBEB"/>
<path d="M52.4486 57.9085C49.0975 54.9018 43.2309 49.458 38.1698 44.8102C33.1105 40.1642 28.5257 35.9617 25.1904 32.9384C23.5236 31.431 22.1738 30.21 21.2364 29.3622C20.7731 28.9425 20.4116 28.6152 20.1617 28.3888C20.0428 28.2793 19.9505 28.1942 19.8844 28.1335C19.8222 28.0754 19.793 28.043 19.793 28.043C19.793 28.043 19.8281 28.0686 19.8934 28.1236C19.9614 28.1821 20.0564 28.264 20.1788 28.3698C20.4323 28.5918 20.7988 28.9133 21.2693 29.3252C22.2152 30.1559 23.5754 31.368 25.2507 32.8722C28.6018 35.8789 33.1965 40.071 38.2558 44.717C43.3169 49.3648 49.1735 54.8189 52.5093 57.8423" fill="#E0E0E0"/>
<path d="M25.4492 39.7518C25.4492 39.7433 25.5537 39.7352 25.7432 39.728C25.9323 39.7199 26.2065 39.7163 26.5446 39.7149C27.2213 39.7136 28.1565 39.7356 29.1875 39.7784C30.2042 39.8243 31.1235 39.8662 31.8273 39.8981C32.1442 39.9108 32.4117 39.9211 32.6269 39.9292C32.816 39.9355 32.9204 39.9436 32.9204 39.9522C32.9204 39.9607 32.816 39.9697 32.6269 39.9787C32.4373 39.9864 32.1636 39.99 31.825 39.9877C31.1479 39.9823 30.2136 39.9481 29.1826 39.9049C28.1659 39.8662 27.2466 39.8311 26.5433 39.804C26.2259 39.7932 25.9584 39.7842 25.7432 39.777C25.5537 39.7689 25.4492 39.7604 25.4492 39.7518Z" fill="#E0E0E0"/>
<path d="M33.0911 39.6076C33.056 39.6076 33.0168 37.6783 33.0029 35.2984C32.9889 32.918 33.0065 30.9883 33.0411 30.9883C33.0758 30.9883 33.1154 32.9171 33.1294 35.2979C33.1433 37.6774 33.1262 39.6071 33.0911 39.6076Z" fill="#E0E0E0"/>
<path d="M40.5406 47.0988C40.5325 47.0961 40.5568 46.9917 40.6086 46.8057C40.6685 46.595 40.7436 46.3321 40.8328 46.0196C41.021 45.3555 41.2767 44.438 41.5221 43.4146C41.7697 42.3916 41.9615 41.4583 42.0953 40.7811C42.1583 40.4624 42.2114 40.194 42.2542 39.9793C42.2929 39.7902 42.3181 39.6862 42.3267 39.6875C42.3352 39.6889 42.3262 39.7956 42.3028 39.9874C42.279 40.1792 42.2398 40.4561 42.1831 40.7969C42.0718 41.479 41.8931 42.4182 41.645 43.4443C41.3992 44.4704 41.1286 45.387 40.9183 46.0453C40.8116 46.374 40.7225 46.6392 40.6554 46.8206C40.5892 47.0025 40.5487 47.1015 40.5406 47.0988Z" fill="#E0E0E0"/>
<path d="M33.6563 48.7433C33.654 48.7348 33.7477 48.7028 33.9188 48.6515C34.1169 48.5956 34.3596 48.5277 34.6464 48.4466C35.2623 48.2791 36.1146 48.0558 37.0583 47.8172C38.0024 47.5786 38.8583 47.3692 39.4801 47.2238C39.7705 47.1585 40.0168 47.1031 40.2176 47.0581C40.3923 47.0216 40.49 47.0054 40.4922 47.014C40.4945 47.0225 40.4008 47.0545 40.2297 47.1058C40.0321 47.1616 39.7889 47.2301 39.5021 47.3107C38.8862 47.4782 38.0335 47.7015 37.0898 47.9401C36.1461 48.1787 35.2897 48.3881 34.6684 48.5335C34.378 48.5988 34.1317 48.6542 33.9309 48.6992C33.7562 48.7357 33.6585 48.7519 33.6563 48.7433Z" fill="#E0E0E0"/>
<path d="M39.3907 56.1891C39.3884 56.1806 39.5086 56.1405 39.7279 56.0747C39.9706 56.0054 40.2835 55.9163 40.6594 55.8087C41.4473 55.5894 42.5378 55.2949 43.7444 54.9775C44.9515 54.6597 46.0456 54.3792 46.8394 54.182C47.2194 54.0906 47.5359 54.014 47.7812 53.955C48.0041 53.9042 48.1284 53.8798 48.1306 53.8884C48.1329 53.897 48.0127 53.937 47.7934 54.0028C47.5507 54.0721 47.2378 54.1612 46.8619 54.2689C46.074 54.4881 44.983 54.7826 43.7764 55.1C42.5698 55.4174 41.4757 55.6984 40.6819 55.8951C40.3019 55.9865 39.9854 56.063 39.7405 56.122C39.5172 56.1738 39.3929 56.1977 39.3907 56.1891Z" fill="#E0E0E0"/>
<path d="M47.9078 53.8834C47.8992 53.8812 47.9271 53.7484 47.9848 53.5102C48.0487 53.2504 48.1324 52.9114 48.2328 52.503C48.4413 51.6525 48.7249 50.477 49.0009 49.1704C49.2792 47.8638 49.5003 46.6747 49.6538 45.813C49.7281 45.3992 49.7898 45.0552 49.8366 44.7923C49.8807 44.5514 49.9091 44.4186 49.9181 44.4199C49.9266 44.4213 49.9145 44.5564 49.8852 44.7999C49.8559 45.0431 49.8082 45.3947 49.742 45.8278C49.6106 46.6945 49.4035 47.8881 49.1248 49.1969C48.8479 50.5058 48.5503 51.68 48.3193 52.5255C48.2027 52.9478 48.105 53.2891 48.032 53.5228C47.96 53.7574 47.9159 53.8857 47.9078 53.8834Z" fill="#E0E0E0"/>
<path d="M142.957 49.369C136.954 44.1346 136.389 35.5581 137.461 28.0189C137.64 26.7605 137.645 25.4138 138.365 24.3702C139.086 23.327 140.569 22.7205 141.643 23.3747C142.533 23.9172 142.824 25.0523 143.252 26.0113C143.821 27.2872 144.753 28.3926 145.909 29.1598C146.668 29.6636 147.636 30.026 148.477 29.6739C149.632 29.1904 149.922 27.6988 150.05 26.4417C150.288 24.0987 150.525 21.7556 150.763 19.4131C150.891 18.156 151.025 16.8728 151.544 15.7229C152.063 14.5726 153.046 13.5582 154.277 13.3524C155.509 13.1467 156.912 13.9949 157.032 15.2515C157.082 15.7747 156.92 16.2947 156.899 16.8197C156.878 17.3451 157.058 17.948 157.538 18.147C158.023 18.3483 158.564 18.0462 158.979 17.7193C160.413 16.5905 161.469 15.0516 162.466 13.515C163.463 11.9788 164.441 10.4011 165.766 9.14454C167.092 7.88793 168.837 6.9672 170.647 7.05905C172.458 7.15135 174.255 8.46828 174.519 10.2832C174.784 12.1035 173.557 13.7887 172.278 15.1012C170.381 17.0484 168.205 18.7165 165.84 20.0371C165.414 20.2757 164.952 20.5328 164.751 20.9821C164.387 21.7903 165.091 22.7074 165.888 23.0717C166.791 23.4845 167.818 23.4967 168.785 23.7178C169.752 23.9388 170.766 24.485 171.037 25.4507C171.414 26.7902 170.194 28.0202 169.043 28.7879C166.737 30.325 164.17 31.4591 161.491 32.1255C160.531 32.3641 159.527 32.5559 158.711 33.1245C157.896 33.6936 157.324 34.7742 157.679 35.7075C158.034 36.6422 159.159 37.0497 160.147 36.9741C161.133 36.8989 162.057 36.4666 163.017 36.2181C164.813 35.7526 167.03 36.1119 167.975 37.7228C168.596 38.7818 168.513 40.1545 168.019 41.2837C167.525 42.4134 166.671 43.3399 165.78 44.1832C162.663 47.1314 158.839 49.3627 154.685 50.3199C150.531 51.2776 146.78 51.2537 142.957 49.369Z" fill="#F5F5F5"/>
<path d="M145.422 44.8334C146.947 41.1347 148.955 37.2194 151.196 33.1961C151.76 32.1925 152.317 31.2007 152.867 30.2232C153.417 29.2489 153.963 28.2822 154.555 27.3701C155.732 25.5403 157.003 23.8704 158.259 22.3234C159.514 20.775 160.762 19.3518 161.939 18.0295C163.119 16.7089 164.242 15.4991 165.312 14.4397C167.448 12.3128 169.369 10.8041 170.731 9.82257C171.411 9.32912 171.951 8.96397 172.32 8.7213C172.498 8.60649 172.637 8.51599 172.742 8.448C172.838 8.38767 172.888 8.35841 172.89 8.36156C172.893 8.36516 172.847 8.40118 172.756 8.46781C172.654 8.5403 172.518 8.6371 172.347 8.76002C171.986 9.0153 171.455 9.39215 170.784 9.89596C169.441 10.8991 167.542 12.4222 165.428 14.5577C164.367 15.6212 163.254 16.835 162.082 18.1591C160.913 19.4864 159.672 20.9123 158.424 22.4602C157.176 24.0072 155.913 25.6736 154.746 27.4952C154.158 28.4033 153.618 29.3615 153.067 30.3389C152.518 31.3159 151.962 32.3073 151.398 33.3105C149.159 37.3306 147.15 41.2337 145.619 44.9166" fill="#E0E0E0"/>
<path d="M154.623 27.3682C154.608 27.3691 154.586 27.1737 154.559 26.8189C154.53 26.4645 154.506 25.9508 154.485 25.3155C154.442 24.0459 154.442 22.29 154.451 20.3544C154.459 18.4175 154.435 16.667 154.373 15.4013C154.343 14.7683 154.315 14.2564 154.29 13.9025C154.268 13.5486 154.263 13.3514 154.279 13.3496C154.295 13.3478 154.33 13.541 154.38 13.8931C154.433 14.2447 154.487 14.7566 154.537 15.3901C154.641 16.6575 154.691 18.4152 154.683 20.3539C154.671 22.2643 154.659 23.9923 154.65 25.3124C154.649 25.9089 154.65 26.4114 154.65 26.8153C154.648 27.1701 154.64 27.3673 154.623 27.3682Z" fill="#E0E0E0"/>
<path d="M171.096 26.095C171.094 26.1112 170.861 26.113 170.443 26.1027C170.025 26.095 169.419 26.0806 168.671 26.0865C167.174 26.0865 165.107 26.1594 162.83 26.3395C160.552 26.5236 158.498 26.778 157.018 27.0049C156.277 27.113 155.68 27.217 155.266 27.2859C154.853 27.3566 154.623 27.3885 154.619 27.3728C154.616 27.3566 154.84 27.2949 155.249 27.1963C155.657 27.0995 156.252 26.9707 156.992 26.8411C158.47 26.5714 160.528 26.2904 162.812 26.1054C165.096 25.9253 167.172 25.8785 168.672 25.9208C169.423 25.9361 170.029 25.9757 170.447 26.0122C170.866 26.05 171.096 26.0788 171.096 26.095Z" fill="#E0E0E0"/>
<path d="M145.651 44.5594C145.643 44.5621 145.613 44.49 145.561 44.3504C145.504 44.1843 145.434 43.9817 145.348 43.7363C145.165 43.2023 144.921 42.4225 144.632 41.4554C144.052 39.5212 143.335 36.8243 142.584 33.8374C141.833 30.8497 141.142 28.1496 140.604 26.2059C140.339 25.2609 140.121 24.4833 139.959 23.9057C139.89 23.6549 139.834 23.4482 139.787 23.2785C139.75 23.1349 139.734 23.0579 139.742 23.0547C139.75 23.0525 139.78 23.1245 139.832 23.2641C139.889 23.4302 139.96 23.6324 140.045 23.8778C140.228 24.4118 140.472 25.1916 140.761 26.1587C141.341 28.0929 142.058 30.7898 142.809 33.778C143.56 36.7649 144.251 39.4645 144.789 41.4086C145.054 42.3532 145.272 43.1312 145.434 43.7084C145.503 43.9592 145.56 44.1663 145.606 44.3356C145.643 44.4797 145.659 44.5567 145.651 44.5594Z" fill="#E0E0E0"/>
<path d="M167.86 39.9565C167.861 39.9646 167.784 39.9867 167.637 40.0214C167.464 40.0596 167.25 40.1065 166.992 40.1632C166.396 40.2879 165.592 40.4559 164.613 40.6603C162.605 41.0808 159.837 41.6927 156.781 42.3734C153.723 43.0546 150.948 43.6417 148.93 44.0204C147.922 44.2099 147.103 44.3553 146.537 44.444C146.275 44.4832 146.058 44.5156 145.883 44.5426C145.733 44.5625 145.653 44.5688 145.652 44.5611C145.651 44.553 145.728 44.5309 145.875 44.4958C146.048 44.458 146.262 44.4112 146.52 44.3544C147.116 44.2297 147.92 44.0618 148.899 43.8574C150.907 43.4373 153.674 42.825 156.732 42.1442C159.788 41.4635 162.564 40.8764 164.581 40.4977C165.59 40.3077 166.408 40.1628 166.975 40.0741C167.237 40.0344 167.453 40.002 167.629 39.9755C167.779 39.9547 167.858 39.9484 167.86 39.9565Z" fill="#E0E0E0"/>
<path d="M196.12 196.348C196.12 196.412 151.091 196.465 95.5571 196.465C40.0043 196.465 -5.01562 196.412 -5.01562 196.348C-5.01562 196.283 40.0043 196.23 95.5571 196.23C151.091 196.23 196.12 196.283 196.12 196.348Z" fill="#263238"/>
<path d="M125.131 87.2199C125.38 83.0512 125.63 78.882 125.879 74.7133C125.909 74.2113 125.986 73.6282 126.419 73.3729C126.81 73.1429 127.306 73.2946 127.727 73.4634C135.118 76.4359 140.542 84.6846 141.19 92.6246" fill="#E8505B"/>
<g opacity="0.3">
<path d="M127.643 77.6856C131.115 79.9192 133.426 83.8628 133.678 87.9838C133.709 88.4845 133.696 89.0333 133.379 89.4219C133.117 89.742 132.689 89.8897 132.276 89.9041C131.863 89.918 131.455 89.8154 131.054 89.7132C130.055 89.4583 129.008 89.1769 128.268 88.4584C127.571 87.7799 127.245 86.7898 127.186 85.8182C127.126 84.8466 127.305 83.8781 127.484 82.9214C127.904 83.639 128.323 84.3563 128.743 85.0739C128.294 82.7498 127.846 80.4257 127.397 78.1011C127.373 77.9751 127.353 77.8314 127.431 77.7306C127.511 77.6297 127.723 77.6644 127.712 77.7918" fill="white"/>
</g>
<path d="M82.2756 96.1055C78.4293 91.5788 76.1628 85.7352 75.9512 79.7988C77.3239 80.4458 78.6972 81.0933 80.0699 81.7402C79.7255 81.3224 79.3811 80.9046 79.0366 80.4868C84.986 80.9411 90.7126 83.8334 94.6094 88.3515" fill="#E8505B"/>
<g opacity="0.3">
<path d="M84.5562 94.2803C81.3149 91.9566 79.1164 88.2314 78.6482 84.2711C78.6158 83.9978 78.6383 83.6448 78.8976 83.5525C79.0786 83.4882 79.2704 83.5976 79.4312 83.7025C81.9093 85.3215 84.3869 86.9401 86.865 88.5592C86.5413 88.099 86.3373 87.5556 86.2788 86.9959C87.3251 87.7668 88.3715 88.538 89.4178 89.3088C89.6385 89.4713 89.8766 89.6622 89.9158 89.9337C89.9581 90.2273 89.7488 90.4947 89.5309 90.696C88.4953 91.6518 86.9334 91.9976 85.5913 91.5672C86.0456 91.9589 86.4999 92.3506 86.9537 92.7423C86.1536 93.2659 85.1339 93.4415 84.2046 93.2146C84.1051 93.6558 84.3104 94.1497 84.6931 94.3902" fill="white"/>
</g>
<path d="M166.243 135.393C166.243 135.393 172.007 141.352 174.627 140.855C174.627 140.855 165.525 131.172 161.698 122.234C160.26 118.874 158.116 114.619 155.185 110.084C156.911 107.11 158.444 103.747 159.15 100.347C159.15 100.347 156.27 103.801 152.581 106.289C152.381 106.013 152.18 105.736 151.974 105.46C153.71 103.802 155.371 101.48 155.827 98.4352L146.725 98.043C146.95 97.7323 147.205 97.3168 147.497 96.7612C147.497 96.7612 141.752 91.4619 132.623 87.3436C122.157 81.3874 98.8627 79.4208 87.5104 89.1076C77.3513 95.0318 74.6242 102.607 66.6195 104.491L61.8744 103.97C61.8744 103.97 60.0289 113.872 66.0922 118.303L61.6102 117.26C61.6102 117.26 62.4372 121.201 66.8662 125.55L64.1054 125.213C64.1054 125.213 65.3012 131.42 69.1286 132.91C69.1286 132.91 63.1486 133.655 61.4742 131.42C61.4742 131.42 59.4828 140.692 68.5406 144.194C68.5406 144.194 41.4085 147.37 49.0355 180.582C50.8171 188.34 61.5287 193.927 73.8431 196.62L162.524 196.274C167.93 194.512 174.377 176.61 174.616 169.409C174.855 162.209 171.267 148.305 171.267 148.305L174.627 152.774L166.243 135.393Z" fill="#E8505B"/>
<path d="M64.8648 149.233C59.7709 148.927 54.7696 152.887 53.8984 157.915C57.1964 155.73 61.0144 154.335 64.9441 153.879C61.7933 156.67 60.6862 161.534 62.3192 165.414C63.61 161.909 66.4037 158.987 69.8471 157.54C67.4735 160.339 66.7324 164.431 67.9737 167.885" fill="#E8505B"/>
<path d="M67.9749 167.885C67.9709 167.887 67.9465 167.825 67.9029 167.703C67.8619 167.581 67.7912 167.401 67.721 167.16C67.5855 166.675 67.4112 165.948 67.3509 164.992C67.2977 164.041 67.3405 162.855 67.6953 161.544C68.0366 160.235 68.689 158.796 69.7794 157.482L69.8821 157.622C68.4305 158.243 66.9389 159.194 65.6175 160.51C64.2978 161.822 63.1479 163.5 62.4248 165.452L62.3262 165.718L62.2159 165.456C61.1426 162.908 61.1858 159.671 62.5442 156.884C63.1272 155.701 63.9187 154.642 64.8678 153.791L64.9583 153.994C60.6802 154.489 56.877 156.068 53.955 157.998L53.7578 158.128L53.7997 157.897C54.0063 156.759 54.4147 155.716 54.9271 154.802C55.4363 153.884 56.0554 153.092 56.7222 152.439C58.0324 151.098 59.5046 150.31 60.7473 149.837C62.0043 149.372 63.0597 149.242 63.7715 149.206C64.1281 149.187 64.4027 149.214 64.5864 149.214C64.6706 149.219 64.7386 149.222 64.7949 149.224C64.8417 149.227 64.8651 149.23 64.8651 149.232C64.8651 149.235 64.8413 149.237 64.794 149.24C64.7377 149.242 64.6697 149.243 64.5855 149.246C64.4018 149.255 64.1285 149.238 63.7751 149.268C63.0691 149.323 62.0264 149.471 60.7891 149.947C59.5663 150.431 58.1206 151.223 56.8392 152.555C56.1868 153.203 55.5831 153.987 55.0883 154.892C54.5903 155.793 54.1954 156.817 53.9982 157.931L53.8434 157.83C56.7802 155.871 60.6136 154.266 64.9313 153.762L65.2946 153.72L65.0218 153.965C64.0979 154.795 63.3249 155.83 62.7549 156.986C61.4262 159.712 61.3817 162.881 62.423 165.369L62.2141 165.373C62.9543 163.388 64.1281 161.688 65.4729 160.363C66.8191 159.032 68.3373 158.076 69.8132 157.456L70.1545 157.312L69.9159 157.596C68.8367 158.879 68.182 160.291 67.8331 161.58C67.4697 162.87 67.413 164.042 67.4504 164.985C67.4949 165.933 67.6521 166.658 67.7705 167.145C67.8322 167.387 67.8943 167.569 67.9272 167.694C67.9632 167.819 67.9794 167.884 67.9749 167.885Z" fill="#263238"/>
<path d="M157.832 163.206C160.554 162.629 163.471 163.018 165.947 164.289C168.423 165.559 170.44 167.702 171.558 170.251" fill="#E8505B"/>
<path d="M171.558 170.249C171.514 170.271 171.167 169.393 170.286 168.175C169.417 166.962 167.933 165.438 165.894 164.392C163.854 163.345 161.751 163.028 160.259 163.029C158.756 163.023 157.84 163.253 157.832 163.205C157.829 163.192 158.054 163.125 158.47 163.044C158.887 162.962 159.497 162.882 160.258 162.864C161.769 162.819 163.92 163.114 166.001 164.183C168.082 165.251 169.576 166.826 170.421 168.08C170.849 168.708 171.141 169.251 171.317 169.637C171.494 170.022 171.57 170.244 171.558 170.249Z" fill="#263238"/>
<g opacity="0.3">
<path d="M126.559 170.686C123.289 171.201 119.13 173.679 117.609 176.619C117.285 177.245 117.584 177.331 117.611 178.036C117.638 178.74 118.018 179.468 118.672 179.732C119.326 179.996 120.212 179.621 120.333 178.926C119.936 181.297 120.471 183.811 121.8 185.813C122.716 185.302 123.468 184.503 123.924 183.559C123.732 187.066 125.069 190.629 127.519 193.145C126.988 191.072 126.457 188.999 125.926 186.926C125.351 184.683 124.8 182.762 124.953 180.452C125.116 177.985 126.584 175.905 127.721 173.859C126.156 174.539 124.342 177.622 122.795 179.499C122.569 176.218 123.953 173.03 126.436 170.781" fill="black"/>
</g>
<path d="M125.946 186.996C125.939 186.999 125.897 186.907 125.822 186.729C125.753 186.548 125.623 186.289 125.514 185.934C125.272 185.231 125.001 184.17 124.908 182.809C124.817 181.452 124.92 179.787 125.469 178.012C125.993 176.237 126.996 174.361 128.537 172.759L128.695 172.922C127.473 174.06 126.152 175.274 124.952 176.67C124.179 177.565 123.5 178.507 122.95 179.482L122.774 179.793L122.734 179.439C122.513 177.479 122.941 175.587 123.703 174.046C124.464 172.496 125.564 171.293 126.696 170.475L126.778 170.628C125.788 170.996 124.98 171.541 124.362 172.111C123.738 172.678 123.305 173.272 122.994 173.778C122.686 174.287 122.506 174.716 122.389 175.008C122.281 175.303 122.227 175.461 122.218 175.457C122.214 175.456 122.222 175.416 122.242 175.337C122.264 175.258 122.292 175.141 122.342 174.99C122.443 174.691 122.611 174.251 122.911 173.727C123.213 173.208 123.641 172.595 124.268 172.008C124.888 171.418 125.706 170.851 126.717 170.463L127.319 170.232L126.799 170.616C125.697 171.429 124.63 172.616 123.892 174.138C123.155 175.651 122.745 177.502 122.963 179.411L122.748 179.368C123.305 178.376 123.994 177.42 124.774 176.517C125.987 175.106 127.315 173.89 128.54 172.755L128.698 172.917C127.182 174.484 126.184 176.323 125.654 178.068C125.1 179.814 124.98 181.457 125.05 182.8C125.123 184.147 125.369 185.204 125.586 185.91C125.684 186.267 125.802 186.528 125.858 186.713C125.922 186.897 125.952 186.993 125.946 186.996Z" fill="#263238"/>
<path d="M72.5293 186.502C74.2798 188.453 76.6422 189.846 79.1964 190.435C79.4899 190.503 79.8465 190.542 80.0478 190.318C80.3071 190.029 80.0942 189.577 79.8767 189.255C78.9235 187.848 77.9708 186.441 77.0181 185.034C79.0411 186.636 81.4809 187.708 84.0292 188.112C84.4533 188.18 84.9833 188.182 85.1989 187.81C85.3732 187.51 85.2367 187.133 85.094 186.816C84.6573 185.85 84.1796 184.901 83.6632 183.975" fill="#E8505B"/>
<path d="M83.6622 183.975C83.669 183.971 83.7167 184.049 83.8018 184.201C83.8959 184.376 84.0161 184.599 84.1642 184.873C84.3227 185.176 84.5109 185.535 84.7266 185.948C84.836 186.159 84.9526 186.384 85.0759 186.622C85.1989 186.857 85.3335 187.123 85.36 187.448C85.3704 187.61 85.3281 187.792 85.2169 187.933C85.1048 188.076 84.9346 188.164 84.7635 188.201C84.4182 188.28 84.0616 188.215 83.7185 188.155C83.0211 188.034 82.2813 187.857 81.5236 187.6C80.0076 187.094 78.4098 186.284 76.9451 185.126L77.1149 184.969C77.2729 185.203 77.4418 185.452 77.6124 185.703C78.1585 186.511 78.6921 187.301 79.2076 188.063C79.4647 188.445 79.7172 188.819 79.9644 189.187C80.0909 189.377 80.2062 189.58 80.2575 189.817C80.3219 190.048 80.2368 190.363 80.0031 190.495C79.7731 190.628 79.5277 190.603 79.3192 190.569C79.1058 190.529 78.9163 190.47 78.7177 190.422C78.3296 190.311 77.9555 190.193 77.602 190.057C76.8934 189.789 76.2585 189.477 75.702 189.155C74.5868 188.509 73.7912 187.826 73.2771 187.328C73.0209 187.076 72.83 186.874 72.7084 186.729C72.5855 186.586 72.5238 186.509 72.5297 186.503C72.5355 186.498 72.6089 186.565 72.7426 186.697C72.8746 186.831 73.0754 187.022 73.3392 187.261C73.8687 187.736 74.6723 188.392 75.784 189.011C76.3387 189.32 76.969 189.618 77.67 189.875C78.0199 190.005 78.389 190.118 78.7717 190.223C79.1459 190.303 79.5858 190.481 79.8901 190.31C80.0329 190.222 80.0887 190.049 80.0423 189.862C80.0013 189.674 79.8987 189.487 79.7794 189.311C79.5304 188.945 79.276 188.572 79.0176 188.192C78.5007 187.43 77.9663 186.642 77.4183 185.834C77.2481 185.583 77.0793 185.333 76.9213 185.1L76.4963 184.472L77.0906 184.943C78.5309 186.083 80.1008 186.889 81.5916 187.399C82.3367 187.659 83.0647 187.84 83.7518 187.968C84.0958 188.035 84.4263 188.094 84.7243 188.03C85.026 187.98 85.2214 187.731 85.1989 187.455C85.1827 187.182 85.0642 186.921 84.9445 186.682C84.8274 186.442 84.7167 186.216 84.6122 186.003C84.41 185.585 84.2345 185.221 84.0859 184.915C83.9535 184.632 83.8459 184.403 83.7617 184.224C83.6897 184.064 83.6555 183.979 83.6622 183.975Z" fill="#263238"/>
<g opacity="0.3">
<path d="M83.6343 158.506C84.6199 160.176 86.0966 161.552 87.8323 162.416C87.7337 161.498 87.3438 160.613 86.7324 159.921C88.6252 161.726 90.8925 163.136 93.3481 164.036C91.2608 164.966 88.7305 164.828 86.7558 163.679C84.781 162.53 83.4123 160.397 83.1895 158.123" fill="black"/>
</g>
<g opacity="0.3">
<path d="M71.5879 129.163C75.1623 136.04 86.7244 139.434 95.7908 139.579C98.5926 139.623 102.533 141.692 105.319 141.424C111.547 140.825 116.599 137.467 122.842 136.934C126.725 136.603 130.637 136.501 134.476 135.832C138.315 135.163 138.142 134.722 141.192 132.296C144.241 129.869 147.547 127.463 147.497 123.567C141.763 130.589 136.093 132.764 127.261 134.813C118.43 136.861 109.255 136.825 100.198 136.406C90.2344 135.945 79.7772 134.856 71.5879 129.163Z" fill="black"/>
</g>
<path d="M102.347 76.4297C102.386 76.4279 102.421 76.9367 102.557 77.7435C102.692 78.5503 102.954 79.6534 103.414 80.8118C103.878 81.9698 104.446 82.9505 104.904 83.6285C105.36 84.3079 105.684 84.701 105.655 84.7262C105.643 84.737 105.55 84.6487 105.391 84.4804C105.231 84.3133 105.016 84.0553 104.768 83.724C104.271 83.0626 103.667 82.0765 103.196 80.8987C102.728 79.72 102.487 78.5899 102.393 77.7673C102.345 77.3558 102.323 77.0213 102.324 76.7899C102.323 76.558 102.331 76.4301 102.347 76.4297Z" fill="#E8505B"/>
<path d="M105.289 75.2932C105.327 75.3085 105.147 75.7529 104.974 76.4976C104.798 77.241 104.662 78.2963 104.752 79.4579C104.847 80.6195 105.149 81.6402 105.44 82.3462C105.729 83.0539 105.977 83.4641 105.942 83.4853C105.928 83.4938 105.855 83.3988 105.734 83.2183C105.609 83.0395 105.455 82.7644 105.288 82.4128C104.952 81.7109 104.616 80.6686 104.518 79.4768C104.426 78.2851 104.593 77.2027 104.813 76.4566C104.922 76.0829 105.031 75.7867 105.126 75.5904C105.217 75.3923 105.274 75.2869 105.289 75.2932Z" fill="#E8505B"/>
<path d="M50.182 150.137C50.1766 150.131 50.2382 150.071 50.3607 149.961C50.4854 149.854 50.661 149.685 50.9086 149.495C51.3927 149.099 52.1292 148.569 53.0936 148.002C55.0135 146.852 57.9224 145.684 61.2776 145.041C64.6336 144.396 67.7295 144.271 69.9554 144.205C71.0707 144.176 71.9725 144.168 72.5961 144.168C72.8865 144.171 73.1237 144.172 73.3142 144.174C73.4785 144.178 73.5645 144.184 73.565 144.192C73.565 144.2 73.479 144.21 73.3155 144.221C73.1255 144.231 72.8883 144.244 72.5983 144.259C71.9428 144.286 71.0499 144.324 69.9617 144.37C67.7394 144.478 64.6561 144.63 61.3226 145.271C57.9904 145.91 55.1021 147.042 53.176 148.145C52.2089 148.69 51.4629 149.196 50.964 149.567C50.4643 149.937 50.195 150.152 50.182 150.137Z" fill="#E8505B"/>
<path d="M114.724 77.2658C114.712 77.3063 113.952 77.0465 112.702 76.7435C112.077 76.6008 111.321 76.4603 110.479 76.4765C109.644 76.4887 108.715 76.699 107.897 77.2082C107.493 77.4648 107.145 77.7863 106.883 78.151C106.627 78.5184 106.462 78.9276 106.376 79.3319C106.208 80.1478 106.328 80.9186 106.472 81.5372C106.784 82.7807 107.114 83.5187 107.069 83.5344C107.055 83.5398 106.963 83.3615 106.821 83.0284C106.682 82.6943 106.48 82.208 106.311 81.5773C106.145 80.9523 105.999 80.1586 106.164 79.2883C106.25 78.8574 106.422 78.4157 106.696 78.0186C106.973 77.6246 107.345 77.2807 107.773 77.0096C108.636 76.4716 109.61 76.2613 110.477 76.26C111.347 76.2555 112.116 76.4171 112.742 76.5819C113.37 76.7498 113.865 76.9236 114.206 77.047C114.545 77.1726 114.729 77.2505 114.724 77.2658Z" fill="#E8505B"/>
<path d="M182.272 190.096C181.785 186.86 180.201 183.679 177.496 181.837C174.792 179.996 170.896 179.781 168.32 181.799L157.631 196.255L180.384 196.348C181.655 195.173 182.53 191.807 182.272 190.096Z" fill="#E8505B"/>
<g opacity="0.3">
<path d="M167.129 196.047C169.05 195.244 170.469 193.521 171.34 191.63C172.21 189.738 172.598 187.667 172.978 185.619C173.294 183.92 173.594 182.087 172.856 180.524C172.503 180.469 172.15 180.681 171.936 180.967C171.721 181.253 171.615 181.603 171.507 181.945C169.748 187.502 167.031 192.277 162.6 196.063" fill="black"/>
</g>
<g opacity="0.3">
<path d="M99.5497 83.1484C101.795 89.635 102.082 96.6334 101.84 103.493C101.719 106.907 101.465 110.358 100.397 113.603C99.3304 116.848 97.3692 119.905 94.4634 121.7C91.7142 123.398 88.3181 123.84 85.1147 123.418C81.9108 122.996 78.8667 121.765 75.9789 120.314C72.685 118.66 69.5077 116.677 66.9504 114.023C64.393 111.369 62.2958 107.633 61.873 103.971L66.6181 104.492C66.6181 104.492 70.2717 104.102 75.9497 98.6104C82.1503 92.6128 83.2809 91.8776 87.9286 88.7552C93.6574 84.9062 99.5497 83.1484 99.5497 83.1484Z" fill="white"/>
</g>
<g opacity="0.3">
<path d="M119.164 123.139C120.924 122.097 123.382 122.431 124.8 123.906C126.212 122.001 128.806 121.057 131.113 121.609C129.738 122.233 128.343 122.882 127.231 123.903C126.119 124.925 125.316 126.393 125.459 127.896C124.069 126.401 122.464 125.106 120.708 124.064C119.979 123.631 119.017 123.251 118.334 123.753" fill="black"/>
</g>
<path d="M134.669 173.863C132.08 175.725 130.124 178.449 129.188 181.497C128.253 184.545 128.343 187.898 129.442 190.891" fill="#E8505B"/>
<path d="M129.441 190.89C129.433 190.892 129.404 190.832 129.355 190.714C129.31 190.595 129.233 190.422 129.159 190.19C128.999 189.732 128.808 189.053 128.656 188.196C128.346 186.493 128.29 184.018 129.075 181.462C129.859 178.904 131.295 176.887 132.507 175.651C133.113 175.026 133.653 174.572 134.042 174.283C134.232 174.132 134.393 174.032 134.498 173.96C134.605 173.889 134.663 173.856 134.667 173.862C134.679 173.877 134.468 174.044 134.099 174.354C133.73 174.664 133.212 175.133 132.628 175.764C131.459 177.016 130.071 179.016 129.299 181.531C128.527 184.044 128.555 186.478 128.82 188.17C128.948 189.02 129.114 189.7 129.246 190.163C129.378 190.628 129.459 190.883 129.441 190.89Z" fill="#263238"/>
<path d="M143.626 158.276C145.466 156.861 147.843 155.374 149.94 156.368C151.127 156.931 151.86 158.2 152.088 159.494C152.316 160.788 152.109 162.117 151.849 163.405C150.35 170.818 147.033 177.856 142.272 183.732C140.537 185.873 138.071 188.045 135.379 187.454C132.864 186.902 131.439 184.03 131.584 181.459C131.73 178.888 133.033 176.549 134.234 174.271C137.087 168.861 139.862 162.943 143.626 158.276Z" fill="#E8505B"/>
<path d="M143.627 158.275C143.627 158.275 143.591 158.335 143.51 158.445C143.422 158.562 143.302 158.722 143.147 158.928C142.828 159.352 142.366 159.985 141.802 160.82C140.666 162.485 139.167 164.991 137.496 168.186C136.667 169.789 135.76 171.543 134.786 173.426C133.833 175.316 132.631 177.27 132.007 179.559C131.708 180.699 131.568 181.927 131.822 183.133C132.065 184.33 132.63 185.521 133.572 186.375C134.04 186.799 134.606 187.124 135.225 187.29C135.844 187.457 136.506 187.473 137.146 187.342C138.436 187.078 139.588 186.293 140.585 185.376C141.594 184.456 142.417 183.371 143.23 182.309C144.038 181.244 144.77 180.148 145.469 179.058C146.832 176.858 147.999 174.64 148.922 172.447C149.853 170.257 150.583 168.11 151.128 166.065C151.395 165.042 151.625 164.045 151.82 163.083C152.009 162.121 152.138 161.184 152.093 160.292C152.041 158.521 151.115 156.916 149.792 156.379C149.145 156.103 148.467 156.053 147.87 156.151C147.27 156.242 146.742 156.437 146.285 156.641C145.374 157.065 144.727 157.513 144.291 157.812C144.081 157.961 143.918 158.076 143.799 158.161C143.688 158.24 143.627 158.275 143.627 158.275C143.627 158.275 143.678 158.227 143.784 158.142C143.889 158.055 144.05 157.932 144.263 157.773C144.692 157.46 145.332 156.999 146.247 156.557C146.706 156.345 147.239 156.14 147.853 156.04C148.463 155.933 149.169 155.977 149.844 156.259C150.526 156.53 151.13 157.089 151.549 157.799C151.974 158.508 152.216 159.374 152.259 160.284C152.31 161.197 152.183 162.149 151.998 163.117C151.807 164.085 151.581 165.086 151.315 166.116C150.776 168.172 150.05 170.33 149.121 172.532C148.199 174.738 147.031 176.968 145.664 179.181C144.963 180.277 144.228 181.379 143.416 182.45C142.602 183.516 141.773 184.611 140.744 185.549C139.729 186.482 138.548 187.294 137.192 187.571C136.52 187.709 135.819 187.691 135.164 187.514C134.508 187.338 133.91 186.992 133.418 186.546C132.43 185.647 131.852 184.414 131.603 183.177C131.342 181.929 131.491 180.661 131.798 179.504C132.441 177.172 133.657 175.219 134.614 173.337C135.597 171.458 136.513 169.708 137.349 168.109C139.041 164.92 140.566 162.421 141.727 160.768C142.303 159.939 142.778 159.315 143.11 158.9C143.272 158.7 143.398 158.545 143.491 158.431C143.578 158.325 143.627 158.275 143.627 158.275Z" fill="#263238"/>
<g opacity="0.3">
<path d="M143.85 164.694L143.837 164.715C144.289 163.446 145.247 163.08 146.276 162.708C147.306 162.336 148.557 162.377 149.384 163.094C150.341 163.925 150.459 165.381 150.206 166.622C150.118 167.052 149.985 167.492 149.685 167.813C149.386 168.134 148.879 168.298 148.493 168.089C148.039 167.843 147.902 167.196 147.428 166.99C146.884 166.754 146.317 167.238 145.742 167.384C144.966 167.581 144.108 167.079 143.802 166.338C143.586 165.816 143.628 165.218 143.85 164.694Z" fill="black"/>
</g>
<g opacity="0.3">
<path d="M145.815 158.355C146.268 158.488 146.518 159.015 146.522 159.578C146.527 160.142 146.348 160.69 146.157 161.22C145.999 161.66 145.731 162.172 145.264 162.188C144.997 162.197 144.748 162.023 144.607 161.797C144.466 161.57 144.416 161.298 144.396 161.032C144.35 160.42 144.445 159.797 144.672 159.226C144.788 158.936 144.947 158.648 145.207 158.475C145.466 158.301 145.846 158.277 146.074 158.491" fill="black"/>
</g>
<g opacity="0.3">
<path d="M151.207 159.461C151.661 159.595 151.91 160.121 151.915 160.685C151.919 161.248 151.741 161.796 151.55 162.327C151.391 162.767 151.124 163.278 150.656 163.294C150.389 163.304 150.141 163.129 150 162.902C149.858 162.676 149.809 162.404 149.789 162.138C149.742 161.526 149.837 160.903 150.065 160.332C150.181 160.042 150.339 159.754 150.599 159.581C150.858 159.407 151.239 159.383 151.466 159.597" fill="black"/>
</g>
<g opacity="0.3">
<path d="M148.926 157.402C149.38 157.535 149.629 158.062 149.634 158.625C149.638 159.189 149.459 159.737 149.268 160.267C149.11 160.707 148.842 161.219 148.375 161.235C148.108 161.244 147.86 161.07 147.718 160.844C147.577 160.617 147.528 160.345 147.508 160.079C147.461 159.467 147.556 158.844 147.784 158.273C147.899 157.983 148.058 157.695 148.318 157.522C148.577 157.349 148.958 157.324 149.185 157.538" fill="black"/>
</g>
<g opacity="0.3">
<path d="M147.181 175.805C146.777 178.52 146.119 181.214 144.978 183.71C143.837 186.207 142.198 188.506 140.038 190.2C139.047 190.978 137.889 191.643 136.63 191.675C134.851 191.72 133.232 190.445 132.431 188.856C131.631 187.267 131.518 185.42 131.612 183.644C132.473 185.082 133.441 186.613 134.998 187.232C136.344 187.766 137.911 187.492 139.181 186.795C140.45 186.098 141.466 185.021 142.383 183.9C144.308 181.547 145.899 178.921 147.092 176.126" fill="black"/>
</g>
<path d="M46.3405 158.636C44.1222 157.956 41.3744 157.397 39.759 159.062C38.8446 160.006 38.6028 161.451 38.8428 162.743C39.0832 164.035 39.7423 165.207 40.4375 166.322C44.4396 172.739 50.0122 178.169 56.5312 182.003C58.9066 183.4 61.9777 184.571 64.2914 183.074C66.4535 181.675 66.7817 178.486 65.7444 176.129C64.7066 173.773 62.667 172.038 60.7436 170.325C56.175 166.259 51.5025 161.688 46.3405 158.636Z" fill="#E8505B"/>
<path d="M46.3411 158.637C46.3411 158.637 46.4046 158.667 46.523 158.735C46.6495 158.809 46.8224 158.91 47.0444 159.04C47.5005 159.313 48.1641 159.731 48.9943 160.306C50.6607 161.447 52.9645 163.253 55.6664 165.646C57.0103 166.851 58.4817 168.169 60.0607 169.584C61.6172 171.011 63.4397 172.415 64.8597 174.373C65.5531 175.349 66.1357 176.484 66.3302 177.745C66.5297 178.99 66.4207 180.347 65.8106 181.536C65.5063 182.125 65.0673 182.659 64.5144 183.055C63.9633 183.45 63.3132 183.712 62.6356 183.819C61.2687 184.033 59.8774 183.687 58.6001 183.17C57.3079 182.651 56.1468 181.916 55.0113 181.204C53.8758 180.485 52.8006 179.71 51.7601 178.93C49.7044 177.336 47.8287 175.657 46.1921 173.914C44.5501 172.177 43.1134 170.411 41.8878 168.674C41.2787 167.803 40.7163 166.945 40.1976 166.105C39.6853 165.263 39.2323 164.416 38.9608 163.543C38.6817 162.675 38.6056 161.78 38.7542 160.966C38.8983 160.155 39.2679 159.42 39.8118 158.927C40.3453 158.426 40.991 158.138 41.5997 158.024C42.2102 157.903 42.7806 157.908 43.2854 157.946C44.2966 158.039 45.0579 158.247 45.569 158.39C45.8242 158.464 46.0178 158.523 46.1471 158.567C46.2767 158.61 46.3411 158.637 46.3411 158.637C46.3411 158.637 46.2718 158.625 46.1403 158.59C45.9989 158.553 45.8053 158.501 45.5568 158.436C45.0431 158.308 44.2804 158.116 43.2786 158.037C42.7793 158.007 42.2169 158.009 41.6226 158.134C41.0292 158.251 40.4111 158.536 39.9023 159.022C38.8514 159.988 38.5471 161.816 39.1189 163.493C39.389 164.345 39.8388 165.176 40.3521 166.01C40.8725 166.843 41.4367 167.696 42.0463 168.561C43.2732 170.285 44.7094 172.04 46.3483 173.765C47.9818 175.496 49.8516 177.163 51.8993 178.747C52.9357 179.522 54.0059 180.292 55.1365 181.007C56.2688 181.717 57.4201 182.444 58.6879 182.953C59.9423 183.462 61.297 183.794 62.5978 183.589C63.243 183.487 63.8575 183.239 64.3784 182.866C64.8998 182.494 65.3154 181.991 65.6062 181.43C66.1888 180.3 66.3005 178.987 66.1087 177.781C65.9237 176.562 65.3627 175.461 64.6833 174.498C63.2961 172.573 61.4857 171.164 59.9306 169.729C58.3588 168.306 56.8942 166.981 55.5561 165.77C52.8709 163.364 50.5886 161.543 48.9417 160.381C48.1209 159.796 47.4667 159.366 47.0192 159.081C46.8026 158.942 46.6338 158.834 46.5104 158.755C46.3965 158.681 46.3411 158.637 46.3411 158.637Z" fill="#263238"/>
<g opacity="0.3">
<path d="M48.3834 164.726L48.4028 164.742C47.5347 163.711 46.5095 163.705 45.4146 163.717C44.3196 163.729 43.162 164.206 42.6393 165.168C42.0342 166.281 42.434 167.686 43.1067 168.76C43.3399 169.131 43.6186 169.497 44.0116 169.693C44.4047 169.888 44.9364 169.865 45.2246 169.534C45.5636 169.144 45.4645 168.489 45.8364 168.131C46.2637 167.72 46.9638 167.973 47.5536 167.909C48.3497 167.821 48.9764 167.05 49.0039 166.25C49.0228 165.684 48.7742 165.139 48.3834 164.726Z" fill="black"/>
</g>
<g opacity="0.3">
<path d="M44.3191 159.477C43.941 159.761 43.8919 160.341 44.0855 160.87C44.2791 161.4 44.6379 161.851 45.0031 162.28C45.3056 162.637 45.7351 163.022 46.1786 162.873C46.4317 162.789 46.6036 162.539 46.6568 162.276C46.7095 162.015 46.6604 161.743 46.5861 161.486C46.415 160.896 46.1075 160.346 45.6946 159.892C45.4848 159.661 45.2349 159.446 44.931 159.375C44.6271 159.303 44.2624 159.414 44.1246 159.694" fill="black"/>
</g>
<g opacity="0.3">
<path d="M39.657 162.404C39.2788 162.688 39.2298 163.268 39.4234 163.798C39.6165 164.327 39.9758 164.778 40.3409 165.207C40.6435 165.564 41.073 165.949 41.5165 165.801C41.7695 165.716 41.9415 165.466 41.9947 165.204C42.0473 164.942 41.9983 164.67 41.924 164.414C41.7529 163.824 41.4454 163.274 41.0325 162.819C40.8227 162.588 40.5728 162.374 40.2689 162.302C39.965 162.231 39.6008 162.342 39.4625 162.622" fill="black"/>
</g>
<g opacity="0.3">
<path d="M41.0709 159.674C40.6927 159.958 40.6441 160.538 40.8372 161.068C41.0304 161.597 41.3897 162.048 41.7548 162.477C42.0574 162.834 42.4869 163.219 42.9304 163.07C43.1834 162.986 43.3554 162.735 43.4085 162.473C43.4612 162.212 43.4121 161.94 43.3378 161.684C43.1667 161.094 42.8592 160.544 42.4464 160.089C42.2366 159.858 41.9867 159.644 41.6828 159.572C41.3789 159.5 41.0142 159.611 40.8764 159.891" fill="black"/>
</g>
<g opacity="0.3">
<path d="M49.1543 176.299C50.4838 178.7 52.0448 180.993 53.988 182.931C55.9312 184.87 58.2734 186.448 60.8897 187.278C62.0905 187.659 63.4079 187.876 64.5983 187.464C66.2799 186.883 67.3501 185.122 67.5433 183.353C67.7364 181.584 67.1943 179.815 66.4834 178.184C66.1809 179.832 65.8117 181.605 64.5695 182.731C63.4961 183.703 61.9329 183.996 60.4993 183.788C59.0662 183.58 57.7371 182.927 56.485 182.199C53.8579 180.67 51.4478 178.768 49.3501 176.568" fill="black"/>
</g>
<g opacity="0.3">
<path d="M47.5012 173.853C47.3711 174.036 47.241 174.22 47.1109 174.402C48.6088 172.061 51.4318 170.635 54.2057 170.819C56.9791 171.002 59.5896 172.789 60.7652 175.307C61.9407 177.826 61.6337 180.975 59.9934 183.219C54.949 181.16 50.3354 178.051 46.5332 174.149" fill="white"/>
</g>
<path d="M174.614 169.412C174.622 169.413 174.613 169.518 174.589 169.716C174.558 169.937 174.52 170.224 174.471 170.58C174.367 171.33 174.192 172.412 173.945 173.744C173.441 176.402 172.65 180.08 171.17 183.953C170.42 185.884 169.568 187.67 168.657 189.219C168.426 189.604 168.18 189.967 167.952 190.326C167.837 190.505 167.723 190.681 167.611 190.854C167.487 191.019 167.365 191.182 167.246 191.342C167.006 191.661 166.774 191.969 166.551 192.266C166.313 192.549 166.073 192.813 165.85 193.069C165.621 193.319 165.423 193.576 165.199 193.785C164.979 193.996 164.771 194.195 164.575 194.383C164.381 194.567 164.199 194.74 164.031 194.901C163.852 195.043 163.687 195.174 163.536 195.293C163.253 195.515 163.024 195.692 162.847 195.83C162.688 195.95 162.603 196.01 162.598 196.003C162.593 195.997 162.669 195.924 162.818 195.792C162.987 195.646 163.206 195.458 163.478 195.224C163.624 195.1 163.783 194.964 163.957 194.818C164.12 194.654 164.296 194.477 164.484 194.288C164.675 194.098 164.877 193.896 165.092 193.682C165.31 193.47 165.503 193.211 165.727 192.959C165.945 192.702 166.173 192.433 166.411 192.153C166.629 191.855 166.855 191.547 167.089 191.227C167.206 191.068 167.325 190.905 167.446 190.74C167.556 190.567 167.668 190.391 167.78 190.213C168.003 189.855 168.245 189.493 168.471 189.109C169.365 187.566 170.206 185.789 170.952 183.869C172.424 180.017 173.238 176.357 173.783 173.712C174.051 172.386 174.25 171.31 174.382 170.565C174.448 170.212 174.501 169.928 174.542 169.708C174.581 169.513 174.606 169.411 174.614 169.412Z" fill="#263238"/>
<path d="M71.0296 142.101C71.0242 142.096 71.0958 142.021 71.2376 141.885C71.3988 141.734 71.6072 141.539 71.8652 141.297C72.1381 141.042 72.4762 140.734 72.881 140.391C73.2844 140.046 73.7359 139.644 74.26 139.229C75.2906 138.379 76.5576 137.415 78.0001 136.393C79.4503 135.384 81.0806 134.324 82.8433 133.297C84.6114 132.278 86.3421 131.39 87.9395 130.634C89.5428 129.89 91.0097 129.271 92.2604 128.799C92.8809 128.551 93.454 128.359 93.9538 128.181C94.4526 128 94.8876 127.86 95.2446 127.75C95.5827 127.646 95.8556 127.562 96.0667 127.498C96.2554 127.443 96.3558 127.418 96.358 127.425C96.3603 127.433 96.2653 127.473 96.0812 127.543C95.8736 127.618 95.6057 127.716 95.2734 127.836C94.9213 127.959 94.4914 128.112 93.9975 128.304C93.5031 128.494 92.9349 128.696 92.3199 128.954C91.0799 129.444 89.6243 130.077 88.0309 130.829C86.4434 131.594 84.7221 132.484 82.9599 133.5C81.2036 134.523 79.5751 135.574 78.123 136.571C76.6782 137.579 75.4045 138.527 74.3631 139.359C73.8337 139.764 73.3758 140.156 72.9651 140.491C72.5532 140.824 72.2065 141.121 71.9251 141.365C71.655 141.594 71.437 141.778 71.2687 141.92C71.1178 142.045 71.0354 142.108 71.0296 142.101Z" fill="#263238"/>
<path d="M58.3575 134.581C58.3553 134.577 58.3832 134.555 58.4395 134.516C58.5084 134.47 58.5917 134.415 58.693 134.347C58.9356 134.192 59.2648 133.981 59.6803 133.716C60.1085 133.44 60.6371 133.111 61.267 132.756C61.8946 132.398 62.5992 131.97 63.4092 131.554C63.8117 131.341 64.2331 131.117 64.6716 130.885C65.1115 130.654 65.5811 130.438 66.0615 130.201C67.0178 129.718 68.0687 129.266 69.1691 128.777C71.3869 127.84 73.8659 126.905 76.5205 126.08C79.1809 125.272 81.7585 124.654 84.12 124.184C85.305 123.971 86.4288 123.755 87.4909 123.618C88.0213 123.545 88.5314 123.46 89.0253 123.404C89.5188 123.35 89.9929 123.298 90.4458 123.249C91.3495 123.138 92.1725 123.097 92.8933 123.041C93.6137 122.981 94.2359 122.957 94.7451 122.944C95.2377 122.93 95.6285 122.92 95.9162 122.912C96.0382 122.912 96.1382 122.911 96.221 122.91C96.2894 122.911 96.325 122.913 96.325 122.917C96.325 122.921 96.2904 122.927 96.2219 122.934C96.1395 122.941 96.0396 122.949 95.918 122.96C95.6308 122.978 95.2413 123.003 94.7496 123.035C94.2422 123.061 93.6218 123.099 92.9032 123.171C92.1847 123.239 91.3643 123.292 90.4639 123.414C90.0123 123.468 89.54 123.524 89.0483 123.583C88.5562 123.644 88.0479 123.733 87.5198 123.81C86.4617 123.956 85.342 124.178 84.1615 124.396C81.809 124.877 79.2413 125.499 76.5894 126.304C73.9434 127.126 71.4698 128.053 69.2537 128.976C68.1542 129.458 67.1034 129.903 66.1457 130.376C65.6653 130.609 65.1948 130.821 64.7536 131.047C64.3137 131.274 63.8909 131.493 63.4871 131.701C62.674 132.106 61.9653 132.523 61.3323 132.87C60.6974 133.214 60.1625 133.53 59.7276 133.794C59.303 134.043 58.9663 134.241 58.7182 134.387C58.6119 134.447 58.5246 134.496 58.4525 134.537C58.3922 134.569 58.3598 134.584 58.3575 134.581Z" fill="#263238"/>
<path d="M112.014 119.743C112.041 119.81 110.879 120.3 109.597 121.161C108.31 122.013 107.41 122.897 107.359 122.846C107.315 122.809 108.154 121.836 109.467 120.966C110.775 120.089 111.997 119.688 112.014 119.743Z" fill="#263238"/>
<path d="M119.631 122.186C119.614 122.227 118.966 121.927 117.861 121.647C116.762 121.356 115.187 121.115 113.453 121.245C111.726 121.374 110.171 121.788 109.204 122.373C108.219 122.954 107.914 123.647 107.878 123.614C107.868 123.61 107.928 123.438 108.111 123.169C108.298 122.903 108.623 122.547 109.116 122.232C110.099 121.589 111.679 121.143 113.436 121.011C115.202 120.878 116.803 121.152 117.904 121.487C118.459 121.649 118.892 121.824 119.187 121.953C119.48 122.089 119.638 122.171 119.631 122.186Z" fill="#263238"/>
<path d="M104.837 125.941C104.837 125.941 105.187 126.78 105.362 127.2C105.5 127.534 105.641 127.873 105.678 128.232C105.714 128.592 105.633 128.98 105.38 129.238C105.008 129.615 104.359 129.599 103.911 129.315C103.463 129.032 103.186 128.544 102.994 128.05C102.803 127.556 102.68 127.034 102.447 126.558C102.447 126.558 103.403 125.784 103.186 124.418C103.186 124.418 103.669 125.858 104.837 125.941Z" fill="#F5F5F5"/>
<path d="M97.4824 121.347C97.4824 121.347 98.6161 118.775 101.486 118.018C104.356 117.262 107.349 120.276 107.349 120.276C107.349 120.276 103.874 119.257 103.927 120.98C103.979 122.703 104.996 122.665 103.844 123.797C102.692 124.929 100.716 123.738 100.227 122.404L99.2973 121.097L97.4824 121.347Z" fill="#263238"/>
<path d="M109.377 123.047C109.385 123.046 109.394 123.102 109.402 123.209C109.416 123.316 109.409 123.474 109.39 123.678C109.339 124.079 109.172 124.674 108.717 125.26C108.272 125.832 107.516 126.425 106.516 126.522C105.531 126.63 104.413 126.195 103.666 125.336C103.314 124.931 103.071 124.447 102.958 123.952L103.179 123.89C103.483 124.812 103.261 125.772 102.805 126.428C102.346 127.104 101.651 127.44 101.078 127.549C100.494 127.663 100.014 127.577 99.7099 127.48C99.5564 127.432 99.442 127.381 99.3691 127.34C99.2952 127.3 99.2588 127.276 99.2619 127.269C99.27 127.252 99.4271 127.329 99.7315 127.402C100.033 127.472 100.496 127.53 101.046 127.402C101.588 127.278 102.225 126.949 102.638 126.316C103.052 125.699 103.244 124.802 102.961 123.964L103.183 123.902C103.29 124.357 103.515 124.804 103.843 125.182C104.54 125.984 105.584 126.397 106.495 126.306C107.42 126.23 108.146 125.689 108.587 125.156C109.037 124.61 109.222 124.048 109.299 123.662C109.37 123.272 109.353 123.047 109.377 123.047Z" fill="#263238"/>
<path d="M103.814 118.437C103.812 118.472 103.459 118.468 102.896 118.476C102.334 118.488 101.551 118.516 100.739 118.757C99.9278 118.998 99.2826 119.449 98.913 119.857C98.5361 120.264 98.4042 120.596 98.3668 120.579C98.3443 120.574 98.4227 120.209 98.7873 119.749C99.1439 119.29 99.8161 118.786 100.671 118.532C101.524 118.28 102.332 118.28 102.898 118.31C103.469 118.344 103.816 118.407 103.814 118.437Z" fill="white"/>
<path d="M104.678 129.625C104.622 129.651 104.109 128.631 103.705 127.286C103.297 125.942 103.16 124.808 103.221 124.799C103.288 124.787 103.526 125.89 103.929 127.218C104.328 128.547 104.74 129.598 104.678 129.625Z" fill="#263238"/>
<path d="M72.6233 134.677C72.6184 134.671 72.6805 134.616 72.8034 134.517C72.9488 134.405 73.1289 134.266 73.3482 134.096C73.8214 133.73 74.5301 133.231 75.4251 132.645C76.3184 132.055 77.4147 131.402 78.6592 130.728C79.9099 130.064 81.3129 129.386 82.8225 128.76C84.3362 128.142 85.8103 127.636 87.1655 127.227C88.5247 126.83 89.7629 126.522 90.8124 126.312C91.861 126.098 92.7151 125.954 93.309 125.881C93.584 125.847 93.8101 125.819 93.9924 125.797C94.1491 125.78 94.2315 125.775 94.2328 125.783C94.2342 125.791 94.1536 125.811 93.9992 125.843C93.8186 125.878 93.5953 125.92 93.3234 125.971C92.7349 126.071 91.8876 126.24 90.8475 126.474C89.8061 126.704 88.5774 127.027 87.2281 127.434C85.8823 127.852 84.4177 128.362 82.9117 128.977C81.4097 129.6 80.0112 130.269 78.7605 130.918C77.516 131.579 76.4157 132.214 75.5143 132.784C74.6107 133.35 73.8898 133.827 73.4013 134.169C73.1722 134.324 72.9835 134.451 72.8313 134.555C72.6999 134.641 72.6283 134.684 72.6233 134.677Z" fill="#263238"/>
<path d="M95.1858 114.857C96.4865 109.404 93.1201 103.929 87.6666 102.628C82.2132 101.327 76.7379 104.694 75.4372 110.147C74.1365 115.601 77.5029 121.076 82.9564 122.377C88.4098 123.677 93.8851 120.311 95.1858 114.857Z" fill="#F5F5F5"/>
<path d="M95.4645 112.498C95.4645 117.399 92.158 121.372 89.3548 121.372C86.5516 121.372 84.2793 117.399 84.2793 112.498C84.2793 107.596 86.5516 103.623 89.3548 103.623C92.1575 103.623 95.4645 107.596 95.4645 112.498Z" fill="#263238"/>
<path d="M91.6086 109.217C92.5681 109.217 93.346 108.439 93.346 107.48C93.346 106.52 92.5681 105.742 91.6086 105.742C90.649 105.742 89.8711 106.52 89.8711 107.48C89.8711 108.439 90.649 109.217 91.6086 109.217Z" fill="white"/>
<path d="M87.1144 118.949C87.1 118.957 87.0104 118.805 86.8601 118.523C86.7052 118.243 86.5161 117.82 86.3162 117.284C86.1122 116.749 85.9254 116.091 85.7723 115.349C85.6318 114.604 85.5332 113.774 85.5197 112.899C85.5152 112.023 85.5967 111.191 85.7219 110.444C85.8592 109.699 86.033 109.037 86.2257 108.498C86.4143 107.958 86.5949 107.531 86.7439 107.248C86.8884 106.963 86.9749 106.809 86.9893 106.817C87.0298 106.836 86.7169 107.469 86.3833 108.549C86.2131 109.088 86.0586 109.744 85.9348 110.48C85.8236 111.217 85.7498 112.036 85.7543 112.897C85.7678 113.757 85.8583 114.574 85.9848 115.309C86.1239 116.042 86.2914 116.694 86.4729 117.23C86.8281 118.303 87.1545 118.929 87.1144 118.949Z" fill="white"/>
<path d="M82.7321 99.5706C82.7055 99.8988 82.3282 100.153 81.8158 100.387C81.3012 100.629 80.6493 100.85 79.9861 101.136C79.3179 101.414 78.743 101.701 78.2495 101.924C77.7583 102.14 77.3355 102.286 77.0555 102.111C76.7876 101.947 76.7255 101.445 77.0384 100.792C77.34 100.144 78.0708 99.3892 79.0766 98.9749C80.0779 98.5472 81.0752 98.554 81.7352 98.7309C82.4052 98.9164 82.7586 99.2554 82.7321 99.5706Z" fill="#263238"/>
<path d="M34.2812 186.071L36.5612 182.495C47.4308 194.434 83.3407 208.634 115.494 176.537C129.303 162.753 128.185 139.457 128.185 139.457L125.439 130.832H128.185C128.185 130.832 136.147 145.514 127.813 164.739C127.813 164.739 119.242 187.523 93.0667 195.795C51.7522 208.851 34.2812 186.071 34.2812 186.071Z" fill="#E8505B"/>
<g opacity="0.7">
<path d="M34.2812 186.071L36.5612 182.495C47.4308 194.434 83.3407 208.634 115.494 176.537C129.303 162.753 128.185 139.457 128.185 139.457L125.439 130.832H128.185C128.185 130.832 136.147 145.514 127.813 164.739C127.813 164.739 119.242 187.523 93.0667 195.795C51.7522 208.851 34.2812 186.071 34.2812 186.071Z" fill="white"/>
</g>
<path d="M33.6627 190.438C41.2848 182.816 41.2848 170.458 33.6627 162.836C26.0406 155.214 13.6828 155.214 6.06074 162.836C-1.56133 170.458 -1.56132 182.816 6.06075 190.438C13.6828 198.06 26.0406 198.06 33.6627 190.438Z" fill="#E8505B"/>
<g opacity="0.7">
<path d="M33.6627 190.438C41.2848 182.816 41.2848 170.458 33.6627 162.836C26.0406 155.214 13.6828 155.214 6.06074 162.836C-1.56133 170.458 -1.56132 182.816 6.06075 190.438C13.6828 198.06 26.0406 198.06 33.6627 190.438Z" fill="white"/>
</g>
<path d="M24.5402 157.662C24.5484 157.664 24.5254 157.791 24.4745 158.033C24.4164 158.295 24.3385 158.647 24.2408 159.089C24.1877 159.32 24.1296 159.575 24.0661 159.851C23.9955 160.128 23.9036 160.425 23.8131 160.746C23.6222 161.385 23.4349 162.124 23.1409 162.912C23.0018 163.309 22.8564 163.724 22.7055 164.157C22.5516 164.589 22.3566 165.026 22.1738 165.485C21.8195 166.409 21.353 167.357 20.8798 168.363C19.879 170.348 18.653 172.469 17.1775 174.57C15.6823 176.659 14.0867 178.518 12.5446 180.12C11.7518 180.899 11.0111 181.653 10.2565 182.293C9.88373 182.618 9.53659 182.946 9.17956 183.235C8.82117 183.521 8.47719 183.795 8.14852 184.058C7.50243 184.596 6.86805 185.017 6.32776 185.409C6.05492 185.601 5.80504 185.786 5.56732 185.944C5.32734 186.095 5.10627 186.234 4.90592 186.361C4.52142 186.6 4.21526 186.79 3.98699 186.931C3.77583 187.059 3.66282 187.123 3.65832 187.116C3.65426 187.109 3.75872 187.032 3.96178 186.891C4.18374 186.74 4.48135 186.538 4.85549 186.285C5.05225 186.153 5.26836 186.009 5.50383 185.852C5.7375 185.688 5.98288 185.499 6.25122 185.302C6.7825 184.902 7.40788 184.473 8.04496 183.928C8.36958 183.663 8.70906 183.385 9.0625 183.097C9.41503 182.806 9.75766 182.475 10.126 182.149C10.8715 181.505 11.6036 180.749 12.3893 179.969C13.9156 178.367 15.4986 176.513 16.9862 174.435C18.4544 172.344 19.68 170.238 20.6867 168.267C21.1626 167.268 21.634 166.327 21.9946 165.411C22.1806 164.955 22.3791 164.522 22.5367 164.094C22.6925 163.665 22.842 163.252 22.9847 162.858C23.2877 162.077 23.4858 161.344 23.688 160.711C23.7843 160.392 23.8825 160.098 23.959 159.824C24.0292 159.549 24.0941 159.297 24.153 159.068C24.2688 158.631 24.3606 158.283 24.429 158.024C24.4939 157.784 24.5321 157.66 24.5402 157.662Z" fill="#E8505B"/>
<path d="M29.156 159.656C29.1641 159.658 29.1375 159.793 29.0799 160.047C29.0151 160.322 28.9273 160.693 28.817 161.16C28.7575 161.404 28.6923 161.672 28.6211 161.964C28.5459 162.256 28.4415 162.568 28.3411 162.906C28.1263 163.579 27.9233 164.358 27.5964 165.185C27.4424 165.603 27.2808 166.04 27.1133 166.494C26.9485 166.951 26.7283 167.406 26.5271 167.888C26.1336 168.858 25.6226 169.852 25.0967 170.903C23.9923 172.979 22.6352 175.187 21.0036 177.357C19.3539 179.515 17.5931 181.417 15.8997 183.047C15.0348 183.844 14.2176 184.606 13.3973 185.255C12.9903 185.583 12.6143 185.921 12.2222 186.207C11.8336 186.497 11.4599 186.774 11.1034 187.04C10.401 187.586 9.71348 188.005 9.13132 188.403C8.55007 188.804 8.0278 189.115 7.59782 189.364C7.1827 189.605 6.85358 189.798 6.61 189.939C6.38308 190.069 6.26197 190.133 6.25792 190.126C6.25387 190.119 6.36687 190.041 6.58614 189.898C6.82386 189.747 7.14488 189.543 7.54964 189.286C7.97151 189.025 8.48568 188.704 9.05838 188.294C9.63243 187.886 10.3114 187.459 11.0048 186.906C11.3573 186.638 11.7265 186.356 12.111 186.064C12.4991 185.776 12.8705 185.436 13.273 185.106C14.0848 184.452 14.8934 183.688 15.7507 182.891C17.4283 181.259 19.1756 179.363 20.8172 177.215C22.4407 175.056 23.7959 172.862 24.9062 170.803C25.4353 169.759 25.9503 168.773 26.3497 167.81C26.5541 167.332 26.7779 166.88 26.9462 166.427C27.1182 165.976 27.2839 165.543 27.442 165.129C27.7774 164.308 27.9908 163.534 28.2168 162.868C28.3226 162.533 28.4334 162.224 28.5149 161.933C28.5932 161.644 28.6648 161.378 28.7301 161.137C28.8584 160.675 28.9602 160.308 29.0353 160.037C29.1065 159.785 29.1483 159.654 29.156 159.656Z" fill="#E8505B"/>
<path d="M33.4337 163.162C33.4414 163.164 33.4067 163.298 33.3333 163.551C33.2514 163.823 33.1406 164.192 33.001 164.655C32.9267 164.897 32.8448 165.163 32.7552 165.452C32.6589 165.741 32.5391 166.05 32.4184 166.384C32.1676 167.05 31.9115 167.82 31.5427 168.637C31.3662 169.05 31.1821 169.482 30.9898 169.93C30.7949 170.379 30.5585 170.83 30.332 171.306C29.8904 172.264 29.3321 173.242 28.7625 174.281C27.5698 176.329 26.1349 178.511 24.4461 180.664C22.7379 182.804 20.9442 184.702 19.2252 186.333C18.3445 187.127 17.5201 187.895 16.6894 188.545C16.2784 188.875 15.8939 189.209 15.5022 189.501C15.1091 189.792 14.7314 190.07 14.3707 190.336C13.6603 190.883 12.9696 191.309 12.3793 191.707C12.0817 191.901 11.8084 192.088 11.5496 192.249C11.2884 192.402 11.0484 192.543 10.8305 192.671C10.4109 192.914 10.0782 193.106 9.83235 193.248C9.60318 193.378 9.48072 193.443 9.47667 193.435C9.47261 193.428 9.58697 193.35 9.80849 193.207C10.0485 193.056 10.3731 192.851 10.7828 192.593C10.9967 192.46 11.2326 192.314 11.4892 192.154C11.7441 191.989 12.0128 191.797 12.3068 191.598C12.8886 191.191 13.5707 190.757 14.2726 190.203C14.6292 189.934 15.0029 189.652 15.3914 189.359C15.7791 189.063 16.1595 188.727 16.5661 188.395C17.3882 187.741 18.2045 186.97 19.0775 186.176C20.7812 184.542 22.5623 182.648 24.2629 180.518C25.9445 178.374 27.378 176.206 28.5761 174.173C29.1484 173.141 29.7107 172.169 30.1582 171.219C30.3879 170.748 30.6274 170.3 30.8259 169.855C31.0222 169.409 31.2109 168.981 31.391 168.572C31.7683 167.762 32.0344 166.998 32.2964 166.338C32.4229 166.007 32.5481 165.701 32.6507 165.415C32.7471 165.129 32.8353 164.865 32.9155 164.627C33.0726 164.169 33.1973 163.805 33.2892 163.538C33.3761 163.289 33.4261 163.16 33.4337 163.162Z" fill="#E8505B"/>
<path d="M38.5393 181.678C38.5317 181.692 38.3777 181.628 38.1049 181.5C37.832 181.372 37.4421 181.178 36.964 180.929C36.0081 180.433 34.7051 179.713 33.2963 178.866C31.8876 178.018 30.6418 177.203 29.7552 176.591C29.3118 176.286 28.9574 176.032 28.7166 175.851C28.4757 175.67 28.3469 175.564 28.3559 175.55C28.3649 175.537 28.5112 175.618 28.7679 175.775C29.0668 175.963 29.4261 176.189 29.8466 176.453C30.7548 177.028 32.0118 177.819 33.4175 178.665C34.8226 179.51 36.1099 180.251 37.0437 180.784C37.4736 181.031 37.8415 181.244 38.1476 181.42C38.407 181.573 38.5465 181.664 38.5393 181.678Z" fill="#E8505B"/>
<path d="M39.3652 177.458C39.3445 177.486 38.8529 177.146 38.0568 176.601C37.2599 176.057 36.1528 175.317 34.8962 174.554C33.6382 173.792 32.473 173.146 31.6288 172.678C30.7842 172.212 30.2624 171.919 30.2777 171.889C30.2849 171.875 30.4249 171.929 30.6721 172.039C30.9193 172.148 31.2727 172.317 31.7058 172.531C32.5712 172.962 33.7539 173.587 35.0178 174.354C36.2807 175.12 37.3788 175.886 38.1532 176.466C38.5399 176.756 38.8484 176.997 39.0564 177.171C39.2644 177.344 39.3751 177.445 39.3652 177.458Z" fill="#E8505B"/>
<path d="M27.3354 194.266C27.2706 194.267 27.118 190.688 26.9946 186.272C26.8712 181.854 26.8235 178.273 26.8883 178.271C26.9532 178.27 27.1058 181.848 27.2292 186.266C27.3525 190.681 27.3998 194.264 27.3354 194.266Z" fill="#E8505B"/>
<path d="M17.7128 196.499C17.6479 196.499 17.5957 194.497 17.5957 192.028C17.5957 189.558 17.6484 187.556 17.7128 187.556C17.7776 187.556 17.8298 189.558 17.8298 192.028C17.8303 194.497 17.7776 196.499 17.7128 196.499Z" fill="#E8505B"/>
<path d="M22.4423 195.985C22.3775 195.984 22.3451 193.058 22.3694 189.45C22.3937 185.84 22.4662 182.916 22.531 182.916C22.5959 182.916 22.6283 185.842 22.604 189.451C22.5792 193.06 22.5067 195.985 22.4423 195.985Z" fill="#E8505B"/>
<path d="M12.4654 180.123C12.4294 180.177 9.88197 178.531 6.77624 176.448C3.66962 174.364 1.18116 172.631 1.21718 172.577C1.2532 172.524 3.80019 174.169 6.90681 176.253C10.0125 178.336 12.5014 180.069 12.4654 180.123Z" fill="#E8505B"/>
<path d="M9.0654 182.915C9.05865 182.93 8.92223 182.883 8.68135 182.787C8.43957 182.692 8.09604 182.539 7.67687 182.34C6.83809 181.942 5.70574 181.334 4.50631 180.58C3.30734 179.824 2.26594 179.075 1.5271 178.515C0.788268 177.955 0.349288 177.585 0.367747 177.56C0.388008 177.533 0.862107 177.856 1.62391 178.38C2.38615 178.905 3.4388 179.629 4.63103 180.381C5.8237 181.132 6.93579 181.758 7.75161 182.193C8.56699 182.627 9.07981 182.883 9.0654 182.915Z" fill="#E8505B"/>
<path d="M20.7837 168.328C20.7891 168.344 20.5446 168.437 20.0966 168.593C19.8742 168.676 19.5968 168.762 19.2709 168.847C18.9467 168.939 18.5771 169.042 18.1606 169.125C17.3349 169.324 16.3326 169.467 15.2178 169.591C14.1004 169.69 12.8658 169.74 11.5709 169.705C10.2761 169.659 9.04736 169.531 7.93753 169.367C6.8313 169.18 5.83943 168.982 5.02406 168.746C4.61254 168.642 4.24785 168.523 3.92773 168.419C3.60581 168.319 3.33252 168.224 3.11281 168.133C2.67067 167.962 2.4298 167.861 2.43565 167.846C2.4415 167.83 2.69319 167.903 3.14252 168.047C3.36584 168.124 3.64228 168.206 3.966 168.294C4.28792 168.386 4.65396 168.493 5.06548 168.585C5.88085 168.8 6.86957 168.979 7.9695 169.153C9.07303 169.305 10.2932 169.425 11.5781 169.471C12.8631 169.506 14.0878 169.462 15.198 169.376C16.3052 169.264 17.3024 169.14 18.1264 168.963C18.5419 168.891 18.9116 168.799 19.2371 168.72C19.5644 168.647 19.8436 168.575 20.0691 168.506C20.5239 168.377 20.7783 168.314 20.7837 168.328Z" fill="#E8505B"/>
<path d="M22.9386 163.277C22.9449 163.292 22.7089 163.401 22.2754 163.586C22.0601 163.683 21.7909 163.785 21.4748 163.896C21.1606 164.011 20.8013 164.139 20.3961 164.256C19.5938 164.516 18.6149 164.746 17.5231 164.97C16.4263 165.17 15.2112 165.342 13.9266 165.433C12.6412 165.513 11.413 165.507 10.2991 165.444C9.18701 165.354 8.18704 165.24 7.3622 165.059C6.94664 164.984 6.57699 164.889 6.25417 164.8C5.9291 164.718 5.65221 164.638 5.43114 164.554C4.98541 164.399 4.74273 164.307 4.74814 164.292C4.75354 164.277 5.00657 164.34 5.45771 164.467C5.68147 164.536 5.96017 164.603 6.28614 164.672C6.60986 164.749 6.97905 164.832 7.39327 164.896C8.21495 165.055 9.20907 165.151 10.3126 165.229C11.4184 165.279 12.6363 165.279 13.9118 165.199C15.1864 165.109 16.393 164.945 17.4844 164.757C18.5708 164.547 19.5469 164.335 20.3502 164.097C20.7558 163.991 21.1165 163.875 21.433 163.772C21.7513 163.674 22.0241 163.584 22.2434 163.501C22.6846 163.343 22.9323 163.262 22.9386 163.277Z" fill="#E8505B"/>
<path d="M24.272 158.83C24.2774 158.846 24.0649 158.933 23.6759 159.078C23.2878 159.226 22.7182 159.419 22.0087 159.637C20.59 160.075 18.595 160.585 16.3488 160.912C14.1007 161.236 12.0395 161.299 10.5547 161.238C9.81223 161.209 9.21207 161.164 8.8001 161.112C8.38724 161.064 8.16032 161.03 8.16212 161.014C8.16392 160.997 8.39354 161.001 8.80731 161.021C9.22063 161.045 9.81944 161.064 10.5587 161.072C12.0373 161.09 14.0818 161.002 16.3154 160.68C18.5477 160.355 20.5373 159.874 21.9627 159.478C22.6759 159.281 23.2513 159.113 23.6475 158.992C24.0442 158.874 24.2666 158.815 24.272 158.83Z" fill="#E8505B"/>
<path d="M32.1571 178.034C32.2048 178.078 31.0869 179.379 29.6601 180.94C28.2329 182.501 27.0375 183.731 26.9898 183.687C26.942 183.643 28.06 182.343 29.4872 180.781C30.9136 179.221 32.1094 177.991 32.1571 178.034Z" fill="#E8505B"/>
<path d="M35.904 180.249C35.9175 180.258 35.8445 180.392 35.7 180.627C35.5577 180.864 35.3335 181.195 35.0413 181.593C34.4569 182.389 33.5663 183.435 32.4326 184.435C31.2967 185.434 30.1459 186.185 29.2828 186.664C28.851 186.903 28.4944 187.084 28.2414 187.195C27.9897 187.308 27.8474 187.364 27.8402 187.349C27.8231 187.315 28.363 187.033 29.199 186.521C30.0342 186.009 31.1558 185.245 32.2782 184.259C33.3979 183.271 34.2971 182.255 34.9103 181.492C35.524 180.727 35.8724 180.228 35.904 180.249Z" fill="#E8505B"/>
<path d="M37.0433 182.248C37.0996 182.246 36.9947 183.475 36.2612 184.774C35.5391 186.079 34.5476 186.812 34.5197 186.763C34.468 186.71 35.3603 185.921 36.0564 184.659C36.7669 183.405 36.9713 182.232 37.0433 182.248Z" fill="#E8505B"/>
<path d="M40.8213 186.383C40.8784 186.392 40.6389 187.382 39.865 188.336C39.0987 189.298 38.1842 189.744 38.1635 189.69C38.1234 189.63 38.9492 189.112 39.6822 188.189C40.425 187.275 40.7533 186.357 40.8213 186.383Z" fill="#E8505B"/>
<path d="M46.9034 190.105C46.9606 190.098 46.9466 191.179 46.319 192.315C45.7022 193.457 44.8004 194.052 44.7756 194C44.7265 193.946 45.5257 193.295 46.1132 192.202C46.7143 191.118 46.8309 190.094 46.9034 190.105Z" fill="#E8505B"/>
<path d="M53.9184 193.481C53.9728 193.46 54.1633 194.494 53.7 195.658C53.2493 196.828 52.4074 197.458 52.3817 197.405C52.3281 197.355 53.0575 196.681 53.4816 195.573C53.9229 194.471 53.845 193.481 53.9184 193.481Z" fill="#E8505B"/>
<path d="M60.374 199.238C60.3064 199.216 60.5788 198.347 60.6405 197.24C60.7116 196.132 60.5455 195.237 60.6148 195.223C60.6707 195.204 60.9471 196.107 60.8746 197.254C60.8098 198.4 60.4271 199.263 60.374 199.238Z" fill="#E8505B"/>
<path d="M65.6649 199.624C65.5992 199.596 65.9265 198.815 66.0111 197.794C66.107 196.774 65.922 195.948 65.9913 195.932C66.0454 195.91 66.3434 196.746 66.2444 197.815C66.1543 198.884 65.7144 199.655 65.6649 199.624Z" fill="#E8505B"/>
<path d="M73.0662 199.554C72.9969 199.543 73.1081 198.784 72.9861 197.862C72.8735 196.939 72.5755 196.232 72.6399 196.204C72.6903 196.173 73.0991 196.865 73.2189 197.833C73.3449 198.799 73.123 199.572 73.0662 199.554Z" fill="#E8505B"/>
<path d="M78.1817 199.141C78.1114 199.14 78.1087 198.416 77.8665 197.572C77.6328 196.726 77.2578 196.106 77.3168 196.068C77.3622 196.03 77.8453 196.619 78.0921 197.508C78.3455 198.396 78.2406 199.15 78.1817 199.141Z" fill="#E8505B"/>
<path d="M84.181 197.807C84.1108 197.803 84.1454 197.1 83.8811 196.294C83.6277 195.486 83.19 194.934 83.245 194.889C83.2832 194.843 83.8316 195.36 84.104 196.222C84.3845 197.083 84.2386 197.822 84.181 197.807Z" fill="#E8505B"/>
<path d="M91.5705 196.304C91.4993 196.304 91.4921 195.514 91.1603 194.62C90.8393 193.722 90.3359 193.112 90.3909 193.067C90.4282 193.022 91.0397 193.592 91.3809 194.54C91.7294 195.484 91.6286 196.315 91.5705 196.304Z" fill="#E8505B"/>
<path d="M97.815 193.869C97.747 193.889 97.4994 193.073 96.9676 192.183C96.4431 191.289 95.8479 190.68 95.8974 190.63C95.9339 190.583 96.6241 191.136 97.1693 192.064C97.7209 192.988 97.8735 193.86 97.815 193.869Z" fill="#E8505B"/>
<path d="M104.77 190.221C104.7 190.239 104.491 189.377 103.922 188.468C103.363 187.552 102.686 186.98 102.733 186.925C102.762 186.875 103.536 187.387 104.122 188.344C104.716 189.296 104.828 190.218 104.77 190.221Z" fill="#E8505B"/>
<path d="M111.573 185.346C111.505 185.371 111.237 184.584 110.578 183.835C109.929 183.077 109.188 182.701 109.222 182.637C109.236 182.58 110.066 182.879 110.755 183.681C111.452 184.476 111.631 185.34 111.573 185.346Z" fill="#E8505B"/>
<path d="M117.399 180.371C117.342 180.412 116.8 179.687 115.981 178.946C115.167 178.198 114.396 177.726 114.431 177.665C114.456 177.611 115.301 178.003 116.139 178.772C116.981 179.536 117.45 180.341 117.399 180.371Z" fill="#E8505B"/>
<path d="M122.616 173.88C122.555 173.917 122.107 173.189 121.312 172.525C120.525 171.853 119.731 171.533 119.758 171.467C119.77 171.41 120.637 171.643 121.464 172.346C122.296 173.043 122.67 173.858 122.616 173.88Z" fill="#E8505B"/>
<path d="M127.265 166.161C127.213 166.21 126.601 165.522 125.624 164.992C124.653 164.451 123.745 164.303 123.758 164.232C123.756 164.173 124.719 164.222 125.737 164.787C126.759 165.344 127.315 166.132 127.265 166.161Z" fill="#E8505B"/>
<path d="M130.095 157.817C130.055 157.877 129.282 157.303 128.157 157.046C127.035 156.774 126.088 156.943 126.079 156.87C126.055 156.817 127.029 156.533 128.211 156.818C129.395 157.091 130.14 157.78 130.095 157.817Z" fill="#E8505B"/>
<path d="M131.351 148.857C131.326 148.923 130.593 148.667 129.653 148.567C128.713 148.459 127.942 148.549 127.932 148.48C127.917 148.422 128.7 148.223 129.678 148.334C130.657 148.439 131.378 148.804 131.351 148.857Z" fill="#E8505B"/>
<path d="M130.885 139.884C130.875 139.951 130.306 139.903 129.61 139.936C128.913 139.965 128.352 140.064 128.334 139.999C128.316 139.94 128.874 139.733 129.599 139.702C130.324 139.668 130.898 139.824 130.885 139.884Z" fill="#E8505B"/>
<path d="M129.047 133.719C129.018 133.782 128.449 133.511 127.714 133.599C126.977 133.67 126.479 134.057 126.438 134C126.419 133.979 126.517 133.848 126.734 133.702C126.948 133.556 127.29 133.41 127.689 133.366C128.088 133.324 128.453 133.394 128.694 133.491C128.937 133.587 129.061 133.694 129.047 133.719Z" fill="#E8505B"/>
<g opacity="0.3">
<path d="M98.5137 164.015C100.7 168.163 105.791 170.292 110.446 169.726C115.102 169.16 119.247 166.262 122.139 162.57C124.275 159.843 125.863 156.308 124.978 152.959C122.694 157.699 118.571 161.523 113.673 163.445C108.775 165.366 103.151 165.364 98.2539 163.441" fill="black"/>
</g>
<path d="M125.762 128.326C124.729 126.733 124.338 124.737 124.692 122.872C125.047 121.008 126.144 119.295 127.69 118.193C128.932 117.306 130.431 116.811 131.607 115.838C133.076 114.623 133.904 112.734 134.038 110.832C134.174 108.93 133.661 107.02 132.807 105.315L134.06 104.697C134.06 104.697 134.098 104.744 134.167 104.833C137.73 109.469 136.111 116.205 130.866 118.789C129.843 119.292 128.874 119.852 128.238 120.407C126.677 121.768 127.315 123.291 127.315 123.291" fill="#E8505B"/>
<g opacity="0.7">
<path d="M125.762 128.326C124.729 126.733 124.338 124.737 124.692 122.872C125.047 121.008 126.144 119.295 127.69 118.193C128.932 117.306 130.431 116.811 131.607 115.838C133.076 114.623 133.904 112.734 134.038 110.832C134.174 108.93 133.661 107.02 132.807 105.315L134.06 104.697C134.06 104.697 134.098 104.744 134.167 104.833C137.73 109.469 136.111 116.205 130.866 118.789C129.843 119.292 128.874 119.852 128.238 120.407C126.677 121.768 127.315 123.291 127.315 123.291" fill="white"/>
</g>
<path d="M127.539 123.375C127.513 123.441 126.845 123.15 125.987 123.237C125.126 123.307 124.522 123.715 124.485 123.655C124.437 123.617 125.029 123.084 125.965 123.003C126.9 122.912 127.579 123.329 127.539 123.375Z" fill="#E8505B"/>
<path d="M128.698 119.937C128.635 119.962 128.438 119.571 128.066 119.2C127.699 118.825 127.309 118.624 127.335 118.561C127.351 118.502 127.824 118.62 128.232 119.036C128.644 119.447 128.758 119.921 128.698 119.937Z" fill="#E8505B"/>
<path d="M133.118 117.329C133.052 117.348 132.888 116.915 132.535 116.488C132.189 116.055 131.798 115.807 131.83 115.746C131.852 115.689 132.333 115.863 132.717 116.34C133.105 116.813 133.178 117.32 133.118 117.329Z" fill="#E8505B"/>
<path d="M136.092 111.726C136.064 111.788 135.626 111.638 135.071 111.567C134.516 111.491 134.054 111.524 134.043 111.457C134.029 111.397 134.505 111.254 135.101 111.335C135.698 111.412 136.121 111.672 136.092 111.726Z" fill="#E8505B"/>
<path d="M135.071 106.314C135.06 106.381 134.69 106.362 134.267 106.486C133.842 106.603 133.538 106.814 133.493 106.763C133.447 106.722 133.719 106.396 134.203 106.261C134.687 106.121 135.089 106.255 135.071 106.314Z" fill="#E8505B"/>
<path d="M93.3965 139.646C94.9912 138.608 97.1028 138.95 98.9096 139.549C100.716 140.149 102.538 140.979 104.433 140.799C106.497 140.603 108.266 139.228 109.632 137.669C111.311 135.752 112.574 133.471 113.308 131.03C114.058 128.534 114.438 125.6 116.587 124.125C118.682 122.686 121.715 123.393 123.563 125.139C125.41 126.884 126.3 129.406 126.883 131.879C128.233 137.606 128.257 143.717 126.405 149.301C124.552 154.886 120.734 159.898 115.559 162.697C110.383 165.496 103.852 165.899 98.5836 163.278" fill="#E8505B"/>
<path d="M98.5832 163.276C98.5832 163.276 98.6674 163.305 98.8263 163.373C98.9925 163.446 99.2257 163.548 99.5282 163.68C99.8416 163.802 100.233 163.945 100.697 164.107C101.169 164.245 101.71 164.419 102.336 164.546C103.582 164.819 105.144 165.016 106.957 164.954C107.862 164.91 108.83 164.826 109.838 164.624C110.849 164.441 111.901 164.155 112.97 163.759C115.117 162.993 117.305 161.704 119.324 159.942C121.34 158.178 123.168 155.912 124.587 153.251C126.012 150.595 126.994 147.536 127.441 144.285C127.9 141.034 127.804 137.597 127.226 134.166C126.924 132.452 126.549 130.763 125.961 129.178C125.366 127.605 124.52 126.118 123.289 125.05C122.069 123.993 120.465 123.397 118.914 123.475C118.138 123.504 117.386 123.749 116.75 124.152C116.106 124.554 115.604 125.137 115.217 125.77C114.442 127.051 114.11 128.511 113.732 129.887C113.377 131.278 112.918 132.614 112.31 133.822C111.709 135.035 110.993 136.138 110.207 137.118C109.422 138.096 108.565 138.964 107.615 139.625C106.671 140.286 105.625 140.733 104.583 140.852C103.54 140.978 102.554 140.789 101.679 140.543C99.9271 140.026 98.4977 139.36 97.232 139.157C95.9772 138.913 94.9669 139.026 94.3303 139.228C94.012 139.333 93.7783 139.44 93.6275 139.522C93.4771 139.606 93.3965 139.644 93.3965 139.644C93.3965 139.644 93.4685 139.593 93.6157 139.501C93.7639 139.412 93.9962 139.296 94.3154 139.182C94.9548 138.963 95.979 138.834 97.2482 139.067C98.5287 139.259 99.9753 139.916 101.714 140.417C102.583 140.655 103.552 140.832 104.565 140.704C105.577 140.582 106.595 140.143 107.519 139.489C108.449 138.836 109.291 137.976 110.065 137.005C110.84 136.033 111.544 134.939 112.134 133.737C112.734 132.537 113.182 131.223 113.532 129.834C113.908 128.458 114.234 126.984 115.032 125.657C115.43 125.002 115.954 124.39 116.63 123.967C117.3 123.54 118.091 123.283 118.901 123.251C119.709 123.21 120.531 123.339 121.301 123.625C122.073 123.906 122.807 124.322 123.438 124.876C124.71 125.978 125.574 127.5 126.178 129.095C126.775 130.704 127.152 132.401 127.456 134.126C128.038 137.58 128.133 141.041 127.668 144.317C127.214 147.592 126.22 150.677 124.776 153.353C123.34 156.034 121.491 158.315 119.451 160.089C117.409 161.86 115.195 163.152 113.025 163.915C111.946 164.31 110.884 164.592 109.864 164.771C108.847 164.969 107.871 165.047 106.96 165.085C105.134 165.135 103.564 164.923 102.315 164.635C101.687 164.501 101.145 164.319 100.674 164.173C100.21 164.004 99.82 163.853 99.5084 163.723C99.209 163.582 98.979 163.473 98.8142 163.395C98.6602 163.32 98.5832 163.276 98.5832 163.276Z" fill="#263238"/>
<path d="M117.963 129.409C117.946 129.425 117.689 129.191 117.422 128.705C117.153 128.223 116.914 127.47 116.924 126.618C116.938 125.765 117.198 125.019 117.481 124.545C117.762 124.066 118.025 123.84 118.042 123.856C118.074 123.882 117.86 124.144 117.627 124.622C117.393 125.098 117.173 125.811 117.159 126.621C117.15 127.431 117.35 128.149 117.571 128.632C117.789 129.116 117.995 129.384 117.963 129.409Z" fill="#263238"/>
<path d="M120.695 129.011C120.673 129.025 120.456 128.763 120.218 128.268C119.979 127.776 119.746 127.04 119.694 126.201C119.644 125.361 119.786 124.601 119.963 124.084C120.139 123.564 120.323 123.277 120.346 123.289C120.42 123.311 119.815 124.551 119.928 126.186C120.014 127.823 120.766 128.98 120.695 129.011Z" fill="#263238"/>
<path d="M122.88 129.8C122.825 129.82 122.504 128.865 122.54 127.638C122.567 126.411 122.937 125.473 122.99 125.496C123.059 125.516 122.8 126.456 122.774 127.644C122.738 128.831 122.949 129.784 122.88 129.8Z" fill="#263238"/>
<path d="M160.471 135.415C156.353 137.927 150.872 137.449 146.604 135.195C142.336 132.941 139.104 129.164 136.408 125.198C135.642 124.072 134.866 122.88 133.677 122.202C131.343 120.87 128.112 122.156 126.772 124.463C125.432 126.771 125.68 129.709 126.716 132.164C126.716 132.164 129.464 145.471 143.78 153.749" fill="#E8505B"/>
<path d="M143.781 153.752C143.78 153.755 143.739 153.733 143.66 153.687C143.573 153.636 143.458 153.567 143.311 153.479C142.996 153.286 142.547 153.011 141.97 152.656C141.682 152.469 141.342 152.29 141.006 152.038C140.666 151.789 140.297 151.519 139.899 151.229C139.509 150.929 139.059 150.645 138.637 150.273C138.209 149.907 137.755 149.52 137.277 149.113C135.411 147.435 133.304 145.235 131.374 142.407C130.392 141.007 129.49 139.433 128.661 137.733C127.844 136.026 127.095 134.19 126.607 132.19L126.613 132.211C125.983 130.701 125.61 128.984 125.782 127.227C125.881 126.355 126.104 125.473 126.531 124.674C126.939 123.863 127.572 123.164 128.325 122.634C129.432 121.856 130.798 121.434 132.127 121.588C132.789 121.661 133.425 121.902 133.978 122.253C134.527 122.613 134.983 123.082 135.383 123.574C135.783 124.068 136.131 124.589 136.477 125.099C136.824 125.608 137.173 126.107 137.526 126.596C138.235 127.572 138.963 128.501 139.717 129.371C141.221 131.113 142.832 132.613 144.503 133.791C146.174 134.967 147.899 135.825 149.565 136.32C152.902 137.353 155.83 137.103 157.683 136.571C157.92 136.514 158.139 136.445 158.341 136.369C158.543 136.296 158.736 136.235 158.91 136.165C159.252 136.011 159.548 135.896 159.775 135.777C159.994 135.661 160.166 135.571 160.292 135.504C160.409 135.444 160.47 135.415 160.472 135.418C160.474 135.422 160.417 135.458 160.304 135.525C160.18 135.596 160.012 135.694 159.797 135.819C159.572 135.945 159.277 136.067 158.937 136.229C158.763 136.304 158.571 136.368 158.368 136.445C158.166 136.524 157.946 136.598 157.709 136.659C155.848 137.221 152.894 137.501 149.517 136.478C147.831 135.989 146.082 135.129 144.391 133.95C142.7 132.768 141.071 131.261 139.553 129.512C138.793 128.638 138.058 127.706 137.345 126.726C136.99 126.236 136.638 125.735 136.289 125.225C135.942 124.715 135.596 124.2 135.204 123.718C134.813 123.237 134.373 122.787 133.85 122.446C133.325 122.114 132.729 121.888 132.099 121.818C130.839 121.673 129.524 122.075 128.459 122.824C126.967 123.828 126.182 125.562 126.013 127.25C125.844 128.956 126.204 130.64 126.821 132.122L126.825 132.13L126.828 132.142C127.303 134.107 128.046 135.944 128.852 137.64C129.671 139.332 130.563 140.9 131.534 142.296C133.442 145.117 135.526 147.319 137.372 149.005C137.845 149.416 138.294 149.805 138.717 150.173C139.135 150.548 139.579 150.835 139.966 151.139C140.359 151.433 140.723 151.707 141.059 151.959C141.391 152.215 141.728 152.399 142.012 152.591C142.58 152.958 143.021 153.244 143.331 153.444C143.473 153.539 143.585 153.613 143.67 153.669C143.745 153.722 143.783 153.749 143.781 153.752Z" fill="#263238"/>
<path d="M130.59 129.739C130.515 129.763 130.237 128.211 129.164 126.649C128.11 125.073 126.77 124.242 126.82 124.181C126.834 124.159 127.184 124.333 127.683 124.719C128.182 125.102 128.814 125.719 129.358 126.518C129.899 127.318 130.238 128.133 130.41 128.738C130.584 129.345 130.616 129.735 130.59 129.739Z" fill="#263238"/>
<path d="M133.381 127.935C133.303 127.948 133.257 126.347 132.408 124.621C131.581 122.883 130.354 121.855 130.412 121.802C130.429 121.782 130.756 122.007 131.201 122.467C131.646 122.925 132.191 123.637 132.619 124.519C133.045 125.402 133.265 126.27 133.348 126.903C133.433 127.537 133.407 127.934 133.381 127.935Z" fill="#263238"/>
<g opacity="0.3">
<path d="M124.062 154.36C125.184 152.646 120.564 152.24 118.529 152.475C115.583 152.815 112.782 154.282 110.824 156.51C108.868 158.739 107.774 161.707 107.818 164.672C107.818 164.672 116.688 165.625 124.062 154.36Z" fill="white"/>
</g>
<g opacity="0.3">
<path d="M131.65 146.701C133.959 150.261 137.492 153.011 141.511 154.375C141.943 154.522 142.403 154.655 142.851 154.564C143.298 154.473 143.718 154.084 143.685 153.628C138.892 151.029 134.729 147.276 131.648 142.777C131.41 144.151 131.611 145.596 132.215 146.852" fill="black"/>
</g>
<path d="M125.456 116.317C129.421 112.352 129.421 105.925 125.456 101.961C121.492 97.9962 115.064 97.9962 111.1 101.961C107.136 105.925 107.136 112.352 111.1 116.317C115.064 120.281 121.492 120.281 125.456 116.317Z" fill="#F5F5F5"/>
<path d="M128.432 109.568C128.432 114.469 125.86 118.562 122.99 118.562C120.121 118.562 117.795 114.588 117.795 109.687C117.795 104.786 120.121 100.812 122.99 100.812C125.86 100.813 128.432 104.667 128.432 109.568Z" fill="#263238"/>
<path d="M120.451 113.775C120.437 113.782 120.365 113.663 120.246 113.439C120.123 113.218 119.976 112.881 119.824 112.455C119.517 111.603 119.252 110.357 119.286 108.967C119.326 107.577 119.659 106.347 120.011 105.513C120.186 105.095 120.351 104.767 120.485 104.553C120.616 104.336 120.695 104.221 120.709 104.229C120.746 104.25 120.471 104.735 120.166 105.573C119.859 106.409 119.56 107.615 119.521 108.974C119.487 110.333 119.72 111.553 119.982 112.404C120.241 113.257 120.489 113.756 120.451 113.775Z" fill="white"/>
<path d="M124.275 105.744C125.234 105.744 126.012 104.967 126.012 104.007C126.012 103.047 125.234 102.27 124.275 102.27C123.315 102.27 122.537 103.047 122.537 104.007C122.537 104.967 123.315 105.744 124.275 105.744Z" fill="white"/>
<path d="M124.852 96.6081C124.657 96.8747 124.17 96.8679 123.55 96.7698C122.925 96.6734 122.16 96.4906 121.325 96.3542C120.49 96.2133 119.731 96.1394 119.119 96.0548C118.513 95.9656 118.046 95.8486 117.924 95.5411C117.807 95.2493 118.093 94.7968 118.781 94.4317C119.122 94.2439 119.562 94.1084 120.064 94.0224C120.566 93.949 121.132 93.9468 121.71 94.0413C122.871 94.2309 123.808 94.7815 124.341 95.3124C124.88 95.8522 125.039 96.3537 124.852 96.6081Z" fill="#263238"/>
<path d="M120.253 121.818C118.697 118.632 119.853 114.377 122.807 112.416C125.76 110.455 130.13 111.041 132.463 113.712" fill="#E8505B"/>
<path d="M132.462 113.713C132.445 113.728 132.244 113.509 131.843 113.162C131.444 112.812 130.805 112.368 129.936 111.994C129.069 111.617 127.95 111.351 126.701 111.371C125.456 111.386 124.078 111.73 122.872 112.515C121.68 113.322 120.828 114.459 120.331 115.6C119.827 116.744 119.639 117.879 119.65 118.823C119.657 119.77 119.818 120.531 119.986 121.034C120.15 121.539 120.275 121.809 120.253 121.819C120.246 121.822 120.21 121.758 120.147 121.631C120.092 121.501 119.98 121.321 119.899 121.064C119.703 120.563 119.513 119.793 119.484 118.826C119.452 117.86 119.626 116.694 120.133 115.513C120.633 114.336 121.507 113.156 122.743 112.319C123.993 111.506 125.42 111.159 126.698 111.154C127.983 111.146 129.126 111.438 130.003 111.842C130.883 112.244 131.519 112.718 131.904 113.093C132.11 113.268 132.233 113.441 132.331 113.542C132.423 113.649 132.469 113.707 132.462 113.713Z" fill="#263238"/>
<path d="M100.092 83.3697C100.094 83.3779 100.014 83.4044 99.8612 83.4481C99.682 83.4958 99.4605 83.5552 99.1899 83.6277C98.8964 83.6971 98.5429 83.8015 98.1337 83.9271C97.927 83.9888 97.7082 84.0537 97.4772 84.1225C97.2467 84.2018 97.0045 84.2851 96.751 84.372C94.7123 85.0608 91.9794 86.2724 89.1776 87.991C86.3627 89.6915 84.0098 91.5307 82.3331 92.8828C81.5011 93.568 80.8293 94.1263 80.3732 94.5207C80.1585 94.7004 79.982 94.8476 79.8397 94.9665C79.7159 95.0664 79.6483 95.1159 79.6429 95.1101C79.6375 95.1042 79.6947 95.0426 79.8082 94.9314C79.9428 94.8035 80.1094 94.6455 80.3129 94.4527C80.751 94.0367 81.407 93.4586 82.2277 92.7554C83.881 91.3677 86.2272 89.5002 89.0565 87.7906C91.8727 86.0631 94.6367 84.8663 96.6992 84.2148C96.9558 84.1329 97.2012 84.0546 97.4344 83.9798C97.6686 83.9168 97.8901 83.8569 98.0994 83.8006C98.5137 83.6867 98.872 83.5949 99.1697 83.5386C99.4447 83.4832 99.6703 83.4382 99.8522 83.4017C100.008 83.3729 100.09 83.3616 100.092 83.3697Z" fill="#263238"/>
<path d="M34.7997 28.3892C34.7839 28.3937 34.7195 28.2055 34.6155 27.8602C34.561 27.6882 34.5007 27.4757 34.4494 27.2245C34.3953 26.9742 34.322 26.6905 34.2787 26.3704C34.1653 25.7347 34.0919 24.9666 34.0694 24.112C34.0604 23.2575 34.1103 22.316 34.258 21.3395C34.4147 20.3642 34.6538 19.4521 34.9226 18.6407C35.204 17.8335 35.5079 17.1243 35.8091 16.553C35.9478 16.2612 36.104 16.0136 36.2314 15.7916C36.357 15.5683 36.479 15.3842 36.583 15.237C36.787 14.9398 36.9059 14.7804 36.9194 14.7894C36.9576 14.8142 36.5092 15.4733 35.9572 16.6268C35.6776 17.2018 35.3935 17.9087 35.127 18.7092C34.873 19.5137 34.6439 20.4142 34.4894 21.3764C34.344 22.3394 34.2882 23.2665 34.2855 24.1102C34.2958 24.9539 34.3512 25.7135 34.4426 26.3461C34.6173 27.6126 34.8433 28.3771 34.7997 28.3892Z" fill="#263238"/>
<path d="M141.131 0.831192L43.5039 18.9941L53.7203 73.9082L151.347 55.7452L141.131 0.831192Z" fill="white"/>
<path d="M151.354 55.7389C151.354 55.7389 151.285 55.403 151.161 54.756C151.039 54.1068 150.856 53.1469 150.618 51.8907C150.144 49.3748 149.448 45.6734 148.553 40.918C146.773 31.4136 144.204 17.698 141.046 0.839864L141.151 0.911902C115.085 5.76995 80.8756 12.1457 43.5344 19.105L43.5272 19.1064L43.6208 18.9695C47.2322 38.3922 50.6859 56.9654 53.8322 73.8866L53.7048 73.7992C82.2907 68.5017 106.688 63.9805 123.942 60.7829C132.577 59.1891 139.423 57.9253 144.114 57.0594C146.46 56.629 148.266 56.2972 149.49 56.073C150.1 55.9627 150.564 55.8785 150.879 55.8213C151.191 55.7646 151.354 55.7389 151.354 55.7389C151.354 55.7389 151.201 55.7718 150.894 55.8312C150.582 55.8906 150.123 55.9784 149.52 56.0937C148.302 56.3233 146.505 56.6623 144.171 57.1027C139.488 57.9811 132.654 59.2634 124.034 60.8802C106.767 64.1065 82.3524 68.6688 53.7453 74.014L53.6377 74.0342L53.6179 73.9266C50.4667 57.0068 47.0079 38.4341 43.3908 19.0127L43.3691 18.8975L43.4844 18.8759L43.4916 18.8745C80.8369 11.9355 115.05 5.5786 141.118 0.734959L141.207 0.71875L141.223 0.806997C144.345 17.6953 146.886 31.4352 148.646 40.9568C149.52 45.7072 150.2 49.4045 150.663 51.9182C150.891 53.169 151.066 54.1248 151.183 54.7709C151.3 55.4134 151.354 55.7389 151.354 55.7389Z" fill="#263238"/>
<path d="M85.5003 40.0393L82.5067 40.5963L83.2248 44.4534L77.6689 45.4872L76.9508 41.63L66.3 43.6119L65.6094 39.8989L72.3071 25.6372L78.2083 24.5391L72.1954 37.839L76.2831 37.0786L75.6456 33.6536L81.0286 32.6514L81.6661 36.0768L84.6593 35.5199L85.5003 40.0393Z" fill="#263238"/>
<path d="M85.4967 33.6055C84.2594 26.9559 87.2895 22.4315 92.442 21.4725C97.5657 20.5189 102.021 23.6512 103.258 30.3003C104.496 36.9503 101.466 41.4751 96.3419 42.4287C91.189 43.3877 86.7344 40.2555 85.4967 33.6055ZM97.5288 31.3669C96.7413 27.1356 95.1227 25.7984 93.3092 26.1361C91.4668 26.4791 90.438 28.3085 91.225 32.5402C92.0125 36.7715 93.6311 38.1087 95.4734 37.7657C97.287 37.428 98.3162 35.5982 97.5288 31.3669Z" fill="#263238"/>
<path d="M125.371 32.619L122.378 33.1759L123.096 37.0331L117.54 38.0668L116.822 34.2096L106.172 36.1916L105.48 32.4785L112.178 18.2168L118.08 17.1191L112.067 30.4186L116.155 29.6582L115.517 26.2333L120.9 25.231L121.537 28.6564L124.531 28.0995L125.371 32.619Z" fill="#263238"/>
<path d="M87.486 56.2857L87.6688 57.2686L81.9323 58.3361L80.4609 50.4308L86.0398 49.3926L86.2226 50.375L81.7729 51.203L82.2245 53.6311L86.1888 52.8936L86.3671 53.8535L82.4033 54.591L82.8782 57.1429L87.486 56.2857Z" fill="#263238"/>
<path d="M94.7821 55.9458L92.625 53.8351C92.4688 53.8756 92.3017 53.9188 92.1324 53.9499L90.1784 54.3137L90.626 56.7193L89.4968 56.9296L88.0254 49.0243L91.1086 48.4507C93.1639 48.0685 94.5993 48.8762 94.919 50.5925C95.1459 51.8122 94.6772 52.8103 93.6443 53.4119L96.013 55.7171L94.7821 55.9458ZM93.7902 50.8023C93.5799 49.6731 92.7038 49.1697 91.2581 49.439L89.3383 49.796L90.0001 53.3533L91.9204 52.9958C93.3656 52.7275 94.0005 51.9319 93.7902 50.8023Z" fill="#263238"/>
<path d="M102.989 54.4167L100.832 52.306C100.676 52.3465 100.509 52.3897 100.339 52.4212L98.3859 52.7846L98.8334 55.1902L97.7038 55.4004L96.2324 47.4952L99.3156 46.9216C101.371 46.5389 102.807 47.3466 103.126 49.0634C103.353 50.2831 102.885 51.2812 101.851 51.8827L104.22 54.188L102.989 54.4167ZM101.997 49.2736C101.787 48.1444 100.911 47.6415 99.4651 47.9103L97.5453 48.2674L98.2076 51.8247L100.127 51.4676C101.573 51.1988 102.207 50.4028 101.997 49.2736Z" fill="#263238"/>
<path d="M104.532 50.0411C104.101 47.726 105.564 45.6661 107.992 45.2146C110.397 44.767 112.501 46.1515 112.934 48.4779C113.367 50.8042 111.902 52.8528 109.497 53.3003C107.069 53.7519 104.962 52.3566 104.532 50.0411ZM111.804 48.6877C111.478 46.9371 109.929 45.8935 108.178 46.2195C106.405 46.5495 105.335 48.0807 105.661 49.8308C105.986 51.5813 107.536 52.625 109.309 52.295C111.06 51.9694 112.13 50.4382 111.804 48.6877Z" fill="#263238"/>
<path d="M120.681 51.1255L118.524 49.0148C118.368 49.0553 118.2 49.0985 118.031 49.1296L116.077 49.4934L116.525 51.899L115.395 52.1092L113.924 44.204L117.007 43.6304C119.062 43.2482 120.498 44.0559 120.817 45.7722C121.044 46.9919 120.576 47.99 119.543 48.5915L121.911 50.8968L120.681 51.1255ZM119.688 45.9824C119.478 44.8532 118.602 44.3499 117.157 44.6191L115.237 44.9762L115.899 48.5335L117.819 48.176C119.264 47.9072 119.898 47.1116 119.688 45.9824Z" fill="#263238"/>
<path d="M139.077 6.77458C139.121 7.89747 138.247 8.84342 137.124 8.88754C136.001 8.93166 135.055 8.05776 135.011 6.93487C134.967 5.81198 135.841 4.86604 136.964 4.82191C138.087 4.77779 139.033 5.6517 139.077 6.77458Z" fill="#E0E0E0"/>
<path d="M139.077 6.77423C139.054 6.77604 139.049 6.59414 138.95 6.29338C138.851 5.99803 138.626 5.5721 138.162 5.25784C137.713 4.94223 136.993 4.78689 136.317 5.07234C135.645 5.33618 135.087 6.08447 135.128 6.92957C135.154 7.77556 135.769 8.47748 136.459 8.68819C137.156 8.91916 137.862 8.708 138.285 8.35771C138.723 8.00833 138.914 7.56575 138.988 7.26364C139.063 6.95613 139.054 6.77423 139.077 6.77423C139.085 6.77378 139.092 6.81836 139.099 6.90435C139.107 6.99035 139.104 7.11912 139.077 7.2821C139.027 7.60312 138.851 8.08847 138.39 8.48513C137.946 8.88179 137.173 9.13887 136.393 8.89349C135.621 8.67288 134.921 7.88902 134.893 6.93857C134.847 5.98902 135.482 5.15294 136.234 4.87199C136.992 4.56628 137.783 4.76168 138.257 5.12187C138.747 5.48116 138.961 5.9512 139.037 6.26727C139.076 6.42755 139.089 6.55587 139.088 6.64232C139.089 6.72921 139.085 6.77378 139.077 6.77423Z" fill="#263238"/>
<path d="M137.943 5.36341C138.001 5.35171 138.078 6.11936 137.665 6.94059C137.26 7.76632 136.603 8.16973 136.577 8.11615C136.531 8.06213 137.081 7.60514 137.455 6.83658C137.841 6.07389 137.872 5.35981 137.943 5.36341Z" fill="#263238"/>
<path d="M138.342 7.51762C138.283 7.55139 138.014 7.01471 137.402 6.70089C136.793 6.38123 136.2 6.47082 136.194 6.40284C136.187 6.37357 136.328 6.30874 136.574 6.29118C136.818 6.27227 137.17 6.31594 137.51 6.49243C137.85 6.66848 138.089 6.93141 138.214 7.14167C138.342 7.35374 138.369 7.50591 138.342 7.51762Z" fill="#263238"/>
<path d="M47.8347 33.6332L42.7129 37.7168L44.5595 40.0329L49.6813 35.9493L47.8347 33.6332Z" fill="#E0E0E0"/>
<path d="M49.6796 35.947C49.663 35.9452 49.4703 35.7224 49.1371 35.3298C48.7877 34.9102 48.3258 34.3555 47.7666 33.6837L47.8859 33.6972C46.5735 34.7692 44.7743 36.2199 42.7847 37.8061C42.7681 37.9533 42.8068 37.6057 42.8032 37.6417L42.8037 37.6422L42.8046 37.6435L42.8064 37.6458L42.81 37.6507L42.8176 37.6602L42.8329 37.6791L42.8631 37.7174L42.9239 37.7935L43.0445 37.9452L43.2841 38.2459C43.4425 38.4454 43.5992 38.6422 43.7532 38.8362C44.0607 39.2243 44.3588 39.6007 44.6447 39.9613L44.4884 39.9438C45.9648 38.7759 47.247 37.7845 48.1709 37.0753C48.6135 36.7386 48.9777 36.4612 49.2618 36.2446C49.5207 36.051 49.667 35.9457 49.6796 35.947C49.6927 35.9484 49.5711 36.0565 49.3352 36.2568C49.0664 36.4815 48.7215 36.7696 48.3024 37.1195C47.4105 37.8583 46.1322 38.9082 44.6276 40.1176L44.5411 40.1874L44.4709 40.1C44.1827 39.7407 43.8824 39.3666 43.5727 38.9803C43.4178 38.7867 43.2606 38.5904 43.1017 38.3914L42.8617 38.0911L42.7406 37.9393L42.6798 37.8632L42.6492 37.825L42.6339 37.8061L42.6263 37.7966L42.6227 37.7917L42.6209 37.7894L42.62 37.7881L42.6195 37.7876C42.615 37.8232 42.6546 37.4751 42.6384 37.6224C44.6276 36.0362 46.4425 34.6049 47.7797 33.5644L47.8476 33.5117L47.8994 33.5779C48.4735 34.3149 48.926 34.9138 49.2308 35.3212C49.536 35.7296 49.6963 35.9493 49.6796 35.947Z" fill="#263238"/>
<path d="M41.5631 40.6559C42.5041 41.8364 44.224 42.03 45.4045 41.089L41.9962 36.8145C40.8157 37.7554 40.6221 39.4753 41.5631 40.6559Z" fill="#E0E0E0"/>
<path d="M41.5624 40.6546C41.5543 40.6614 41.4759 40.5817 41.3517 40.4142C41.2346 40.2431 41.0793 39.9743 40.9793 39.5984C40.8821 39.2251 40.8384 38.7398 40.9757 38.2175C41.1 37.6952 41.4214 37.1464 41.9284 36.7286L42.0117 36.6602L42.0806 36.7457C42.6101 37.4053 43.1868 38.1234 43.7915 38.8771C44.3917 39.6349 44.9634 40.357 45.4884 41.0202L45.5569 41.1062L45.4718 41.172C44.9517 41.5731 44.3453 41.7645 43.8081 41.769C43.2679 41.7865 42.8046 41.6357 42.4628 41.4579C42.1184 41.2769 41.891 41.0653 41.7506 40.9131C41.6141 40.755 41.5543 40.661 41.5624 40.6546C41.5907 40.6231 41.8465 41.018 42.52 41.3408C42.8541 41.4939 43.2958 41.6195 43.8009 41.5889C44.3039 41.5709 44.8608 41.3804 45.3367 41.0036L45.3196 41.1553C44.7901 40.4957 44.2134 39.7776 43.6082 39.0234C43.0081 38.2657 42.4367 37.544 41.9118 36.8808L42.0635 36.8979C41.5903 37.2779 41.2805 37.7785 41.1509 38.2643C41.0086 38.7497 41.0324 39.2085 41.1072 39.5682C41.2711 40.2967 41.5993 40.6339 41.5624 40.6546Z" fill="#263238"/>
<path d="M42.1918 39.2245C41.7578 39.7062 41.6412 40.4496 41.9073 41.0412L42.1918 39.2245Z" fill="#E0E0E0"/>
<path d="M41.9076 41.0429C41.858 41.0826 41.5771 40.658 41.6716 40.0754C41.7599 39.4919 42.1574 39.1736 42.1921 39.2262C42.2425 39.2717 41.9756 39.6103 41.9031 40.1118C41.8184 40.6107 41.9693 41.015 41.9076 41.0429Z" fill="#263238"/>
<path d="M45.4096 39.5181C45.3515 39.5523 44.9598 38.9782 44.4141 38.3254C43.8711 37.6694 43.3786 37.18 43.4227 37.1287C43.4618 37.0809 44.0368 37.5024 44.5942 38.1755C45.1543 38.8459 45.464 39.4884 45.4096 39.5181Z" fill="#263238"/>
<path d="M46.0111 39.0396C45.953 39.0738 45.5613 38.5002 45.0157 37.8469C44.4727 37.1909 43.9801 36.7015 44.0242 36.6502C44.0634 36.6024 44.6384 37.0239 45.1957 37.697C45.7558 38.3674 46.0652 39.0098 46.0111 39.0396Z" fill="#263238"/>
<path d="M46.6107 38.5591C46.5527 38.5933 46.161 38.0193 45.6153 37.3664C45.0723 36.7104 44.5797 36.221 44.6238 36.1697C44.663 36.122 45.238 36.5434 45.7954 37.2165C46.355 37.8869 46.6648 38.5294 46.6107 38.5591Z" fill="#263238"/>
<path d="M47.2124 38.0786C47.1543 38.1128 46.7626 37.5392 46.2169 36.8859C45.6739 36.2299 45.1809 35.7405 45.2255 35.6892C45.2646 35.6415 45.8396 36.0629 46.397 36.736C46.9571 37.4064 47.2668 38.0489 47.2124 38.0786Z" fill="#263238"/>
<path d="M47.8139 37.6001C47.7558 37.6343 47.3641 37.0607 46.8184 36.4074C46.2754 35.7514 45.7829 35.262 45.827 35.2107C45.8661 35.163 46.4411 35.5844 46.9985 36.2575C47.5586 36.9279 47.8679 37.5704 47.8139 37.6001Z" fill="#263238"/>
<path d="M48.4154 37.1216C48.3573 37.1558 47.9656 36.5818 47.42 35.9289C46.877 35.2729 46.3844 34.7835 46.4285 34.7322C46.4677 34.6845 47.0427 35.1059 47.6 35.779C48.1597 36.4494 48.4695 37.0919 48.4154 37.1216Z" fill="#263238"/>
<path d="M49.017 36.6431C48.959 36.6773 48.5673 36.1032 48.0216 35.4504C47.4786 34.7944 46.9856 34.305 47.0302 34.2537C47.0693 34.2059 47.6443 34.6274 48.2017 35.3005C48.7618 35.9709 49.0711 36.6134 49.017 36.6431Z" fill="#263238"/>
<path d="M52.5561 23.5434C52.5336 23.5452 52.5287 23.3611 52.4283 23.0563C52.3292 22.7573 52.1009 22.3251 51.6309 22.0068C51.1757 21.6867 50.4463 21.5295 49.7606 21.8186C49.0794 22.086 48.5139 22.8442 48.5558 23.701C48.5815 24.5587 49.2055 25.2701 49.9051 25.4835C50.6116 25.7176 51.3265 25.5033 51.7552 25.1485C52.1986 24.7942 52.3922 24.3458 52.4674 24.0396C52.5431 23.7276 52.5336 23.5434 52.5561 23.5434C52.5642 23.543 52.5714 23.588 52.5782 23.6754C52.5863 23.7623 52.5836 23.8928 52.5561 24.0581C52.5053 24.3831 52.3265 24.8743 51.8601 25.276C51.4103 25.6771 50.6287 25.9373 49.839 25.6893C49.0573 25.4655 48.3491 24.6726 48.3208 23.71C48.2739 22.7488 48.9169 21.9028 49.6787 21.6182C50.4463 21.3085 51.2459 21.5061 51.7259 21.8708C52.2225 22.2342 52.4395 22.7101 52.5156 23.0302C52.5561 23.1923 52.5692 23.3224 52.5678 23.4097C52.5678 23.498 52.5642 23.5434 52.5561 23.5434Z" fill="#263238"/>
<path d="M39.1864 28.5221C39.1706 28.5266 39.1062 28.3384 39.0022 27.993C38.9477 27.821 38.8874 27.6085 38.8361 27.3573C38.7821 27.107 38.7087 26.8233 38.6655 26.5032C38.552 25.8675 38.4786 25.0994 38.4561 24.2448C38.4471 23.3903 38.4971 22.4488 38.6443 21.4723C38.801 20.4971 39.04 19.5849 39.3088 18.7736C39.5902 17.9663 39.8941 17.2572 40.1954 16.6858C40.334 16.3941 40.4903 16.1464 40.6177 15.9245C40.7433 15.7011 40.8653 15.517 40.9693 15.3698C41.1737 15.0726 41.2926 14.9132 41.3056 14.9222C41.3439 14.947 40.8955 15.6061 40.3435 16.7596C40.0639 17.3346 39.7798 18.0415 39.5132 18.842C39.2593 19.6466 39.0301 20.547 38.8757 21.5092C38.7303 22.4722 38.6745 23.3993 38.6718 24.243C38.6821 25.0868 38.7375 25.8463 38.8289 26.4789C39.004 27.7454 39.23 28.5104 39.1864 28.5221Z" fill="#263238"/>
<path d="M157.909 48.3126C157.924 48.3081 157.989 48.4963 158.093 48.8416C158.147 49.0136 158.208 49.2261 158.259 49.4773C158.313 49.7277 158.386 50.0113 158.43 50.3314C158.543 50.9676 158.616 51.7353 158.639 52.5898C158.648 53.4444 158.598 54.3858 158.45 55.3624C158.294 56.3376 158.055 57.2498 157.786 58.0611C157.505 58.8684 157.201 59.5775 156.9 60.1488C156.761 60.4406 156.605 60.6882 156.477 60.9102C156.352 61.1335 156.23 61.3176 156.126 61.4649C155.921 61.762 155.803 61.9214 155.789 61.9124C155.751 61.8876 156.2 61.2285 156.752 60.075C157.031 59.5 157.315 58.7932 157.582 57.9926C157.836 57.1881 158.065 56.2876 158.219 55.3255C158.365 54.3624 158.421 53.4354 158.423 52.5916C158.413 51.7479 158.358 50.9883 158.266 50.3557C158.091 49.0892 157.865 48.3243 157.909 48.3126Z" fill="#263238"/>
<path d="M160.836 49.086C160.852 49.0815 160.916 49.2697 161.02 49.615C161.075 49.787 161.134 49.9995 161.186 50.2508C161.24 50.5011 161.314 50.7848 161.357 51.1049C161.47 51.7406 161.544 52.5087 161.566 53.3633C161.575 54.2178 161.525 55.1592 161.378 56.1358C161.221 57.111 160.982 58.0232 160.714 58.8345C160.433 59.6418 160.129 60.3509 159.827 60.9223C159.689 61.214 159.533 61.4617 159.405 61.6836C159.279 61.9069 159.157 62.0911 159.053 62.2383C158.849 62.5355 158.73 62.6953 158.717 62.6858C158.679 62.6611 159.127 62.0019 159.679 60.8484C159.959 60.2735 160.243 59.5666 160.51 58.7661C160.763 57.9615 160.993 57.061 161.147 56.0993C161.292 55.1363 161.348 54.2093 161.351 53.3655C161.341 52.5218 161.285 51.7622 161.194 51.1296C161.018 49.8622 160.792 49.0977 160.836 49.086Z" fill="#263238"/>
</g>
<defs>
<clipPath id="clip0_6231_62724">
<rect width="182.759" height="200" fill="white" transform="translate(0.121094)"/>
</clipPath>
</defs>
</svg>
