<svg width="15" height="11" viewBox="0 0 15 11" fill="none" xmlns="http://www.w3.org/2000/svg">
<path d="M7.55081 3.51308C7.05207 3.51308 6.57377 3.7112 6.22111 4.06386C5.86846 4.41651 5.67034 4.89482 5.67034 5.39355C5.67034 5.89228 5.86846 6.37058 6.22111 6.72324C6.57377 7.0759 7.05207 7.27402 7.55081 7.27402C8.04954 7.27402 8.52784 7.0759 8.8805 6.72324C9.23315 6.37058 9.43127 5.89228 9.43127 5.39355C9.43127 4.89482 9.23315 4.41651 8.8805 4.06386C8.52784 3.7112 8.04954 3.51308 7.55081 3.51308ZM7.55081 8.52766C6.71959 8.52766 5.92241 8.19746 5.33465 7.6097C4.74689 7.02194 4.41669 6.22477 4.41669 5.39355C4.41669 4.56233 4.74689 3.76516 5.33465 3.1774C5.92241 2.58964 6.71959 2.25944 7.55081 2.25944C8.38202 2.25944 9.1792 2.58964 9.76696 3.1774C10.3547 3.76516 10.6849 4.56233 10.6849 5.39355C10.6849 6.22477 10.3547 7.02194 9.76696 7.6097C9.1792 8.19746 8.38202 8.52766 7.55081 8.52766ZM7.55081 0.692383C4.41669 0.692383 1.74016 2.6418 0.655762 5.39355C1.74016 8.1453 4.41669 10.0947 7.55081 10.0947C10.6849 10.0947 13.3614 8.1453 14.4458 5.39355C13.3614 2.6418 10.6849 0.692383 7.55081 0.692383Z" fill="#DCDCDC"/>
</svg>
