<svg width="146" height="34" viewBox="0 0 146 34" fill="none" xmlns="http://www.w3.org/2000/svg">
<path fill-rule="evenodd" clip-rule="evenodd" d="M0.601882 0.521108C0.219678 0.931888 0 1.56413 0 2.38569V31.6082C0 32.4298 0.219678 33.062 0.61617 33.4585L0.719758 33.5461L17.0938 17.172V16.8041L0.705471 0.433594L0.601882 0.521108Z" fill="white"/>
<path fill-rule="evenodd" clip-rule="evenodd" d="M22.5412 22.6522L17.0796 17.1888V16.8066L22.543 11.3433L22.6608 11.4165L29.1226 15.0885C30.9729 16.1315 30.9729 17.8497 29.1226 18.907L22.6608 22.579C22.6591 22.579 22.5412 22.6522 22.5412 22.6522Z" fill="white"/>
<path fill-rule="evenodd" clip-rule="evenodd" d="M22.6592 22.5778L17.0797 16.9966L0.602051 33.4742C1.20393 34.1208 2.2166 34.194 3.34892 33.5617L22.6592 22.5778Z" fill="white"/>
<path fill-rule="evenodd" clip-rule="evenodd" d="M22.6592 11.4176L3.34892 0.447995C2.21838 -0.198537 1.20393 -0.111023 0.602051 0.535509L17.0779 16.9971L22.6592 11.4176Z" fill="white"/>
<path opacity="0.2" fill-rule="evenodd" clip-rule="evenodd" d="M22.5412 22.4609L3.36308 33.3573C2.29148 33.9735 1.33597 33.9306 0.719799 33.3716L0.616211 33.4752L0.719799 33.5627C1.33597 34.12 2.29148 34.1646 3.36308 33.5484L22.6733 22.5788L22.5412 22.4609Z" fill="white"/>
<path opacity="0.12" fill-rule="evenodd" clip-rule="evenodd" d="M29.1208 18.7147L22.5269 22.46L22.6447 22.5778L29.1065 18.9058C30.0316 18.3772 30.4871 17.6878 30.4871 16.9966C30.4281 17.6288 29.9584 18.2307 29.1208 18.7147Z" fill="white"/>
<path opacity="0.25" fill-rule="evenodd" clip-rule="evenodd" d="M3.34875 0.63924L29.1208 15.2809C29.9584 15.7506 30.4281 16.3668 30.5013 16.999C30.5013 16.3096 30.0459 15.6184 29.1208 15.0898L3.34875 0.448138C1.49846 -0.609174 0 0.271324 0 2.38595V2.57705C0 0.462426 1.49846 -0.403784 3.34875 0.63924Z" fill="white"/>
<path fill-rule="evenodd" clip-rule="evenodd" d="M36.7917 16.0696C36.7917 11.3885 40.7262 7.57715 45.4073 7.57715C47.9952 7.57715 49.8366 8.59338 51.2261 9.91681L49.5901 11.5528C48.5971 10.6205 47.2505 9.89716 45.4055 9.89716C41.9871 9.89716 39.3153 12.6494 39.3153 16.0678C39.3153 19.4862 41.9871 22.242 45.4038 22.242C47.6202 22.242 48.8811 21.3526 49.6902 20.5417C50.3528 19.8791 50.7868 18.9272 50.9546 17.6216H45.4073V15.307H53.2157C53.2979 15.7213 53.3407 16.2178 53.3407 16.7554C53.3407 18.4932 52.8639 20.6489 51.3297 22.1831C49.8366 23.7369 47.9327 24.5656 45.4055 24.5656C40.7226 24.5656 36.7881 20.7578 36.7881 16.0732L36.7917 16.0696ZM59.6525 13.6263C56.6288 13.6263 54.1605 15.9267 54.1605 19.0933C54.1605 22.2438 56.627 24.5602 59.6525 24.5602C62.678 24.5602 65.1409 22.2402 65.1409 19.0915C65.1409 15.9249 62.6762 13.6245 59.6525 13.6263ZM59.6525 22.4099C57.9968 22.4099 56.5663 21.0436 56.5663 19.0951C56.5663 17.1269 57.9951 15.7803 59.6525 15.7803C61.3081 15.7803 62.7369 17.1251 62.7369 19.0951C62.7369 21.0418 61.3099 22.4099 59.6525 22.4099ZM71.6276 13.6263C68.6039 13.6263 66.1392 15.9267 66.1392 19.0933C66.1392 22.2438 68.6039 24.5602 71.6276 24.5602C74.6513 24.5602 77.116 22.2402 77.116 19.0915C77.116 15.9249 74.6531 13.6245 71.6276 13.6263ZM71.6276 22.4099C69.972 22.4099 68.5414 21.0436 68.5414 19.0951C68.5414 17.1269 69.9702 15.7803 71.6276 15.7803C73.2832 15.7803 74.7138 17.1251 74.7138 19.0951C74.7138 21.0418 73.2832 22.4099 71.6276 22.4099ZM86.3246 13.9585V14.848H86.2425C85.7049 14.2032 84.669 13.6245 83.3652 13.6245C80.6308 13.6245 78.1215 16.0285 78.1215 19.1165C78.1215 22.1795 80.6291 24.5638 83.3652 24.5638C84.669 24.5638 85.7049 23.9851 86.2425 23.3225H86.3246V24.1084C86.3246 26.1998 85.2066 27.3196 83.4045 27.3196C81.9328 27.3196 81.022 26.2623 80.6487 25.3746L78.5555 26.2444C79.1556 27.6929 80.7523 29.4753 83.4027 29.4753C86.2174 29.4753 88.6 27.8161 88.6 23.778V13.9567L86.3246 13.9585ZM83.5706 22.4099C81.915 22.4099 80.5237 21.0204 80.5237 19.1165C80.5237 17.1912 81.9132 15.782 83.5706 15.782C85.2066 15.782 86.4907 17.1894 86.4907 19.1165C86.4925 21.0204 85.2084 22.4099 83.5706 22.4099ZM90.2592 8.1576H92.6631V24.2316H90.2592V8.1576ZM99.2517 22.4099C98.0301 22.4099 97.1585 21.8491 96.603 20.7543L103.915 17.727L103.663 17.1055C103.209 15.8856 101.82 13.6263 98.982 13.6263C96.1655 13.6263 93.824 15.8428 93.824 19.0951C93.824 22.1581 96.144 24.562 99.2517 24.562C101.759 24.562 103.209 23.0314 103.81 22.1384L101.945 20.8971C101.322 21.8098 100.472 22.4117 99.2517 22.4099ZM99.0642 15.7392C100.016 15.7392 100.823 16.216 101.093 16.8983L96.203 18.929C96.1423 16.8161 97.8407 15.7392 99.0642 15.7392Z" fill="white"/>
<path fill-rule="evenodd" clip-rule="evenodd" d="M114.463 8.15747H108.716V24.2315H111.114V18.143H114.465C117.124 18.143 119.739 16.2177 119.739 13.1493C119.739 10.0864 117.126 8.15926 114.469 8.15926L114.463 8.15747ZM114.526 15.9051H111.114V10.3935H114.526C116.319 10.3935 117.34 11.8813 117.34 13.1493C117.34 14.396 116.319 15.9051 114.526 15.9051ZM123.459 24.2315V8.15747H121.061V24.2315H123.459ZM134.234 24.2029V18.0412C134.234 15.1872 132.102 13.5958 129.349 13.5958C127.615 13.5958 125.817 14.362 125.072 16.057L127.201 16.9446C127.656 16.057 128.503 15.7658 129.394 15.7658C130.634 15.7658 131.895 16.5106 131.914 17.8358V18.0019C131.48 17.7537 130.551 17.3804 129.412 17.3804C127.117 17.3804 124.781 18.6413 124.781 20.9988C124.781 23.151 126.663 24.5351 128.773 24.5351C130.387 24.5351 131.275 23.8118 131.832 22.9652H131.914V24.2065H134.232L134.234 24.2029ZM129.064 22.4062C128.278 22.4062 127.181 22.0133 127.181 21.0435C127.181 19.8022 128.548 19.3236 129.726 19.3236C130.782 19.3236 131.277 19.5504 131.92 19.8611C131.736 21.3042 130.516 22.3883 129.064 22.4062ZM142.669 13.9477L139.919 20.9149H139.837L136.983 13.9477H134.399L138.678 23.6885L136.236 29.1055H138.739L145.334 13.9477H142.669Z" fill="white"/>
</svg>
