<svg width="25" height="24" viewBox="0 0 25 24" fill="none" xmlns="http://www.w3.org/2000/svg">
<path d="M2.54004 12C2.54004 6.477 7.01604 2 12.54 2C18.062 2 22.54 6.477 22.54 12C22.54 17.523 18.062 22 12.54 22C7.01604 22 2.54004 17.523 2.54004 12Z" fill="#FC3F1D"/>
<path d="M13.8202 7.66606H12.8962C11.2022 7.66606 10.3112 8.52406 10.3112 9.78906C10.3112 11.2191 10.9272 11.8891 12.1922 12.7481L13.2372 13.4521L10.2342 17.9391H7.99023L10.6852 13.9251C9.13524 12.8141 8.26523 11.7351 8.26523 9.91006C8.26523 7.62206 9.86023 6.06006 12.8852 6.06006H15.8882V17.9281H13.8202V7.66606Z" fill="white"/>
</svg>
