<svg width="24" height="24" viewBox="0 0 24 24" fill="none" xmlns="http://www.w3.org/2000/svg">
<path d="M19.8182 10.5714H13.4545C12.8759 10.5714 12.3209 10.3457 11.9118 9.9438C11.5026 9.54194 11.2727 8.99689 11.2727 8.42857V2.17857C11.2727 2.13121 11.2536 2.08579 11.2195 2.0523C11.1854 2.01881 11.1391 2 11.0909 2H6.90909C6.13755 2 5.39761 2.30102 4.85205 2.83684C4.30649 3.37266 4 4.09938 4 4.85714V19.1429C4 19.9006 4.30649 20.6273 4.85205 21.1632C5.39761 21.699 6.13755 22 6.90909 22H17.0909C17.8624 22 18.6024 21.699 19.1479 21.1632C19.6935 20.6273 20 19.9006 20 19.1429V10.75C20 10.7026 19.9808 10.6572 19.9467 10.6237C19.9126 10.5902 19.8664 10.5714 19.8182 10.5714Z" fill="#654ECE"/>
<path d="M19.6509 8.89658L12.9098 2.27586C12.8967 2.26307 12.8801 2.25436 12.8619 2.25084C12.8438 2.24732 12.825 2.24914 12.8079 2.25608C12.7908 2.26301 12.7762 2.27476 12.7659 2.28983C12.7556 2.3049 12.7501 2.32262 12.75 2.34078V8.31696C12.75 8.51232 12.829 8.69968 12.9697 8.83782C13.1103 8.97597 13.3011 9.05357 13.5 9.05357H19.5848C19.6033 9.05349 19.6214 9.04805 19.6367 9.03793C19.6521 9.02781 19.664 9.01346 19.6711 8.99668C19.6781 8.9799 19.68 8.96145 19.6764 8.94364C19.6728 8.92583 19.664 8.90946 19.6509 8.89658Z" fill="#654ECE"/>
</svg>
