<svg width="16" height="16" viewBox="0 0 16 16" fill="none" xmlns="http://www.w3.org/2000/svg">
<path d="M15.3878 0H10.2449C10.1776 0 10.1224 0.055102 10.1224 0.122449V1.26531C10.1224 1.33265 10.1776 1.38776 10.2449 1.38776H13.5184L9.45102 5.4551C8.43061 4.66939 7.18571 4.2449 5.87755 4.2449C4.30816 4.2449 2.83061 4.85714 1.72245 5.96735C0.614286 7.07755 0 8.55306 0 10.1224C0 11.6918 0.612245 13.1694 1.72245 14.2776C2.83061 15.3878 4.30816 16 5.87755 16C7.44694 16 8.92449 15.3878 10.0327 14.2776C11.1429 13.1694 11.7551 11.6918 11.7551 10.1224C11.7551 8.81429 11.3306 7.57347 10.5469 6.55306L14.6122 2.48775V5.7551C14.6122 5.82245 14.6673 5.87755 14.7347 5.87755H15.8776C15.9449 5.87755 16 5.82245 16 5.7551V0.612245C16 0.27551 15.7245 0 15.3878 0ZM5.87755 14.449C3.49184 14.449 1.55102 12.5082 1.55102 10.1224C1.55102 7.73673 3.49184 5.79592 5.87755 5.79592C8.26327 5.79592 10.2041 7.73673 10.2041 10.1224C10.2041 12.5082 8.26327 14.449 5.87755 14.449Z" fill="#654ECE"/>
</svg>
