<svg width="48" height="48" viewBox="0 0 48 48" fill="none" xmlns="http://www.w3.org/2000/svg">
<rect width="48.0005" height="48" rx="24" fill="#F5F5F5"/>
<path fill-rule="evenodd" clip-rule="evenodd" d="M30.3644 30.364C32.0522 28.6761 33.0005 26.3869 33.0005 24C33.0005 21.6131 32.0522 19.3239 30.3644 17.636C28.6765 15.9482 26.3872 15 24.0002 15C21.6132 15 19.324 15.9482 17.6361 17.636C15.9482 19.3239 15 21.6131 15 24C15 26.3869 15.9482 28.6761 17.6361 30.364C19.324 32.0518 21.6132 33 24.0002 33C26.3872 33 28.6765 32.0518 30.3644 30.364ZM21.8757 25.8202C21.7296 25.8202 21.6112 25.9386 21.6112 26.0847V26.2548C21.6112 26.4009 21.7296 26.5193 21.8757 26.5193H22.4696V27.0689C22.4696 27.2149 22.588 27.3333 22.734 27.3333H22.975C23.121 27.3333 23.2394 27.2149 23.2394 27.0689V26.5193H25.1076C25.2536 26.5193 25.372 26.4009 25.372 26.2548V26.0847C25.372 25.9386 25.2536 25.8202 25.1076 25.8202H23.2394V25.1035H24.5491C24.8794 25.1035 25.1832 25.0651 25.4605 24.9884C25.7437 24.9058 25.9855 24.782 26.1861 24.6168C26.3926 24.4457 26.5519 24.2333 26.664 23.9797C26.7819 23.7201 26.8409 23.4163 26.8409 23.0683C26.8409 22.3604 26.6463 21.853 26.2569 21.5463C25.8735 21.2336 25.3337 21.0773 24.6376 21.0773H22.734C22.588 21.0773 22.4696 21.1957 22.4696 21.3418V24.3956H21.8757C21.7296 24.3956 21.6112 24.514 21.6112 24.66V24.839C21.6112 24.9851 21.7296 25.1035 21.8757 25.1035H22.4696V25.8202H21.8757ZM25.1331 24.3248C24.9561 24.372 24.7644 24.3956 24.5579 24.3956H23.2394V21.7764H24.6199C25.1036 21.7764 25.4635 21.8737 25.6994 22.0684C25.9413 22.263 26.0622 22.5934 26.0622 23.0594C26.0563 23.3131 26.0121 23.5225 25.9295 23.6877C25.8528 23.8528 25.7466 23.9885 25.6109 24.0947C25.4753 24.195 25.316 24.2717 25.1331 24.3248Z" fill="#654ECE"/>
</svg>
