<svg width="18" height="16" viewBox="0 0 18 16" fill="none" xmlns="http://www.w3.org/2000/svg">
<path d="M0 12.8214C0 13.4182 0.237053 13.9905 0.65901 14.4124C1.08097 14.8344 1.65326 15.0714 2.25 15.0714H15.75C16.3467 15.0714 16.919 14.8344 17.341 14.4124C17.7629 13.9905 18 13.4182 18 12.8214V6.63395H0V12.8214ZM2.65179 9.76787C2.65179 9.44819 2.77878 9.14161 3.00483 8.91556C3.23088 8.68951 3.53746 8.56252 3.85714 8.56252H5.78571C6.10539 8.56252 6.41198 8.68951 6.63803 8.91556C6.86408 9.14161 6.99107 9.44819 6.99107 9.76787V10.5714C6.99107 10.8911 6.86408 11.1977 6.63803 11.4238C6.41198 11.6498 6.10539 11.7768 5.78571 11.7768H3.85714C3.53746 11.7768 3.23088 11.6498 3.00483 11.4238C2.77878 11.1977 2.65179 10.8911 2.65179 10.5714V9.76787ZM15.75 0.928589H2.25C1.65326 0.928589 1.08097 1.16564 0.65901 1.5876C0.237053 2.00956 0 2.58185 0 3.17859V4.22323H18V3.17859C18 2.58185 17.7629 2.00956 17.341 1.5876C16.919 1.16564 16.3467 0.928589 15.75 0.928589Z" fill="#9D9D9D"/>
</svg>
