<svg width="48" height="48" viewBox="0 0 48 48" fill="none" xmlns="http://www.w3.org/2000/svg">
<path d="M0 24C0 10.7452 10.7452 0 24 0C37.2548 0 48 10.7452 48 24C48 37.2548 37.2548 48 24 48C10.7452 48 0 37.2548 0 24Z" fill="#F5F5F5"/>
<path d="M15 28.8213C15 29.4181 15.2371 29.9904 15.659 30.4123C16.081 30.8343 16.6533 31.0713 17.25 31.0713H30.75C31.3467 31.0713 31.919 30.8343 32.341 30.4123C32.7629 29.9904 33 29.4181 33 28.8213V22.6338H15V28.8213ZM17.6518 25.7678C17.6518 25.4481 17.7788 25.1415 18.0048 24.9154C18.2309 24.6894 18.5375 24.5624 18.8571 24.5624H20.7857C21.1054 24.5624 21.412 24.6894 21.638 24.9154C21.8641 25.1415 21.9911 25.4481 21.9911 25.7678V26.5713C21.9911 26.891 21.8641 27.1976 21.638 27.4236C21.412 27.6497 21.1054 27.7767 20.7857 27.7767H18.8571C18.5375 27.7767 18.2309 27.6497 18.0048 27.4236C17.7788 27.1976 17.6518 26.891 17.6518 26.5713V25.7678ZM30.75 16.9285H17.25C16.6533 16.9285 16.081 17.1655 15.659 17.5875C15.2371 18.0094 15 18.5817 15 19.1785V20.2231H33V19.1785C33 18.5817 32.7629 18.0094 32.341 17.5875C31.919 17.1655 31.3467 16.9285 30.75 16.9285Z" fill="#654ECE"/>
</svg>
