<svg width="57" height="57" viewBox="0 0 57 57" fill="none" xmlns="http://www.w3.org/2000/svg">
<path d="M34.9865 5.22396L34.0705 5.49986L33.4077 3.28905L34.3222 3.01331L34.9865 5.22396Z" fill="#E0E0E0"/>
<path d="M37.8506 3.26071C37.8862 3.37938 37.7687 3.63485 37.5909 3.68863C37.5909 3.68863 37.6762 3.77885 37.7194 3.92269C37.772 4.09382 37.6321 4.32395 37.3568 4.40601C37.0829 4.48806 35.2598 5.03709 35.2598 5.03709L34.6426 2.98367L34.6411 2.9835C34.6411 2.9835 34.9969 2.07522 35.0144 1.93857C35.0352 1.80405 34.8224 1.29801 34.7938 1.20289C34.7706 1.12541 35.1042 0.984516 35.3727 1.09272C35.4347 1.11805 35.4933 1.15565 35.5438 1.21106C35.6489 1.32613 35.7276 1.43891 35.7843 1.55545C35.8748 1.7354 35.9119 1.92272 35.9119 2.1352L37.1788 1.75404C37.2846 1.72233 37.3769 1.73148 37.45 1.76254C37.5629 1.80912 37.6355 1.90604 37.659 1.98434C37.7174 2.16953 37.6094 2.31173 37.5513 2.36697C37.5513 2.36697 37.8215 2.34474 37.8978 2.59972C37.9407 2.74258 37.8697 2.93153 37.6888 3.02453C37.6888 3.02453 37.7975 3.08337 37.8506 3.26071Z" fill="#E0E0E0"/>
<path d="M51.3954 21.6126L50.2202 21.33L50.9051 18.4956L52.0788 18.7772L51.3954 21.6126Z" fill="#E0E0E0"/>
<path d="M55.7708 21.2947C55.734 21.4469 55.4432 21.6507 55.2147 21.5961C55.2147 21.5961 55.2503 21.7489 55.2059 21.9333C55.1544 22.1535 54.8551 22.3156 54.5024 22.2298C54.1511 22.145 51.812 21.5825 51.812 21.5825L52.4467 18.9489L52.4452 18.9477C52.4452 18.9477 53.4122 18.1833 53.5181 18.0453C53.6265 17.9118 53.7165 17.2241 53.7461 17.102C53.7701 17.0027 54.2239 17.0615 54.448 17.3506C54.4993 17.4177 54.5395 17.4961 54.5593 17.5888C54.6006 17.7813 54.6145 17.9544 54.6021 18.1177C54.5862 18.3719 54.5076 18.5997 54.3721 18.8317L55.9975 19.2228C56.1331 19.2557 56.2281 19.3243 56.2879 19.4049C56.3816 19.5278 56.3989 19.6795 56.3745 19.7802C56.3201 20.0195 56.1117 20.1058 56.0132 20.1291C56.0132 20.1291 56.3221 20.2771 56.2431 20.6038C56.1988 20.787 56.0012 20.9478 55.7443 20.9341C55.7448 20.9341 55.8257 21.0673 55.7708 21.2947Z" fill="#E0E0E0"/>
<path d="M4.79102 19.9176L6.07377 20.3038L7.002 17.2081L5.72121 16.822L4.79102 19.9176Z" fill="#E0E0E0"/>
<path d="M0.781735 17.1673C0.731883 17.3333 0.896314 17.6911 1.14541 17.7665C1.14541 17.7665 1.02577 17.8928 0.965453 18.0942C0.891737 18.3338 1.08755 18.6563 1.47313 18.771C1.85674 18.8861 4.40982 19.6548 4.40982 19.6548L5.27398 16.7792L5.27594 16.7791C5.27594 16.7791 4.77759 15.5071 4.75323 15.3157C4.7243 15.1274 5.02227 14.4187 5.06215 14.2855C5.09468 14.177 4.62754 13.9797 4.25144 14.1312C4.16481 14.1667 4.0826 14.2193 4.01183 14.2969C3.86472 14.4581 3.75456 14.6161 3.67528 14.7793C3.54845 15.0313 3.49647 15.2935 3.49647 15.5911L1.72222 15.0573C1.57398 15.013 1.44469 15.0256 1.34237 15.0692C1.18415 15.1344 1.08265 15.2701 1.04979 15.3799C0.968231 15.6393 1.11942 15.8384 1.20066 15.9159C1.20066 15.9159 0.822271 15.8848 0.715212 16.2418C0.655226 16.4419 0.754603 16.7063 1.00811 16.8366C1.00811 16.8366 0.856268 16.919 0.781735 17.1673Z" fill="#E0E0E0"/>
<path d="M30.9733 52.6703C39.0254 48.3277 43.8012 41.5592 41.6403 37.5523C39.4794 33.5455 31.2001 33.8177 23.148 38.1603C15.0959 42.5028 10.3201 49.2714 12.481 53.2782C14.642 57.285 22.9212 57.0128 30.9733 52.6703Z" fill="#E0E0E0"/>
<path d="M38.9822 43.1508C40.5925 41.2315 43.1145 39.9807 45.9505 39.2429C48.7504 38.5144 49.2525 36.7917 47.3964 36.2327C45.2923 35.599 42.6671 36.7636 40.9743 38.3832C38.024 41.2058 37.6543 43.3663 37.6543 43.3663L38.9822 43.1508Z" fill="#27DEBF"/>
<path opacity="0.15" d="M38.9822 43.1508C40.5925 41.2315 43.1145 39.9807 45.9505 39.2429C48.7504 38.5144 49.2525 36.7917 47.3964 36.2327C45.2923 35.599 42.6671 36.7636 40.9743 38.3832C38.024 41.2058 37.6543 43.3663 37.6543 43.3663L38.9822 43.1508Z" fill="black"/>
<path d="M38.1536 43.038C38.1415 43.038 38.1294 43.0352 38.1178 43.0296C38.0771 43.0098 38.0602 42.961 38.0802 42.9204C40.4698 38.0173 45.758 36.811 47.0436 36.9019C47.0885 36.9052 47.1222 36.9446 47.1191 36.9895C47.1157 37.0345 47.0741 37.0681 47.0315 37.065C45.7762 36.9687 40.58 38.1645 38.2271 42.992C38.2129 43.0211 38.1836 43.038 38.1536 43.038Z" fill="white"/>
<path d="M37.6545 43.66C37.6545 44.0066 38.0301 44.2168 38.3297 44.0423C39.8267 43.1704 42.0109 42.6891 45.5451 43.6946C47.4242 44.2293 48.3491 43.8716 48.7455 43.1064C49.1857 42.2564 48.253 41.4351 47.1917 41.0474C43.5748 39.7257 40.3102 40.6281 37.6543 43.2649L37.6545 43.66Z" fill="#27DEBF"/>
<path d="M37.8601 43.7302C37.8375 43.7302 37.8153 43.7209 37.7991 43.7029C37.769 43.6692 37.772 43.6177 37.8056 43.5875C40.9283 40.7963 45.7669 41.3396 47.598 42.4283C47.6368 42.4514 47.6495 42.5015 47.6265 42.5404C47.6033 42.5792 47.5533 42.5918 47.5144 42.5689C45.7203 41.5024 40.9779 40.9713 37.9145 43.7094C37.899 43.7233 37.8795 43.7302 37.8601 43.7302Z" fill="white"/>
<path d="M13.889 47.5715C12.5163 45.4756 10.1595 43.9359 7.43024 42.8687C4.73578 41.815 4.44059 40.045 6.34968 39.7089C8.51375 39.3278 10.9833 40.7941 12.4732 42.602C15.0697 45.753 15.182 47.9421 15.182 47.9421L13.889 47.5715Z" fill="#27DEBF"/>
<path opacity="0.15" d="M13.889 47.5715C12.5163 45.4756 10.1595 43.9359 7.43024 42.8687C4.73578 41.815 4.44059 40.045 6.34968 39.7089C8.51375 39.3278 10.9833 40.7941 12.4732 42.602C15.0697 45.753 15.182 47.9421 15.182 47.9421L13.889 47.5715Z" fill="black"/>
<path d="M14.726 47.5586C14.7381 47.56 14.7504 47.5587 14.7625 47.5545C14.8053 47.5396 14.8277 47.4932 14.8128 47.4505C13.0183 42.2997 7.90934 40.4779 6.62202 40.4165C6.5769 40.4145 6.53882 40.4495 6.53669 40.4946C6.53473 40.5397 6.57216 40.5779 6.61482 40.5799C7.87273 40.6324 12.8916 42.4328 14.6585 47.5043C14.6691 47.5349 14.6961 47.5551 14.726 47.5586Z" fill="white"/>
<path d="M15.193 47.8422C15.1329 48.3476 14.5611 48.6099 14.1383 48.3265C12.7529 47.3983 10.6883 46.7961 7.30673 47.3381C5.37769 47.6474 4.50144 47.1832 4.19808 46.3764C3.86121 45.4803 4.88424 44.7749 5.98377 44.515C9.7315 43.6293 12.8668 44.9104 15.193 47.8422Z" fill="#27DEBF"/>
<path d="M14.9328 48.2804C14.9551 48.283 14.9784 48.2764 14.9965 48.2604C15.0303 48.2305 15.0334 48.179 15.0035 48.145C12.2319 45.0048 7.36308 44.9736 5.41623 45.8387C5.37504 45.8571 5.35641 45.9054 5.37472 45.9466C5.39319 45.9878 5.4414 46.0063 5.48259 45.9881C7.38989 45.1407 12.162 45.1729 14.8809 48.2534C14.895 48.2689 14.9135 48.2781 14.9328 48.2804Z" fill="white"/>
<path d="M40.448 12.8236L40.4485 12.8225L40.4226 12.8092C40.4217 12.8087 40.4208 12.8082 40.4199 12.8077L34.1893 9.22101C34.1874 9.22003 34.1854 9.21905 34.1834 9.2179L34.147 9.19927L34.1463 9.20091C31.2358 7.73264 27.3519 8.17297 23.1748 10.874C14.7828 16.3005 8.388 28.791 8.89158 38.772C9.14264 43.7471 11.0607 47.1585 13.9603 48.6581L13.9597 48.6593L13.9853 48.6723C13.9865 48.673 13.9875 48.6735 13.9886 48.674L20.2204 52.2615C20.2214 52.2619 20.2222 52.2623 20.2232 52.2628L20.2538 52.2785L20.2544 52.2772C23.1658 53.7501 27.0528 53.311 31.2335 50.6076C39.6253 45.1809 46.0203 32.6907 45.5167 22.7097C45.2657 17.7346 43.3474 14.3231 40.448 12.8236Z" fill="#37474F"/>
<path d="M20.0078 52.1476L13.9899 48.6729C13.9853 48.6733 13.9853 48.6733 13.9853 48.6733L13.9574 48.6564C11.0594 47.153 9.14214 43.7415 8.89157 38.7735C8.66683 34.3222 9.81702 29.3745 11.8982 24.7794L11.9402 24.6787L18.131 28.3656C16.0453 32.9609 14.8996 37.9085 15.1242 42.3599C15.3697 47.2281 17.212 50.5979 20.0078 52.1476Z" fill="#263238"/>
<path d="M31.2329 50.6084C39.6248 45.1817 46.0196 32.6916 45.516 22.7105C45.0124 12.7296 37.8012 9.03746 29.4092 14.4641C21.0172 19.8907 14.6224 32.381 15.126 42.362C15.6297 52.3431 22.8409 56.0349 31.2329 50.6084Z" fill="#455A64"/>
<path d="M38.3408 12.0493L27.8233 33.7129L25.5594 31.2594C24.861 30.5006 23.8656 30.0655 22.8285 30.0655C21.89 30.0655 20.9926 30.4153 20.3011 31.0511C18.7959 32.4419 18.702 34.8003 20.0922 36.3083L26.0558 42.7685C26.716 43.4836 27.6153 43.9063 28.588 43.9589C28.6566 43.9625 28.7253 43.9645 28.7942 43.9645C28.9721 43.9645 29.1524 43.9516 29.3333 43.9259C30.5534 43.7446 31.6015 42.9758 32.1363 41.87L44.1989 17.0242C42.9674 14.2696 40.9068 12.5565 38.3408 12.0493Z" fill="#37474F"/>
<path d="M46.8826 4.91225C46.8169 4.8745 46.7495 4.8387 46.6804 4.80519C45.0745 4.02881 43.1371 4.69846 42.3621 6.29945L28.978 33.867L28.2176 33.0431C27.9912 32.7972 27.7348 32.5952 27.4589 32.4372C27.0596 32.2083 25.3631 31.2258 25.0887 31.0675C23.8993 30.381 22.3472 30.5103 21.279 31.4924C19.9722 32.6998 19.8909 34.7475 21.0976 36.0567L27.0612 42.5171C27.2881 42.7629 27.5478 42.9682 27.8312 43.1295C28.2206 43.351 29.9111 44.3311 30.1877 44.4916C30.6238 44.7446 31.1166 44.893 31.6334 44.921C31.8465 44.9324 32.0605 44.9237 32.2802 44.8925C33.3392 44.7351 34.2501 44.0672 34.7143 43.1076L50.5479 10.4944C51.2915 8.95959 50.7114 7.12111 49.2586 6.28425C49.1923 6.24584 47.3054 5.15563 46.8826 4.91225Z" fill="#27DEBF"/>
<path opacity="0.15" d="M46.8826 4.91225C46.8169 4.8745 46.7495 4.8387 46.6804 4.80519C45.0745 4.02881 43.1371 4.69846 42.3621 6.29945L28.978 33.867L28.2176 33.0431C27.9912 32.7972 27.7348 32.5952 27.4589 32.4372C27.0596 32.2083 25.3631 31.2258 25.0887 31.0675C23.8993 30.381 22.3472 30.5103 21.279 31.4924C19.9722 32.6998 19.8909 34.7475 21.0976 36.0567L27.0612 42.5171C27.2881 42.7629 27.5478 42.9682 27.8312 43.1295C28.2206 43.351 29.9111 44.3311 30.1877 44.4916C30.6238 44.7446 31.1166 44.893 31.6334 44.921C31.8465 44.9324 32.0605 44.9237 32.2802 44.8925C33.3392 44.7351 34.2501 44.0672 34.7143 43.1076L50.5479 10.4944C51.2915 8.95959 50.7114 7.12111 49.2586 6.28425C49.1923 6.24584 47.3054 5.15563 46.8826 4.91225Z" fill="black"/>
<path opacity="0.15" d="M30.1874 44.491C29.9118 44.3311 28.2208 43.3509 27.8311 43.1286C27.548 42.9673 27.2877 42.7618 27.061 42.5166L21.0973 36.0568C20.8265 35.7614 20.6225 35.4267 20.481 35.075L22.8524 36.4433C22.9925 36.7964 23.1995 37.1313 23.4719 37.4267L29.4355 43.8865C29.6577 44.1271 29.9104 44.3296 30.1874 44.491Z" fill="black"/>
<path opacity="0.15" d="M45.4848 6.67517C45.1805 6.94617 44.9247 7.28091 44.7359 7.66911L30.97 36.0247L28.979 33.8663L42.3631 6.29923C42.5502 5.90957 42.809 5.5763 43.1135 5.3053L45.4848 6.67517Z" fill="black"/>
<path d="M49.0543 6.17519C47.4484 5.39881 45.511 6.06846 44.7359 7.66929L30.9695 36.0245L28.2179 33.0424C27.0155 31.7364 24.9677 31.6534 23.6531 32.8623C22.3463 34.0697 22.2649 36.1174 23.4716 37.4266L29.4352 43.8869C30.0081 44.5074 30.7889 44.8745 31.6336 44.9203C31.8468 44.9317 32.0607 44.923 32.2804 44.8918C33.3394 44.7344 34.2503 44.0666 34.7145 43.107L50.5483 10.4937C51.3254 8.88878 50.6557 6.95174 49.0543 6.17519Z" fill="#27DEBF"/>
</svg>
