<svg width="9" height="8" viewBox="0 0 9 8" fill="none" xmlns="http://www.w3.org/2000/svg">
<path fill-rule="evenodd" clip-rule="evenodd" d="M4.44612 7.89981C6.45345 7.89981 8.08072 6.27254 8.08072 4.26521C8.08072 2.25788 6.45345 0.630615 4.44612 0.630615C2.43879 0.630615 0.811523 2.25788 0.811523 4.26521C0.811523 6.27254 2.43879 7.89981 4.44612 7.89981ZM5.39477 5.59002C5.43838 5.61728 5.48745 5.62819 5.53652 5.62819C5.59604 5.62791 5.65385 5.60824 5.70119 5.57215C5.74852 5.53606 5.7828 5.48552 5.79883 5.42819C5.81485 5.37087 5.81175 5.30988 5.79 5.25447C5.76824 5.19907 5.72902 5.15226 5.67827 5.12116L4.44614 4.38515V2.35705C4.44614 2.2044 4.3262 2.08445 4.17354 2.08445C4.02089 2.08445 3.90095 2.2044 3.90095 2.35705V4.53781C3.9004 4.5849 3.9122 4.63132 3.93515 4.67245C3.95811 4.71357 3.99142 4.74798 4.03179 4.77224L5.39477 5.59002Z" fill="#654ECE"/>
</svg>
