<svg width="48" height="47" viewBox="0 0 48 47" fill="none" xmlns="http://www.w3.org/2000/svg">
<rect width="48" height="47" rx="23.5" fill="#F5F5F5"/>
<path d="M31.3636 29.3333H33V31H15V29.3333H16.6364V16.8333C16.6364 16.6123 16.7226 16.4004 16.876 16.2441C17.0294 16.0878 17.2376 16 17.4545 16H25.6364C25.8534 16 26.0615 16.0878 26.2149 16.2441C26.3683 16.4004 26.4545 16.6123 26.4545 16.8333V29.3333H28.0909V21H30.5455C30.7625 21 30.9706 21.0878 31.124 21.2441C31.2774 21.4004 31.3636 21.6123 31.3636 21.8333V29.3333ZM19.9091 22.6667V24.3333H23.1818V22.6667H19.9091ZM19.9091 19.3333V21H23.1818V19.3333H19.9091Z" fill="#654ECE"/>
</svg>
