<svg width="48" height="48" viewBox="0 0 48 48" fill="none" xmlns="http://www.w3.org/2000/svg">
<rect width="48" height="48" rx="24" fill="#F5F5F5"/>
<path fill-rule="evenodd" clip-rule="evenodd" d="M17.4688 32.6965L18.0434 31.3109C18.3361 31.4323 18.6583 31.5 19 31.5H21.5V33H19C18.4576 33 17.9405 32.8921 17.4688 32.6965ZM26.5 33V31.5H29C29.3417 31.5 29.6639 31.4323 29.9566 31.3109L30.5312 32.6965C30.0595 32.8921 29.5424 33 29 33H26.5ZM33 21.5H31.5V19C31.5 18.6583 31.4323 18.3361 31.3109 18.0434L32.6965 17.4688C32.8921 17.9405 33 18.4576 33 19V21.5ZM21.5 15H19C18.4576 15 17.9405 15.1079 17.4688 15.3035L18.0434 16.6891C18.3361 16.5677 18.6583 16.5 19 16.5H21.5V15ZM15 26.5H16.5V29C16.5 29.3417 16.5677 29.6639 16.6891 29.9566L15.3035 30.5312C15.1079 30.0595 15 29.5424 15 29V26.5ZM15 21.5H16.5V19C16.5 18.6583 16.5677 18.3361 16.6891 18.0434L15.3035 17.4688C15.1079 17.9405 15 18.4576 15 19V21.5ZM26.5 15V16.5H29C29.3417 16.5 29.6639 16.5677 29.9566 16.6891L30.5312 15.3035C30.0595 15.1079 29.5424 15 29 15H26.5ZM33 26.5H31.5V29C31.5 29.3417 31.4323 29.6639 31.3109 29.9566L32.6965 30.5312C32.8921 30.0595 33 29.5424 33 29V26.5Z" fill="#0B0B0B"/>
</svg>
