<svg width="48" height="48" viewBox="0 0 48 48" fill="none" xmlns="http://www.w3.org/2000/svg">
<rect width="48" height="48" rx="24" fill="#F5F5F5"/>
<path d="M21.9996 31.0002V26.0002H25.9996V31.0002C25.9996 31.5502 26.4496 32.0002 26.9996 32.0002H29.9996C30.5496 32.0002 30.9996 31.5502 30.9996 31.0002V24.0002H32.6996C33.1596 24.0002 33.3796 23.4302 33.0296 23.1302L24.6696 15.6002C24.2896 15.2602 23.7096 15.2602 23.3296 15.6002L14.9696 23.1302C14.6296 23.4302 14.8396 24.0002 15.2996 24.0002H16.9996V31.0002C16.9996 31.5502 17.4496 32.0002 17.9996 32.0002H20.9996C21.5496 32.0002 21.9996 31.5502 21.9996 31.0002Z" fill="#654ECE"/>
</svg>
