<svg width="28" height="28" viewBox="0 0 28 28" fill="none" xmlns="http://www.w3.org/2000/svg">
<path fill-rule="evenodd" clip-rule="evenodd" d="M26 14C26 20.6274 20.6274 26 14 26C7.37258 26 2 20.6274 2 14C2 7.37258 7.37258 2 14 2C20.6274 2 26 7.37258 26 14ZM28 14C28 21.732 21.732 28 14 28C6.26801 28 0 21.732 0 14C0 6.26801 6.26801 0 14 0C21.732 0 28 6.26801 28 14ZM13.2729 18.0788L19.9604 11.3288L18.5396 9.92119L12.5296 15.9873L9.42627 13.1383L8.07373 14.6117L11.8862 18.1117L12.5954 18.7627L13.2729 18.0788Z" fill="#654ECE"/>
</svg>
