<svg width="63" height="63" viewBox="0 0 63 63" fill="none" xmlns="http://www.w3.org/2000/svg">
<path d="M40.935 41.5071L37.3185 32.2439L9.69866 27.4116C8.29969 27.1677 7.22812 28.6631 7.87412 29.9577L13.6372 41.5071H40.935Z" fill="#4A33B5"/>
<path d="M49.3889 62.4992L40.875 41.2978L2.23628 41.0948C0.825881 41.0874 0.00383487 42.7236 0.829187 43.8954L13.674 62.1328C13.8361 62.3629 14.0962 62.4992 14.3732 62.4992H49.3889Z" fill="#A395E2"/>
<path d="M39.8831 0.247988L29.2846 10.7361C29.1294 10.8896 29.0469 11.0752 29.0254 11.2633H54.3459C55.9625 11.2633 56.1521 9.50324 55.2924 8.97381L40.9262 0.126261C40.5917 -0.0797529 40.1638 -0.029823 39.8831 0.247988Z" fill="#A395E2"/>
<path d="M29.0273 11.2637C29.0095 11.4072 29.0261 11.5587 29.0848 11.7066C29.0848 11.7066 49.1187 62.087 49.2815 62.5004C49.6049 62.5004 50.2515 62.5004 50.5194 62.087L62.859 42.8211C63.0613 42.5052 63.0451 42.0924 62.8187 41.7941L39.6433 11.2637H29.0273Z" fill="#654ECE"/>
</svg>
