<svg width="21" height="14" viewBox="0 0 21 14" fill="none" xmlns="http://www.w3.org/2000/svg">
<path d="M7.50459 2.00317H13.0668V11.9975H7.50459V2.00317Z" fill="#FF5F00"/>
<path d="M7.85778 7.00039C7.85778 4.96976 8.81128 3.16862 10.2768 2.00318C9.19979 1.15561 7.84016 0.643555 6.35691 0.643555C2.84287 0.643555 0 3.48643 0 7.00039C0 10.5143 2.84287 13.3572 6.35683 13.3572C7.84008 13.3572 9.19971 12.8452 10.2768 11.9975C8.81128 10.8498 7.85778 9.03101 7.85778 7.00039Z" fill="#EB001B"/>
<path d="M20.5714 7.00039C20.5714 10.5143 17.7285 13.3572 14.2145 13.3572C12.7313 13.3572 11.3716 12.8452 10.2945 11.9975C11.7778 10.8321 12.7137 9.03101 12.7137 7.00039C12.7137 4.96976 11.7601 3.16862 10.2945 2.00318C11.3716 1.15561 12.7313 0.643555 14.2145 0.643555C17.7285 0.643555 20.5714 3.50412 20.5714 7.00039Z" fill="#F79E1B"/>
</svg>
