<svg width="24" height="24" viewBox="0 0 24 24" fill="none" xmlns="http://www.w3.org/2000/svg">
<rect width="24" height="24" rx="12" fill="#F5F5F5"/>
<path d="M8.77161 11.274C9.63561 12.972 11.0276 14.358 12.7256 15.228L14.0456 13.908C14.2076 13.746 14.4476 13.692 14.6576 13.764C15.3296 13.986 16.0556 14.106 16.7996 14.106C17.1296 14.106 17.3996 14.376 17.3996 14.706V16.8C17.3996 17.13 17.1296 17.4 16.7996 17.4C11.1656 17.4 6.59961 12.834 6.59961 7.19998C6.59961 6.86998 6.86961 6.59998 7.19961 6.59998H9.29961C9.62961 6.59998 9.89961 6.86998 9.89961 7.19998C9.89961 7.94998 10.0196 8.66998 10.2416 9.34198C10.3076 9.55198 10.2596 9.78598 10.0916 9.95398L8.77161 11.274Z" fill="#654ECE"/>
</svg>
