<svg width="24" height="24" viewBox="0 0 24 24" fill="none" xmlns="http://www.w3.org/2000/svg">
<rect width="24" height="24" rx="12" fill="#F5F5F5"/>
<path d="M11.9998 11.7C11.602 11.7 11.2204 11.542 10.9391 11.2607C10.6578 10.9794 10.4998 10.5978 10.4998 10.2C10.4998 9.80218 10.6578 9.42064 10.9391 9.13934C11.2204 8.85804 11.602 8.7 11.9998 8.7C12.3976 8.7 12.7792 8.85804 13.0605 9.13934C13.3418 9.42064 13.4998 9.80218 13.4998 10.2C13.4998 10.397 13.461 10.592 13.3856 10.774C13.3102 10.956 13.1998 11.1214 13.0605 11.2607C12.9212 11.3999 12.7558 11.5104 12.5738 11.5858C12.3918 11.6612 12.1968 11.7 11.9998 11.7ZM11.9998 6C10.8859 6 9.81761 6.4425 9.02996 7.23015C8.2423 8.0178 7.7998 9.08609 7.7998 10.2C7.7998 13.35 11.9998 18 11.9998 18C11.9998 18 16.1998 13.35 16.1998 10.2C16.1998 9.08609 15.7573 8.0178 14.9697 7.23015C14.182 6.4425 13.1137 6 11.9998 6Z" fill="#654ECE"/>
</svg>
