<svg width="14" height="14" viewBox="0 0 14 14" fill="none" xmlns="http://www.w3.org/2000/svg">
<path fill-rule="evenodd" clip-rule="evenodd" d="M7 13.5C10.5899 13.5 13.5 10.5899 13.5 7C13.5 3.41015 10.5899 0.5 7 0.5C3.41015 0.5 0.5 3.41015 0.5 7C0.5 10.5899 3.41015 13.5 7 13.5ZM5.28294 4.71726C5.12673 4.56105 4.87346 4.56105 4.71726 4.71726C4.56105 4.87346 4.56105 5.12673 4.71726 5.28294L6.43441 7.0001L4.71726 8.71725C4.56105 8.87346 4.56105 9.12673 4.71726 9.28294C4.87346 9.43915 5.12673 9.43915 5.28294 9.28294L7.0001 7.56578L8.71725 9.28294C8.87346 9.43915 9.12673 9.43915 9.28294 9.28294C9.43915 9.12673 9.43915 8.87346 9.28294 8.71725L7.56578 7.0001L9.28294 5.28294C9.43915 5.12673 9.43915 4.87346 9.28294 4.71726C9.12673 4.56105 8.87346 4.56105 8.71725 4.71726L7.0001 6.43441L5.28294 4.71726Z" fill="#FF3B30"/>
</svg>
