<svg width="25" height="24" viewBox="0 0 25 24" fill="none" xmlns="http://www.w3.org/2000/svg">
<path d="M19.0868 9.07807H19.9211L19.5277 8.34229C18.7088 6.81087 16.7002 3.76628 12.6027 3.76628C7.5835 3.76628 4.36882 7.87893 4.36882 12.0001C4.36882 16.1213 7.5835 20.234 12.6027 20.234C15.0209 20.234 17.0166 19.2826 18.4363 17.8351L18.4364 17.8349C19.194 17.0618 19.795 16.1494 20.2063 15.1481C20.2155 15.1257 20.229 15.1054 20.2461 15.0882C20.2632 15.071 20.2835 15.0574 20.3058 15.048C20.3282 15.0387 20.3521 15.0339 20.3763 15.0338C20.4006 15.0337 20.4246 15.0384 20.447 15.0476C20.4694 15.0568 20.4897 15.0704 20.5069 15.0874L20.8594 14.7329L20.5069 15.0874C20.5241 15.1045 20.5377 15.1248 20.5471 15.1471C20.5564 15.1695 20.5612 15.1935 20.5613 15.2177C20.5614 15.2419 20.5567 15.2659 20.5475 15.2883L21.01 15.4783L20.5475 15.2883C20.1178 16.3342 19.4899 17.2871 18.6983 18.0945C17.2115 19.6068 15.1238 20.6028 12.6027 20.6028C7.35323 20.6028 4 16.299 4 12.0001C4 7.70125 7.35323 3.39746 12.6027 3.39746C16.6584 3.39746 18.7593 6.23134 19.6962 7.88425L20.5819 9.44689H16.7091C16.6602 9.44689 16.6133 9.42746 16.5787 9.39288C16.5441 9.35829 16.5247 9.31139 16.5247 9.26248C16.5247 9.21357 16.5441 9.16666 16.5787 9.13208C16.6133 9.0975 16.6602 9.07807 16.7091 9.07807H19.0868ZM20.8156 9.44689H20.6312V7.63769V5.15602C20.6312 5.1071 20.6506 5.0602 20.6852 5.02562C20.7198 4.99103 20.7667 4.97161 20.8156 4.97161C20.8645 4.97161 20.9114 4.99103 20.946 5.02562C20.9806 5.0602 21 5.1071 21 5.15602V9.26248C21 9.31139 20.9806 9.3583 20.946 9.39288C20.9114 9.42746 20.8645 9.44689 20.8156 9.44689Z" fill="black" stroke="white"/>
</svg>
