<svg width="18" height="18" viewBox="0 0 18 18" fill="none" xmlns="http://www.w3.org/2000/svg">
<path fill-rule="evenodd" clip-rule="evenodd" d="M15.3644 15.364C17.0522 13.6761 18.0005 11.3869 18.0005 9C18.0005 6.61305 17.0522 4.32387 15.3644 2.63604C13.6765 0.948213 11.3872 0 9.00023 0C6.61322 0 4.32398 0.948213 2.63611 2.63604C0.948236 4.32387 0 6.61305 0 9C0 11.3869 0.948236 13.6761 2.63611 15.364C4.32398 17.0518 6.61322 18 9.00023 18C11.3872 18 13.6765 17.0518 15.3644 15.364ZM6.8757 10.8202C6.72965 10.8202 6.61125 10.9386 6.61125 11.0847V11.2548C6.61125 11.4009 6.72965 11.5193 6.8757 11.5193H7.46959V12.0689C7.46959 12.2149 7.58799 12.3333 7.73404 12.3333H7.97499C8.12104 12.3333 8.23944 12.2149 8.23944 12.0689V11.5193H10.1076C10.2536 11.5193 10.372 11.4009 10.372 11.2548V11.0847C10.372 10.9386 10.2536 10.8202 10.1076 10.8202H8.23944V10.1035H9.54908C9.87943 10.1035 10.1832 10.0651 10.4605 9.98843C10.7437 9.90584 10.9855 9.78196 11.1861 9.61679C11.3926 9.44571 11.5519 9.23334 11.664 8.97968C11.7819 8.72012 11.8409 8.41631 11.8409 8.06826C11.8409 7.36037 11.6463 6.85304 11.2569 6.54629C10.8735 6.23364 10.3337 6.07731 9.63756 6.07731H7.73404C7.58799 6.07731 7.46959 6.19571 7.46959 6.34175V9.39557H6.8757C6.72965 9.39557 6.61125 9.51396 6.61125 9.66001V9.83902C6.61125 9.98507 6.72965 10.1035 6.8757 10.1035H7.46959V10.8202H6.8757ZM10.1331 9.32478C9.95612 9.37197 9.7644 9.39557 9.55792 9.39557H8.23944V6.77636H9.61987C10.1036 6.77636 10.4635 6.87369 10.6994 7.06836C10.9413 7.26303 11.0622 7.59338 11.0622 8.05942C11.0563 8.31308 11.0121 8.5225 10.9295 8.68767C10.8528 8.85285 10.7466 8.98853 10.6109 9.09471C10.4753 9.195 10.316 9.27169 10.1331 9.32478Z" fill="#654ECE"/>
</svg>
