<svg width="48" height="48" viewBox="0 0 48 48" fill="none" xmlns="http://www.w3.org/2000/svg">
<path d="M0 24C0 10.7452 10.7452 0 24 0C37.2548 0 48 10.7452 48 24C48 37.2548 37.2548 48 24 48C10.7452 48 0 37.2548 0 24Z" fill="#F5F5F5"/>
<g clip-path="url(#clip0_6236_102085)">
<path d="M16.9737 18.5583C17.4945 18.4908 18.0222 18.5047 18.5468 18.504C22.3422 18.5033 26.1384 18.5047 29.9337 18.5033C30.5022 18.5011 31.0753 18.5363 31.6268 18.6756C33.2268 19.0562 34.6222 20.1357 35.3522 21.5444C35.8814 22.541 36.0576 23.6982 35.8822 24.8004C35.6953 26.0295 35.0376 27.183 34.0737 28.0146C33.0368 28.9181 31.643 29.4336 30.2384 29.4373C26.1384 29.4431 22.0384 29.438 17.9391 29.4402C17.2368 29.4453 16.5299 29.3595 15.8675 29.1315C14.4668 28.6761 13.2776 27.6721 12.6191 26.4101C12.0745 25.379 11.893 24.1822 12.0983 23.0456C12.3406 21.6815 13.156 20.4224 14.3207 19.5981C15.093 19.0437 16.0153 18.6815 16.9737 18.5583Z" fill="#219F38"/>
<path d="M27.3707 24.5759C27.6876 24.4842 28.0269 24.5275 28.353 24.518C28.4592 25.0379 27.7923 25.329 27.3561 25.1384C27.1199 25.0371 27.1146 24.6544 27.3707 24.5759ZM23.8669 22.4551C24.3176 22.4712 24.7915 22.3994 25.2238 22.5519C25.5792 22.6751 25.6399 23.1078 25.5292 23.4091C25.4523 23.6563 25.1938 23.8 24.9407 23.8389C24.5853 23.8931 24.2238 23.8565 23.8661 23.866C23.8699 23.396 23.8707 22.9251 23.8669 22.4551ZM29.3699 22.9303C29.773 23.877 30.1869 24.8194 30.5976 25.7631C30.513 25.9414 30.4523 26.1804 30.2346 26.2494C30.0653 26.3102 29.9007 26.212 29.7584 26.1364C29.7653 26.341 29.7646 26.5456 29.7569 26.7495C30.003 26.8771 30.3084 26.902 30.5707 26.8074C30.8607 26.6696 30.9999 26.3696 31.1138 26.0983C31.5092 25.043 31.9007 23.9863 32.3015 22.9332C32.0615 22.931 31.8215 22.931 31.5815 22.9303C31.3499 23.561 31.1699 24.21 30.9146 24.8326C30.6461 24.2004 30.3923 23.5624 30.1223 22.9303C29.8715 22.9318 29.6207 22.9318 29.3699 22.9303ZM26.7138 23.1276C26.7161 23.4011 26.7161 23.6746 26.7076 23.9481C26.9976 23.5301 27.5838 23.3586 28.0784 23.503C28.3376 23.5866 28.3399 23.88 28.3546 24.0956C27.9576 24.0978 27.5561 24.0801 27.163 24.1447C26.8646 24.1924 26.5638 24.3933 26.5161 24.6947C26.443 25.0445 26.5323 25.4794 26.8869 25.6627C27.3938 25.9194 28.1376 25.7661 28.3861 25.2418C28.3846 25.4068 28.3853 25.571 28.3861 25.736C28.6007 25.7368 28.8153 25.7368 29.0299 25.736C29.0215 25.0591 29.0469 24.3816 29.0169 23.7054C29.0061 23.327 28.6961 23.0029 28.3107 22.9332C27.7807 22.8357 27.183 22.8445 26.7138 23.1276ZM20.1284 22.0958C19.3092 22.6839 18.4853 23.2654 17.6622 23.8477C17.2714 23.6057 16.8738 23.3732 16.4822 23.1327C16.4822 23.4231 16.4799 23.7135 16.4846 24.0031C16.8815 24.2298 17.2692 24.4703 17.6584 24.7094C18.6122 24.0413 19.5576 23.3622 20.5069 22.6883C20.393 22.4837 20.273 22.282 20.1284 22.0958ZM23.1353 21.8039C23.1376 23.1151 23.1399 24.4256 23.1384 25.736C23.3807 25.736 23.623 25.736 23.8653 25.7375C23.8769 25.3312 23.8692 24.9242 23.8707 24.518C24.5123 24.5121 25.2115 24.5671 25.7776 24.2224C26.343 23.8756 26.4453 23.1202 26.2238 22.557C26.0507 22.1302 25.5715 21.9154 25.1223 21.8567C24.4638 21.7716 23.7976 21.8134 23.1353 21.8039ZM14.553 23.8536C14.5069 24.9668 15.1884 26.0682 16.2214 26.5838C16.7522 26.8815 17.3884 26.9768 17.9961 26.9204C19.0522 26.817 20.013 26.143 20.4607 25.2293C20.7684 24.6676 20.8192 24.0127 20.7261 23.393C20.5046 23.5558 20.2769 23.7106 20.0576 23.8756C20.073 24.6969 19.6115 25.5116 18.8645 25.926C18.2699 26.2626 17.5161 26.3344 16.8668 26.1034C15.9992 25.8181 15.3607 25.0137 15.2876 24.1447C15.1792 23.2009 15.7584 22.2351 16.663 21.8413C17.4107 21.4959 18.3346 21.5773 19.0176 22.0224C19.2222 21.8787 19.4238 21.732 19.6276 21.5883C19.0522 21.1806 18.3553 20.9158 17.6307 20.9276C16.0015 20.9107 14.5592 22.3092 14.553 23.8536Z" fill="white"/>
</g>
<defs>
<clipPath id="clip0_6236_102085">
<rect width="24" height="11" fill="white" transform="translate(12 18.5)"/>
</clipPath>
</defs>
</svg>
