<svg width="9" height="9" viewBox="0 0 9 9" fill="none" xmlns="http://www.w3.org/2000/svg">
<path fill-rule="evenodd" clip-rule="evenodd" d="M4.65584 8.05703C6.80137 8.05703 8.54068 6.31773 8.54068 4.17219C8.54068 2.02666 6.80137 0.287354 4.65584 0.287354C2.5103 0.287354 0.770996 2.02666 0.770996 4.17219C0.770996 6.31773 2.5103 8.05703 4.65584 8.05703ZM3.05876 4.33872L3.92526 5.16336L6.39241 2.81775C6.4391 2.77332 6.50242 2.74836 6.56845 2.74836C6.63448 2.74836 6.69781 2.77332 6.7445 2.81775C6.79119 2.86219 6.81742 2.92246 6.81742 2.9853C6.81742 3.04814 6.79119 3.10841 6.7445 3.15284L4.10255 5.66718C4.00517 5.75986 3.84785 5.75986 3.75046 5.66718L2.70667 4.6738C2.68355 4.6518 2.66521 4.62568 2.6527 4.59693C2.64019 4.56819 2.63375 4.53737 2.63375 4.50626C2.63375 4.44342 2.65998 4.38315 2.70667 4.33872C2.75336 4.29428 2.81668 4.26932 2.88271 4.26932C2.94874 4.26932 3.01207 4.29428 3.05876 4.33872Z" fill="#34C759"/>
</svg>
