<svg width="18" height="18" viewBox="0 0 18 18" fill="none" xmlns="http://www.w3.org/2000/svg">
<path fill-rule="evenodd" clip-rule="evenodd" d="M9 18C13.9706 18 18 13.9706 18 9C18 4.02944 13.9706 0 9 0C4.02944 0 0 4.02944 0 9C0 13.9706 4.02944 18 9 18ZM5.84342 10.6785C5.7423 10.7796 5.7423 10.9436 5.84342 11.0447L7.22437 12.4256C7.32549 12.5267 7.48943 12.5267 7.59055 12.4256C7.69166 12.3245 7.69166 12.1606 7.59055 12.0594L6.65161 11.1205H12.2408C12.3838 11.1205 12.4997 11.0046 12.4997 10.8616C12.4997 10.7186 12.3838 10.6027 12.2408 10.6027H6.65161L7.59055 9.66372C7.69166 9.56261 7.69166 9.39866 7.59055 9.29755C7.48943 9.19643 7.32548 9.19643 7.22437 9.29755L5.84342 10.6785ZM6.02651 6.80504C5.8835 6.80504 5.76758 6.92097 5.76758 7.06397C5.76758 7.20697 5.8835 7.3229 6.02651 7.3229L11.6157 7.3229L10.6767 8.26183C10.5756 8.36295 10.5756 8.52689 10.6767 8.62801C10.7779 8.72913 10.9418 8.72913 11.0429 8.62801L12.4239 7.24706C12.525 7.14594 12.525 6.982 12.4239 6.88088L11.0429 5.49993C10.9418 5.39881 10.7779 5.39881 10.6767 5.49993C10.5756 5.60105 10.5756 5.76499 10.6767 5.86611L11.6157 6.80504L6.02651 6.80504Z" fill="#654ECE"/>
</svg>
