<svg width="48" height="48" viewBox="0 0 48 48" fill="none" xmlns="http://www.w3.org/2000/svg">
<rect width="48" height="48" rx="24" fill="#F5F5F5"/>
<path d="M29.9075 21.7498H24.5633V23.7187C24.5633 25.1145 23.4277 26.2502 22.0319 26.2502C20.636 26.2502 19.5004 25.1145 19.5004 23.7187V19.4434L17.2186 20.8146C16.54 21.2189 16.1251 21.9537 16.1251 22.7413V24.4043L13.3124 26.0287C12.7744 26.3381 12.5881 27.0272 12.901 27.5651L15.7137 32.4382C16.0231 32.9761 16.7123 33.159 17.2502 32.8496L20.8857 30.7506H25.6884C26.9295 30.7506 27.9386 29.7415 27.9386 28.5004H28.5012C29.1235 28.5004 29.6262 27.9976 29.6262 27.3753V25.1251H29.9075C30.3751 25.1251 30.7513 24.7489 30.7513 24.2813V22.5936C30.7513 22.126 30.3751 21.7498 29.9075 21.7498ZM35.1005 20.4349L32.2878 15.5618C31.9784 15.0239 31.2893 14.841 30.7513 15.1504L27.1159 17.2494H23.5226C23.1007 17.2494 22.6893 17.369 22.3307 17.5905L21.1529 18.3253C20.8224 18.5292 20.6255 18.8914 20.6255 19.2781V23.7187C20.6255 24.4957 21.2548 25.1251 22.0319 25.1251C22.8089 25.1251 23.4382 24.4957 23.4382 23.7187V20.6247H29.9075C30.9939 20.6247 31.8764 21.5072 31.8764 22.5936V23.5957L34.6892 21.9713C35.2271 21.6584 35.4099 20.9728 35.1005 20.4349Z" fill="#654ECE"/>
</svg>
