<svg width="48" height="48" viewBox="0 0 48 48" fill="none" xmlns="http://www.w3.org/2000/svg">
<rect width="48" height="48" rx="24" fill="#F5F5F5"/>
<path d="M24 15C25.1935 15 26.3381 15.4741 27.182 16.318C28.0259 17.1619 28.5 18.3065 28.5 19.5C28.5 20.6935 28.0259 21.8381 27.182 22.682C26.3381 23.5259 25.1935 24 24 24C22.8065 24 21.6619 23.5259 20.818 22.682C19.9741 21.8381 19.5 20.6935 19.5 19.5C19.5 18.3065 19.9741 17.1619 20.818 16.318C21.6619 15.4741 22.8065 15 24 15ZM24 26.25C28.9725 26.25 33 28.2638 33 30.75V33H15V30.75C15 28.2638 19.0275 26.25 24 26.25Z" fill="#654ECE"/>
</svg>
