<svg width="48" height="48" viewBox="0 0 48 48" fill="none" xmlns="http://www.w3.org/2000/svg">
<rect width="48" height="48" rx="24" fill="#F5F5F5"/>
<path d="M17.5714 18.2139H30.4286C30.5788 18.2138 30.7288 18.2233 30.8778 18.2424C30.8273 17.8879 30.7055 17.5474 30.5198 17.2412C30.3342 16.9351 30.0884 16.6697 29.7974 16.4611C29.5064 16.2525 29.1762 16.105 28.8266 16.0275C28.4771 15.95 28.1154 15.944 27.7635 16.0101L17.1897 17.8153H17.1777C16.514 17.9422 15.9237 18.3177 15.5275 18.8652C16.1244 18.4406 16.8389 18.2129 17.5714 18.2139ZM30.4286 19.1781H17.5714C16.8897 19.1789 16.2361 19.4501 15.754 19.9321C15.2719 20.4142 15.0007 21.0678 15 21.7496V29.4639C15.0007 30.1456 15.2719 30.7992 15.754 31.2813C16.2361 31.7634 16.8897 32.0345 17.5714 32.0353H30.4286C31.1103 32.0345 31.7639 31.7634 32.246 31.2813C32.7281 30.7992 32.9993 30.1456 33 29.4639V21.7496C32.9993 21.0678 32.7281 20.4142 32.246 19.9321C31.7639 19.4501 31.1103 19.1789 30.4286 19.1781ZM28.5201 26.8924C28.2658 26.8924 28.0172 26.817 27.8058 26.6758C27.5943 26.5345 27.4296 26.3337 27.3322 26.0987C27.2349 25.8638 27.2095 25.6053 27.2591 25.3559C27.3087 25.1065 27.4311 24.8774 27.611 24.6976C27.7908 24.5178 28.0199 24.3953 28.2693 24.3457C28.5187 24.2961 28.7772 24.3216 29.0121 24.4189C29.247 24.5162 29.4478 24.681 29.5891 24.8924C29.7304 25.1039 29.8058 25.3524 29.8058 25.6067C29.8058 25.9477 29.6703 26.2747 29.4292 26.5159C29.1881 26.757 28.8611 26.8924 28.5201 26.8924Z" fill="#654ECE"/>
</svg>
