<svg width="14" height="12" viewBox="0 0 14 12" fill="none" xmlns="http://www.w3.org/2000/svg">
<path d="M13.5298 9.84534L8.28281 0.733232C8.1517 0.509989 7.96452 0.324888 7.73982 0.196274C7.51513 0.0676601 7.26073 0 7.00183 0C6.74293 0 6.48852 0.0676601 6.26383 0.196274C6.03914 0.324888 5.85196 0.509989 5.72084 0.733232L0.473892 9.84534C0.347735 10.0613 0.28125 10.3069 0.28125 10.5569C0.28125 10.807 0.347735 11.0526 0.473892 11.2685C0.603329 11.4931 0.790191 11.6792 1.0153 11.8078C1.24042 11.9363 1.49567 12.0026 1.75488 11.9999H12.2488C12.5078 12.0024 12.7628 11.936 12.9877 11.8075C13.2126 11.6789 13.3992 11.4929 13.5286 11.2685C13.6549 11.0527 13.7216 10.8072 13.7218 10.5571C13.722 10.307 13.6557 10.0614 13.5298 9.84534ZM6.52183 4.79999C6.52183 4.67269 6.5724 4.5506 6.66242 4.46058C6.75244 4.37057 6.87452 4.32 7.00183 4.32C7.12913 4.32 7.25122 4.37057 7.34124 4.46058C7.43125 4.5506 7.48182 4.67269 7.48182 4.79999V7.19997C7.48182 7.32727 7.43125 7.44936 7.34124 7.53938C7.25122 7.62939 7.12913 7.67996 7.00183 7.67996C6.87452 7.67996 6.75244 7.62939 6.66242 7.53938C6.5724 7.44936 6.52183 7.32727 6.52183 7.19997V4.79999ZM7.00183 10.0799C6.85943 10.0799 6.72022 10.0377 6.60182 9.9586C6.48342 9.87949 6.39113 9.76704 6.33664 9.63548C6.28215 9.50391 6.26789 9.35915 6.29567 9.21948C6.32345 9.07982 6.39202 8.95153 6.49272 8.85084C6.59341 8.75014 6.7217 8.68157 6.86136 8.65379C7.00103 8.62601 7.14579 8.64027 7.27736 8.69476C7.40892 8.74926 7.52137 8.84154 7.60048 8.95994C7.67959 9.07834 7.72182 9.21755 7.72182 9.35995C7.72182 9.5509 7.64596 9.73403 7.51094 9.86906C7.37591 10.0041 7.19278 10.0799 7.00183 10.0799Z" fill="#FF9500"/>
</svg>
